<svg xmlns="http://www.w3.org/2000/svg" width="300" height="150" viewBox="0 0 300 150"><path d="M46.153 108.516l.21-2.037c.106.04.25.076.423.11l-.095.935c-.072.025-.075.045-.077.06-.008.042.028.07.062.086h-.014c-.09-.052-.204-.083-.287-.08-.026 0-.048.02-.05.044v.01c-.028.013-.053.032-.075.057-.02.024-.014.057.007.074.024.02.056.018.074-.01.015.062.06.11.13.13.03.01.067.014.103.014.032 0 .063-.01.093-.018l-.02.19h-.03l-.453.442zm1.068-.187c.003-.03.008-.055.02-.09 0-.01.003-.02 0-.03-.008-.035.013-.12.03-.184.014-.05.026-.1.03-.14l.01-.084c.25.035.546.06.846.085l-.026.455-.91-.01zm2.675.033l.077-.25 1.526.047c-.006.074-.015.15-.03.224l-1.573-.02zm3.73.047h-.38c.005-.034.005-.07.005-.105-.002-.03 0-.06 0-.087l.37.01.005.186zm.38-1.772s-.002-.046-.02-.1c.044 0 .09 0 .133.01-.047.028-.086.058-.113.092zm1.53-.412s-.206.014-.467.05c-.105-.13-.26-.3-.445-.45.266.01.525.016.775.022.02.01.035.017.056.023l.08.357zm.303-3.302l-1.036.04-.525-1.707 1.56 1.667zm.23-.557l-2.267-2.33s.593-.146.42-.55c0 0 .408-.38.406-.793l1.583 1.01-.142 2.663zm.647.188c0-.2-.01-.4.014-.6l.112-1.848 2.013 1.283c-.002.082-.002.163.006.246.01.08.02.16.026.24.017.168.032.342.06.505.01.08.03.157.053.23l-.758-.02c-.035-.01-.063-.022-.074-.042-.144-.247.2-.234.266-.347.112-.19-.137-.258-.257-.324.374-.243.23-.82-.222-.89-.447-.072-.698.31-.586.704.014.05.07.117.1.157-.148.118-.373-.075-.485.06-.174.21.158.296.222.384-.05.09-.002.18-.03.285-.123-.01-.222.067-.208.197.06.073.134.1.21.154 0 .028-.034.123-.05.146-.136-.042-.345-.042-.473.016-.05-.14.058-.367.058-.532zm1.467 3.618l-.025-.654 2.936 3.587c-.063.044-.125.084-.18.12l-2.326-2.992-.405-.062zm3.968 15.463l-.157-4.47s.194-.768.618-.184l1.29 1.932s.332-.734.802-.34l.176-.233s1.223-3.116 1.39-1.59c0 0 .465 3.565.184 4.56 0 0 .362-.013.3.178 0 0-.177.205-1.18.048 0 0-.945-.214-1.122-.366 0 0-1.227.662-2.115.765 0 0-.916.078-.185-.3zm4.166-11.8c-.266 0-1.065.02-1.935.036l-3.703-4.383c.16-.024.334-.104.52-.282l4.86.17 6.524 3.275-.03.633-.553.65-1.174.02s-.398.096-.49.432l-2.49.025s-.106-.33-.702-.227c0 0-.147-.367-.824-.35zm7.89 2c-.012-.27.197-.495.466-.508.27-.01.496.2.508.47.012.267-.2.495-.47.507-.267.01-.495-.2-.505-.47zm4.072-2.013l-2.794.05-.876-.44.122-2.664h.052l.075-.777-.388-.023.02-.175 4.613.412s.455.714.996.118h.192l.013.305-1.754.073-.12.34.165.112-.072.19-.077.135-.168 2.34zm1.42-2.364c1.31-.63 2.208.468 2.18.815l-.06.8s-.613 0-.735.272l-2.12.647-.412-.05s-.158-1.86 1.15-2.485zm-6.898 1.064l.083-1.705 1.473-.04-1.333 1.856-.223-.112zm-.022.45l.012-.216.106.053-.118.163zm-.257.95h-.24l.253-.294-.013.29zm.695-1.19l1.294-1.8-.11 2.394-1.185-.595zm1.382.933l.426.213-.437.01.01-.22zm-1.864.256l.028-.56.33-.456 1.3.653-.014.332-1.643.032zm.7-4.193l-.004.2-.69.11-.016.6c-.027.02-.048.048-.05.083l-.08 1.697-6.027-3.025.258.01s.192.446.48-.01l.387.01s.24.616.613.04l2.853.018s.405.756 1.178.15l1.098.114zm-5.77-2.386c-.06.035-.122.08-.184.14l-.255-.01.042-.456c.182.064.31.197.394.327zm-.503-.353l-.04.476-.68-.032-.01-.226-.497-.045-.35.255c-1.1-.043-2.206-.117-3.31-.15-.092-.046-.182-.115-.268-.182-.082-.064-.166-.132-.256-.178-.02-.013-.04-.023-.058-.03 2.027.033 4.94.088 5.374.106.03 0 .063 0 .094.01zm-6.393-2.68c-.004 0-.006.012-.01.017-.096.137-.784.6-.15.645.02.098-.002.282-.04.372-.057.15-.223.07-.27.213-.07.218.215.077.274.142.062.066.062.38-.004.444-.056.054-.154-.01-.228.06-.216.195.084.228.222.234-.002 0-.006.094-.022.204-.225 0-.414-.01-.553-.01.006-.097-.005-.197.048-.334.027-.076.184-.163.194-.227.026-.16-.35-.187-.15-.407.024 0 .045-.02.076-.025-.002-.108-.07-.136-.07-.232.08.018.137-.026.175-.106.088-.187-.03-.097-.086-.156-.02-.024-.067.022-.106-.046-.025-.043.02-.11.02-.147 0-.1.014-.222.042-.318.19.046.253-.144.194-.304l.445-.02zm-.852 2.534c.138 0 .336 0 .58.01-.028.083-.066.15-.123.167-.147.042-.423.035-.53-.085.03-.032.056-.062.072-.09zm-.895-1.35l.25.16c0 .083-.003.17-.025.248-.19-.073-.275.184-.107.268.213-.126.14.323 0 .328l-.048.047c-.016-.06-.03-.12-.038-.18-.03-.162-.044-.333-.06-.5-.01-.08-.015-.163-.025-.24-.008-.05-.008-.1-.008-.15.013.01.036.015.058.02zm.253.032l-.035-.02h.035v.015zm2.396 1.458c.01 0 .02.01.03.014.08.045.158.105.238.17.044.032.086.065.13.096-.14 0-.277-.01-.413-.01l.014-.272zm-.47-.12c.08 0 .164 0 .247.01.006 0 .01 0 .014.01l-.02.38h-.162c-.53 0-.225-.164-.077-.39zm.072 6.12l-3-3.66.243-.207.478-.02s.307.682.63.148l.278-.09s.19.236.483.317l2.197 2.602c-.4.28-.904.634-1.308.91zm1.728 2.24c.28-.012.516.21.528.497.01.286-.204.527-.484.54-.28.013-.514-.21-.528-.498-.01-.285.206-.528.484-.54zm-1.238-1.3h-.307l-.412-.53.186-.127.532.65zm-.355-.772c.303-.207.724-.5 1.31-.917l1.387 1.643c-.767.014-1.556.03-2.073.037l-.623-.763zm-2.34-6.33c.002.01.006.017.007.025 0 .01.004.015.004.018-.054.036-.122.07-.16.082.056.342-.557.132-.714.118-.01-.018-.013-.033-.026-.05.02-.106.174-.15.264-.206l.624.015zm.025-2.508c.044-.043.127-.05.21-.044-.002.014-.005.03-.002.043.005.046-.052.07-.02.167.022.083.073.077.088.182.017.107.004.22-.03.316-.07.2-.227.17-.345.332-.01.013-.01.02-.016.03l-.015-.01c.01-.12.02-.244.035-.365.01-.083.018-.166.025-.246l.002-.088c.004-.103.01-.263.067-.32zm-2.876-.73l-1.61-1.026c-.01-.03-.02-.065-.034-.097.13-.054.36-.182.448-.308l1.462.018-.122 1.23-.143.125v.06zm-2.39-2.003c-.008.045-.024.09-.04.137l-.014.045c-.08.01-.178.03-.3.076l-.27-.017s-.09-.156-.206-.22c.005-.06.002-.12 0-.177v-.066c.067.005.13.005.19.006.15.002.293.006.46.06l.05.016c.125.04.145.045.13.14zm-.795 2.54l.815 2.285-.232.196-.942-.573-.828.568.616 1.094s-.71.218-1.226 1.24c-.102 0-.206-.01-.31-.01l1.427-4.787c.24.023.483.023.68-.01zm-2.25 4.906l-.134.448c-.348-.027-.69-.056-1.014-.084-.006-.02-.02-.036-.042-.038-.024 0-.04.013-.048.03-.254-.02-.497-.042-.73-.063l.022-.326c.59 0 1.252.014 1.946.03zm-2.053-.03l-.02.313c-1.018-.092-1.798-.172-2.108-.204.275-.082 1.076-.114 2.127-.11zm-2.232.206c.074.01.22.023.43.043l-.09.9c-.18.012-.332.028-.443.05l.103-.993zm.302 1.285c-.182-.034-.326-.075-.424-.118l.007-.08c.096-.02.245-.033.442-.044l-.026.24zm.105.018l.026-.265c.11 0 .233 0 .365-.01l-.032.33c-.13-.02-.247-.037-.358-.058zm-.1.998l.09-.89c.11.016.23.035.36.052l-.02.172h-.03c-.024.01-.043.034-.04.06.005.04.025.075.057.104l-.05.46c-.168.013-.286.027-.37.042zm.305.618l-.367-.034.025-.246c.013 0 .02-.01.028-.02.016-.02.014-.05-.005-.07h-.004c.002-.012 0-.02-.006-.03l.004-.01c.094.026.216.048.36.07l-.035.343zm1.054-.342c-.296-.02-.587-.05-.835-.08.01-.05.02-.098.026-.144.237-.01.52-.017.825-.02l-.014.244zm.108.01l.016-.252h.28l-.02.273c-.09 0-.183-.014-.276-.02zm.244.56h-.276l.025-.45c.094.01.187.014.28.02l-.028.435zm.384 0h-.278l.027-.43c.1.01.197.012.29.02l-.04.416zm.423 0H49l.04-.413c.107 0 .213.01.31.016l-.03.404zm.543-.248l-.076.253h-.362l.03-.4c.107 0 .205.01.29.01l.005.136h.113zm.477-1.176l-.02.018.003-.018h.017zm.454-.53c-.01.068-.018.138-.027.207l-.245.187h-.156l.117-.39h.31zm2.678 0c-.187-.01-.39-.024-.605-.033.002-.177.034-.39.134-.618.132.01.265.016.395.023.066 0 .132.01.196.01l-.063.57s-.026.014-.055.05zm.76-.695c-.154 0-.31-.015-.466-.022v-.057c.076-.012.153-.012.234 0 .078.015.156.042.233.077zm-.63-.035h-.01.01zm-2.847-.185l.135-.454c.097 0 .195.01.292.01-.066.142-.13.294-.182.466-.082-.01-.165-.015-.245-.02zm-.03.105c.08 0 .16.012.243.02-.056.186-.106.39-.144.615-.09-.01-.186-.013-.283-.016l.184-.62zm-1.918-.16c.23.018.47.038.718.06l-.047.67c-.236-.01-.478-.016-.717-.022l.047-.71zm-1.44 1.147l.034-.344c.36 0 .786 0 1.247.013l-.01.153c-.2.04-.338.09-.386.158l-.003.01c-.002 0-.01.01-.01.015-.002 0 0 .01 0 .01-.002 0-.006.01-.006.01l-.004.07c-.234-.022-.46-.042-.674-.066v-.01c-.006-.022-.02-.04-.04-.042h-.007c0-.01-.004-.02-.006-.028-.007-.024-.03-.04-.053-.038h-.002c-.025 0-.045.02-.048.04-.004.02-.01.037-.012.058h-.016zm-.023.247l.013-.144h.016c0 .04-.004.08 0 .12v.02h-.03zm-.025.23c.014.01.025.01.04.013l-.04.16-.03.117.03-.29zm.864.37c-.336 0-.603.015-.81.024.016-.064.033-.13.047-.195.017-.06.03-.118.045-.18.013 0 .024.01.034.01.053 0 .105-.022.15-.074.006-.01.013-.024.012-.038 0-.016-.01-.03-.02-.036-.003 0-.006-.01-.008-.01 0 0 .005 0 .006-.01.015-.014.02-.036.01-.055-.007-.02-.025-.033-.046-.035h-.076c0-.002 0-.002-.002-.002.017-.038.027-.08.03-.116.21.025.436.045.666.064l-.038.658zm.385-.01h-.28l.037-.644c.094.01.19.017.285.02l-.043.622zm.11 0l.038-.61c.1.01.197.012.296.02h.027l-.056.59h-.305zm.266.41c-.097-.01-.195-.01-.295-.018l.02-.28h.303l-.027.3zm.41.02c-.096-.01-.2-.01-.304-.015l.03-.304h.298l-.024.317zm.384.013c-.082 0-.174-.01-.276-.01l.02-.32h.242l.014.33zm.47-.93l-.036.128-.454.343.002.023h-.228l.04-.528c.198.017.423.03.677.037zm.163-.53l-.117.385-.714-.035.024-.34c.244-.01.516-.012.807-.01zm-.797-.13c.174.01.35.015.528.024-.186 0-.362.01-.53.014l.002-.035zm-.106 0l-.002.044c-.096.01-.187.01-.272.018l.006-.07c.087 0 .177 0 .267.01zm-.724.11l.007-.13c.112 0 .226.01.34.01l-.005.082c-.126.01-.24.026-.342.04zm.68.503l-.038.54h-.3l.057-.572c.088.01.18.023.28.032zm-.27-.15l.03-.3c.085 0 .178-.01.274-.014l-.025.33c-.09 0-.182-.01-.278-.016zm-.416-.255c.097-.013.21-.025.338-.037l-.026.287h-.018c-.12-.02-.22-.037-.308-.057l.014-.19zm-.363.1c.05-.032.14-.058.255-.08l-.01.147c-.11-.027-.193-.05-.245-.067zm-1.586 1.026c.08-.014.21-.026.37-.036l-.01.11c-.146-.022-.266-.045-.36-.074zm1.91-2.18l-.046.714c-.44-.01-.87-.016-1.243-.01l.084-.822 1.206.115zm-1.313-.126l-.084.835c-.127 0-.25 0-.362.01l.09-.88c.107.01.225.02.357.034zm3.23.29l-.187.618c-.264-.013-.55-.024-.845-.038l.047-.665c.316.03.645.054.984.084zm2.996-.56c.136-.096.29-.187.476-.27l.697.16s.01.07.04.17c-.332-.018-.747-.038-1.214-.06zm1.604.714c-.242-.01-.494-.014-.75-.025-.138-.09-.29-.163-.45-.19-.22-.042-.434.01-.625.14-.113-.01-.225-.014-.34-.02.095-.177.233-.353.43-.52.478.024.94.044 1.38.067.062.176.172.396.355.546zm-.908.716c-.11-.01-.232-.018-.375-.027-.03-.048-.075-.087-.14-.087l-.023-.55.662.03c.208.138.385.327.51.476-.214.034-.446.085-.634.158zm-1.44.02l.55.028c-.012.04-.023.095-.025.16 0 0-.433.14-.462.14-.01 0-.054-.13-.064-.33zm-.684 1.722l.01.198-.62-.01c.015-.073.023-.148.03-.223l.588.02c-.003 0-.008.01-.008.015zm.407.203H52.3l-.007-.204v-.01l.373.012c-.032.06-.056.13-.07.202zm.546.01l-.44-.01c.022-.08.055-.157.087-.2l.358.01c-.005.032-.002.064-.002.094 0 .034 0 .07-.002.102zm29.22-.07l.02-1.787.266-.01.036.21s.137.07.3.048c.068.116.158.204.272.252.1.04.202.054.297.048.042 0 .08 0 .113-.01l-.04.784s-.015.308-.397.43l-.866.035zm1.33-1.696l-.02.335c-.12.02-.25.026-.374-.026-.083-.037-.152-.1-.208-.185.077-.03.156-.088.227-.19l.374.064zm2.847 11.566c-.012-.276.205-.513.485-.524.28-.012.514.205.525.483.012.28-.204.516-.484.528-.278.01-.513-.207-.526-.487zm1.786.01c-.013-.28.204-.515.484-.528.28-.01.515.207.527.487.012.278-.207.513-.487.525-.277.01-.514-.204-.524-.484zm1.335-7.96l-1.305-.053.082-1.37c.008-.134.108-.237.223-.23l.89.037c.114.01.2.118.19.253l-.08 1.362zm.546-5.59h-.002l.21-.842h.182l.02.866-.16.226-.25-.243zm.663-.105h-.015l-.032-.76c.048-.01.094-.01.137-.014l-.09.772zm.752-5.68l-.11-.447.184.01-.075.44zm.47-1.192l-.506-1.765.572-.006.322 1.237-.39.533zm.556-.674l-.298-1.098.3-.006.198.79-.2.313zm1.524-4.407c.575.003 1.602.055 1.602.055s.35.014.332.306l-.16 2.564s.038.29-.603.29c-.64 0-.718-.048-.718-.048s-.265.065-.44-.636c-.175-.7-.463-2.193-.463-2.193s-.123-.34.45-.338zm2.627 2.65c.027-.665.16-2.27.16-2.27s.014-.31.442-.288c.426.022 1.852.07 1.852.07s.417.026.4.32l-.137 2.482s.04.306-.467.3c-.506-.006-1.788-.062-1.788-.062s-.488.113-.463-.553zm1.807 23.125c-.01-.278.207-.513.487-.526.28-.01.516.206.526.485.013.28-.205.515-.483.528-.28.01-.515-.206-.53-.486zm1.22-7.676l.14-2.68c.016-.264.193-.465.402-.455l1.616.087c.206.01.362.23.348.492l-.14 2.668-2.365-.112zm.263 3.438l.024-.676 1.437.053-.023.676-1.437-.052zm.332 4.27c-.012-.278.205-.514.483-.526.28-.01.516.205.526.485.01.278-.206.516-.485.528-.277.012-.514-.206-.526-.485zm2.127-22.315c-.574-.03-1.577-.134-1.577-.134s-.358.028-.345-.598c.016-.628.1-2.098.1-2.098s.02-.494.597-.462c.572.028 1.668.116 1.668.116s.333.09.32.333l-.142 2.38s-.046.49-.62.462zm1.645.466l-.468-.02.232-3.142s-.04-.332.654-.294c.694.038 2.31.173 2.31.173l-.207 2.992-.226.01.01.306.114.196-.224 2.3L104 99.04l.19-2.474zm1.577 13.97l.063-1.252c.006-.12.106-.21.225-.202l.915.048c.118.01.21.108.202.224l-.064 1.25c-.006.117-.107.21-.223.202l-.918-.048c-.12-.01-.21-.106-.2-.223zm2-14.785c.053-.628.204-2.14.204-2.14s.028-.304.656-.265c.628.04 1.708.076 1.708.076s.536.087.444.41l-.226 2.314s.018.412-.557.396c-.574-.018-1.882-.123-1.882-.123s-.402-.036-.35-.666zm2.774 14.922l.066-1.25c.006-.117.106-.21.225-.202l.915.05c.118.01.21.104.204.223l-.067 1.25c-.006.116-.105.206-.222.2l-.92-.048c-.117 0-.207-.107-.2-.223zm1.055 7.922c-.012-.278.204-.515.484-.526.28-.013.512.207.526.487.01.277-.206.512-.486.525-.278.01-.513-.206-.525-.486zm1.653.04c-.01-.28.206-.517.486-.528.278-.01.513.21.525.487.01.276-.206.513-.486.525-.28.01-.515-.207-.527-.484zm-.2-22.048c-.44-.034-1.577-.105-1.577-.105s-.308-.037-.265-.62c.045-.586.182-2.055.182-2.055s.053-.39.655-.346c.6.038 1.438.046 1.438.046s.342.03.298.412l-.273 2.397s-.015.306-.457.27zm.93-6.287l-.144-.01.062-1.03c.044.005.09.006.135.01l-.055 1.03zm.252 5.864c.056-.6.215-2.232.215-2.232s.04-.295.64-.28c.6.016 2.59.092 2.59.092s.613-.007.444.436l-.89 2.34s-.157.42-1.063.406c-.905-.017-1.576-.138-1.576-.138s-.415-.02-.36-.624zm2.77 3.244l.316-.41.248-.726 1.063.014-.948.578c-.016.01-.026.024-.026.043l-.016.382-.115.097-.52.02zm.855 5.543l.034-.698.434.068.048.656-.516-.025zm1.033.065l.006-.25.8.024-.04.575-.126.01.01-.302-.652-.054zm.622.87l.014-.406h.124l-.03.41h-.11zm.365 5.146l.064-1.25c.007-.118.107-.207.225-.2l.915.045c.12.01.208.107.202.224l-.063 1.25c-.01.117-.11.21-.225.202l-.92-.048c-.115-.01-.207-.106-.2-.223zm1.392-5.043l.006-.556.367-.145-.02.71-.353-.01zm3.512-.048l.016-.73.667-.257v.636c-.116-.042-.257-.01-.334.306 0 0-.2-.12-.35.043zm.788-.29v-.737l.407-.153.02.49s-.255-.058-.342.477c0 0-.034-.04-.086-.078zm.82 6.87l.01-.273.72-.028c-.005.082-.01.166-.013.245l-.717.055zm1.293.027s-.004-.183-.02-.41l.696-.17c0 .01-.003.02-.005.033-.016.24-.004.496.13.22l.168.06.076.045.028.405-.082.11-.305-.135-.063.043-.14-.14-.482-.06zm1.08-.678l-.236.122s-.02-.028-.046-.056l.28-.07zm.122-1.17l-.114 1.055-1.118.276c-.035-.36-.104-.773-.248-.752-.194.028-.253.436-.28.835l-.72.028.107-2.77 1.94.786.018.453.415.09zm-2.714-6.156l-.11-.03-.064.144c-.007 0-.013-.01-.02-.01l-.408-.027-.002-.89.67-.277-.067 1.09zm-1.335-1.204l1.222.07-1.233.51.012-.58zm-.103-.114h-.075l.13-2.59-.055 2.595zm.133-6.283l-.314 6.273h-.064l.45-9.643-.072 3.373zm.185-3.684l.082-3.867.59-12.627c0-.014-.006-.027-.016-.037l.178-.166-.835 16.695zm.49-16.614l-.12.108-.084.016c-.027.005-.045.027-.045.052v.05l-.15.137-3.067-.382 3.464.018zm-2.644-.595l-.232-.02.148-.244-.318.012-.05-.47.344-.198.108.92zm-.022-1.092l-.102-.882 1.48.083-1.378.798zm2.066-2.28l.042 1.035-.25.002-.13-1.568c.037.002.066.002.086.002.002 0 .006-.003.01-.003l.242.53zm-.284-2.22c-.07-.02-.132-.034-.18-.044l-.672-5.053.176-.577.676 5.676zm-.68-7.49l-.135-.255-.685-5.753c.532-.138.604-.656.616-.92.012-.255-.28-.792-.82-.794l-.026-.22 2.878.32c-.002.018 0 .034.014.047.004.002.006.006.012.007l-1.852 7.567zm1.617-7.852c-.607-.085-1.793-.223-2.695-.325l-.088-.737 1.13-.175 1.652 1.238zm-1.572-1.54c-.178.002-.5-.028-.356-.285.08-.146.293-.086.42-.07.192.03.33.005.516.07.16.058-.21.262-.25.268-.102.016-.225.016-.33.018zm-6.26-2.82l1.028.115-.033.87-.693-.09.03-.584-.287-.136-.044-.173zm-.636-.07l-.044.126s-.53.117-.255.28l-.016.393-1.073-.14.032-.81 1.357.15zm-1.658.03l.01.004-.005.688-.28.394.02-.62.254-.466zm-.627 1.37l-.022.324c-.024-.01-.048-.017-.07-.023-.05-.013-.1-.024-.113-.05-.01-.02-.002-.054.006-.08.02-.065.125-.147.198-.17zm.284 1.673l.013-.43.318-.272v.314l-.33.387zm.54-.463l.004-.09 1.057.14-.004.067-1.056-.117zm-7.41 15.865l3.375-5.876-3.39 6.03.015-.154zm-.13.224l-.012.157-3.185 5.665.027-.297 3.17-5.524zm-3.298 5.746l-.025.303-6.49 11.55-.28-.005 6.795-11.848zm-6.98 11.95l-.657 1.145-2.816-.06.048-1.158 3.425.07zm-4.79-.1c-.016.04-.027.084-.038.127-.013.027-.015.054-.015.073v.006c-.017.026-.028.056-.03.09 0 .05.013.1.04.14.026.076.084.097.122.1.004.002.01.003.017.002.015.102-.005.187-.087.252-.027.023-.05.035-.068.046-.024.014-.046.027-.064.048l.02-.89.102.002zm-.208.1l-.027 1.088-.122.197-.017-.992.166-.294zm-.94 1.658l.67-1.182.016.977-.135.223-.55-.018zm-.178.1l-.122.215-1.22-.26 1.342.045zm-1.692-.01l1.516.322-.398.702-1.164.048.046-1.072zm-.082 1.885l.03-.658.787.21-.818.448zm2.167 5.095l-.577.006-.366-1.287.334-.588.17.18.44 1.688zm.493-.005l-.302.002-.363-1.352-.124-.407.213-.29.13.276.447 1.77zm-.036-7.043l.017-.03.002.03h-.02zm-.064.104l.086.002.006.408h-.022l-.488.264.417-.675zm-1.297 1.09l.13-.004-.183.1.053-.095zm-.312.24l-.72-.196.906-.036-.104.184-.082.047zm.94-1.352l.546.018-.482.784-.37.2c-.006-.002-.014-.008-.024-.005l-.237.008.567-1.004zm.945.437h-.077l-.014-.717.11-.18-.02.898zm.675-2.29l.846.016-.048 1.157-1.307-.03c-.002-.04.006-.082.02-.13.024-.063.036-.07.072-.09.02-.012.05-.028.085-.055.14-.115.144-.266.113-.395.01-.006.013-.01.02-.017.068-.063.08-.152.074-.23.033-.033.06-.074.078-.128.023-.024.037-.062.047-.1zm-.274.31v-.005h.004l-.002.006zm-.295 1.984l.024-.967c.005.006.016.006.025.006.01 0 .02-.002.027-.007.025-.016.033-.048.016-.075l1.27.028-.043 1.05-1.32-.034zm3.748.098l.603-1.048.298.007-.59 1.05-.31-.007zm.43.012l.59-1.05 1.65.036-.055 1.072-2.184-.057zm3.577-.937l-.223 1.025-1.06-.028.052-1.07 1.23.073zm3.544 1.27l-.576-.05.093-1.037c.196.013.392.023.59.035l-.005.12h-.006l-.095.932zm.39-.9l-.183-.02.007-.125c.024 0 .045.002.07.005.035.05.07.1.108.14zm.178.02l-.017-.002c-.015-.013-.027-.024-.04-.04l.013-.006c.006-.007.01-.01.012-.015.014.02.022.04.032.06zm1.537 1l.025-.272c.007.006.02.012.03.012.007 0 .014-.002.022-.004.02-.01.04-.022.056-.038h.006c.072-.022.097-.067.105-.1.01-.034.002-.07-.01-.103.025-.08.03-.16-.01-.22-.015-.023-.036-.04-.057-.05.015-.1.006-.21-.002-.257-.002-.002-.005-.005-.006-.01l2.6.16-.055 1.067-2.705-.184zm2.81.192l.055-1.07c.073.006.142.01.212.014l-.016 1.073-.25-.018zm.535.035l-.178-.01.016-1.074c.2.012.4.025.598.04l-.435 1.046zm.786.02l-.464.02.45-1.067c.15.007.304.018.456.028l-.44 1.02zm3.353-.84l-.06 1.027-2.96-.186.438-1c.897.056 1.767.108 2.583.16zm.01-.105l-2.548-.158.453-1.042 2.156.146-.062 1.054zm.24.014l-.136-.007.062-1.054.127.012-.054 1.05zm1.61.103l.01-.314.287-.01-.018.342-.28-.018zm1.636.21l.212.015-.168.683-.088.062.043-.76zm-.052.896l.057-.04-.05.208h-.016l.01-.167zm.116.173l.075-.307.338-.24v.572l-.414-.026zm.522.033v-.657l.528-.37h.035l-.036.97-.094.082-.434-.026zm.144 6.363l.692-2.04 1.762-1.112-.23 3.274-2.224-.12zm.783 1.24l-1.2-.018.38-1.117 1.71.09-.03.52-.86.525zm.2 0l.226-.137-.005.142h-.223zm-.193.118l-.004.012-.046.79h-.436l-.006-.506.492-.3zm-1.06.892l.013-.252.45-.275.004.443-.346.01c-.005-.02-.02-.034-.042-.034-.033 0-.054.023-.054.052l-.002.043-.02.016zm-.006.15l.024-.024-.01.35-.027-.06.014-.267zm.577 4.87l-.42-.064.028-.56s.358-.17.03-.355l.002-.168.274-.01.086 1.157zm-.096-4.36c-.13 0-.235-.01-.305-.01l.302-.176.002.184zm.106 0l-.002-.246.417-.24-.03.492c-.138 0-.268 0-.385-.01zm1.38 4.83l-.805-.026.014-.444.817.07-.028.4zm.105 0l.027-.393.38.03-.023.38-.385-.017zm-.046.68l.037-.572.387.013-.035.54-.39.02zm-.04.523l.03-.42.393-.015-.026.434h-.396zm.503 0l.027-.44.28-.01-.023.45h-.284zm.588 0h-.04l.016-.328.024.328zm.46-.572l.008-.872.703.047-.018.553-.692.273zm.663.69h-.212l.023-.758.216-.085-.027.847zm.11 0l.025-.893.207-.082-.015.98-.218-.01zm.727.02h-.114l.114-.045v.05zm.676.015l-.45-.01.003-.14.433-.166.01.316zm.36.01l-.252-.01-.017-.36.283-.108-.015.476zm.54.012l.034-.7.058-.022-.036.723h-.055zm.468-2.024l.64-.268.002.842-.654-.043.01-.53zm-.168-.713h.076l-.012.635-.1.04.037-.68zm-.172-.01h.064l-.036.732-.062.025.034-.762zm-.106-.01l-.038.814-.04.018.004-.29.018-.544h.056zm-.997-26.085l1.518-.063-.15.22h-.01v-.005c.003-.026-.016-.05-.042-.054-.026-.004-.053.01-.06.036l-.004.01-1.25-.144zm1.198.304l-.11.33v.016l-.09 8.462-.48 16.84-1.056-.063-.38-23.754.162-.158-.03-.093-.262-.017v-.004c0-.027-.02-.048-.047-.052-.027-.002-.052.01-.06.038l-.002.01-1.806-.13.06-1.2.047-.186 4.054-.038zm-2.232-2.142l.046.414-.82.034.774-.448zm-.012-.116l-.952.552-.336-.033.016-.428.213-.867c.106-.06.198-.147.278-.223l.015-.015c.027-.027.06-.05.092-.074.06-.043.125-.093.166-.163l.374.022.133 1.23zm.334-1.204l.11.947-.344.198-.128-1.165.362.02zm-.014-.107l-.36-.02-.01-.083.357-.006.014.11zm.4-16.98l.654 5.482-.334-.61-.532-4.863c.076.002.15 0 .212-.01zm-.344-2.912l.083.71c-.162-.02-.314-.034-.447-.05l.03-.607.334-.052zm.666-.37c-.114.11-.41.05-.544.015-.224-.064-.244-.196-.05-.334-.01.01.568.28.594.32zm-4.456-1.935l.03-.874 2.926.327c.015.05.036.11.044.172 0 0-.59.263-.507.646 0 0-.058.005-.12.038l-2.373-.31zm-.006.16l2.252.296c-.01.025-.018.055-.025.087l-2.23-.28.004-.103zm-.856-.112l.698.09-.002.103-.698-.088.002-.105zm-2.322-.307l1.07.142-.004.113-1.07-.134.004-.12zm-.548.587l.287-.405v.023l-.29.385.003-.002zm-.024.688l.013-.405.295-.394-.004.588-.304.213zm1.574.41l-1.06-.14.007-.157 1.058.135-.006.16zm1.246.163l.007-.163.715.092-.002.166-.72-.095zm-.007.16l.72.095-.002.056-.722-.087.004-.064zm-.556 14.515l.16-4.204.297.043-.174 4.148-.282.013zm-9.197 1.55l8.202-14.598.033.004.276.23-.736 15.124-2.44-.687s-.598 0-.213.317l2.108.714s-.767.178-.107.965c0 0-.122.043-.192.13-.464-.02-1.226-.017-1.482.167-.004.004-.006.004-.01.006-.002.002 0 .005-.002.007-.038.03-.067.068-.072.11-.042.27.69.51 1.25.655l-.134 1.277-.555.636-.203-.07-.012-.583s-.09-.304-.373-.052c-.283.25-.33.106-.056.268l.015.332s-.404.23-.042.323l.002.347s-.31.14-.082.297l-.976 1.122c-.01.01-.016.023-.016.035l.013 2.136-.017.016c-.018.022-.015.054.006.074 0 .002.005.002.01.004v.34l-.09.103.04.956.146.005.048-.16 1.178.123-3.128 7.522-1.1-.077.045-2.98c0-.03-.022-.054-.053-.054-.03-.003-.055.024-.055.052l-.043 2.976-.218-.015-2.662-.18 1.693-17.917zm-3.31 5.89l3.18-5.663-1.67 17.68-1.992-.135-.586-.04 1.068-11.842zm-6.476 11.52l6.346-11.293-1.046 11.608-1.75-.12.043-.75.12-.07s.683-.202.64-.907l-.985-.678s-.74-.156-.743.776l.375.33s-.25.473.16.714l-.06.554-2.09-.14h-.003l-1.006-.023zm5.19 1.542l-1.357-.08c-.064-.177-.166-.33-.332-.412l.045-.747 1.744.12-.1 1.12zm.69.04c-.196-.01-.39-.023-.584-.033l.1-1.122.54.038-.042.82v-.002c-.024-.006-.05.002-.062.025-.014.02-.01.048.007.066l.048.047-.006.164zm1.993.122l-1.566-.096c-.087-.113-.194-.213-.31-.278l.045-.86 1.933.134-.103 1.1zm3.08.185c-.07-.004-.138-.01-.207-.01l.056-1.083.167.012-.016 1.082zm.745.047l-.638-.04.016-1.08 1.058.07-.435 1.05zm1.243-.995l-.45 1.042c-.154-.007-.305-.02-.46-.027l.44-1.048.47.032zm.045-.106l-.472-.03 3.152-7.52.18.048.018.482c-.154.045-.358.21-.344.77 0 0-.14.19.013.345l-2.547 5.904zm4.267.293l.01-.332c.123-.01.234-.02.32-.023l-.023.376-.307-.02zm-.002.106l.303.02-.02.38-.294.013.01-.413zm.27.613l-.29.01.003-.106.296-.01-.01.105zm1.57.555l-.232-.014.06-1.04.422.03-.25 1.025zm1.02.07v-.006l.6-.42-.018.47c-.166-.014-.36-.027-.582-.043zm-.032.976l.03-.874c.223.016.416.03.58.04l-.01.333-.6.5zm.678.225l.026-.674.41-.342.078.007-.02 1.04-.494-.03zm1.467.48l-.68-.433-.17-.01c.087-1.65.292-5.64.538-10.345l1.07-.02-.757 10.807zm.103.064l.762-10.87c.002-.015-.004-.027-.016-.04l.185-.18-.682 11.25-.25-.16zm-.412 5.867l.236-3.348.293-.186-.217 3.57c-.01-.01-.022-.018-.038-.02l-.274-.015zm-.006.108l.106.006-.11.065.004-.072zm-.572.543l.242-.147-.043.627h-.225l.027-.475zm-.44.58h.3l-.025.443-.294.17.02-.618zm-.463.802l.045-.78c0-.012-.004-.022-.01-.03h.32l-.02.685-.1.057c-.01 0-.016.01-.025.014l-.085.05h-.126zm-.045.763l.032-.56.168-.097h.006c-.005.024-.01.05-.01.08-.022.037-.033.09-.03.143-.02.085-.014.21.034.25.002 0 .002 0 .002.01.01.027.036.04.063.033.013 0 .026-.01.032-.024h.028c0 .02.016.034.036.04l-.006.13c-.118 0-.24 0-.355-.01zm.335 1.838s.315-.077.45-.303c0 0 .147-.138.345-.195l-.047.676-1.238.012s-.037-.237.49-.19zm-.22 1.793l.015-.47.87.026-.032.467-.852-.024zm.807.68l-.824-.065.016-.507.846.02-.04.554zm.485.043l-.38-.033.042-.563.37.01-.032.585zm.106.01l.036-.59h.266l-.033.606-.27-.023zm-.03.476l.02-.37.274.02-.02.36-.275-.01zm.242.626l-.28.013.03-.532.278.01-.028.512zm.105 0l.03-.505h.047l-.026.503h-.05zm1.43-.328l.012-.502.26.018v.375l-.273.11zm.696.868l-.31.117-.005-1.02.3-.12.017 1.022zm.128-.048l-.022.01-.015-1.022.068-.03-.03 1.043zm.532-.205l-.424.16.032-1.078c0-.017-.01-.034-.023-.044-.015-.01-.033-.013-.05-.01l-.106.042-.003-.14.532.036.04 1.03zm.397-.15l-.29.11-.04-.985.353.024-.023.848zm.142-.056l-.036.014.023-.8h.036l-.024.782zm.167-.063l-.016.01.015-.717h.025l-.023.71zm.31-.118l-.06.024.028-.598h.06l-.028.57zm.108-.04l.026-.522h.034l.004.494-.063.026zm.05-1.06h.007v.435h-.026l.02-.43zm-.168.072l.06-.026-.016.376h-.06l.018-.347zm-.148.446h.02l-.03.576.008-.578zm0-.386l.037-.015-.015.294h-.024l.002-.28zm-.12.05l-.006.222h-.027l.004-.206.032-.014zm.052-3.526l-.026 2.412h-.05l.076-2.41zm-.23 2.508h.042l-.033.97-.034.015.027-.986zm-.14 1.217l-.14-.01.144-.06-.004.07zm.14.01h-.034l.004-.12.038-.016-.006.14zm-1.158-1.296l1.053.064-.03 1.038-.385.16-.618-.04-.02-1.22zm-.085 1.32v.19l-.298.12-.002-.328.298.018zm-.023-1.326l.02 1.22-.296-.018-.005-1.217.282.016zm-.172-10.746l.17 10.642-.282-.018-.052-10.518.165-.107zm-.23-12.98l.027-.025.203 12.882-.166-.104-.065-12.754zm-.106.103l.062 12.584-.77-.487.626-11.964.023-.078.06-.055zm-.225.273c0-.016-.01-.027-.02-.037l.056-.052-.62 11.846-.037-.023.622-11.733zm-.89 11.56l.688-11.344.088-.085-.61 11.537-.165-.106zm-.125 2.04l.193-.12-.295 5.554c-.05-.02-.11-.03-.17-.034 0-.01.003-.013.003-.017.003-.013 0-.024-.004-.035l.007-.025c0-.025-.017-.048-.042-.055h-.012l.32-5.265zm-.493 3.827c0-.006-.005-.006-.005-.012l.158-.096c.004-.005.004-.008.008-.012l-.083 1.37h-.022c-.035-.016-.073-.026-.108-.035h-.002l.055-1.217zm-.17.088l.06-.035-.04.868c-.008 0-.012-.01-.022-.01h-.052l.055-.823zm-.26.927h.09v.048c-.012 0-.022 0-.033.01-.01.01-.014.026-.014.042 0 .014.002.03.006.044l-.058.033.01-.18zm-.35.375l.02-.38h.225l-.016.246-.23.132zm-.006.128l.227-.132-.03.412h-.21l.014-.282zm-.402.23l.292-.166-.012.218h-.282v-.056zm-.022.83l.004-.177c.027.01.054 0 .064-.03.025-.063.022-.13.022-.194 0-.06 0-.112.015-.156.007-.02.003-.045-.015-.06-.02-.015-.044-.016-.063 0h-.006s-.002 0-.002-.01v-.042h.28l-.038.68c-.085 0-.17 0-.26-.01zm.366.01l.036-.682h.212l-.048.687h-.2zm.394 0h-.088l.048-.687h.09l-.05.692zm.106 0l.05-.692h.028c-.002 0-.005.01-.006.015-.004.03 0 .066.016.097-.028.06-.012.134.024.18.01.01.02.016.025.023l-.003.07h-.002c-.006.017-.004.032.002.046l-.012.26h-.122zm-.14 1.996l.05-.695c.11-.01.233.014.346.102l-.03.478c-.09-.02-.25-.032-.352.116h-.014zm.26 1.65l-.374-.01.032-.47.37.012-.027.465zm.37.01l-.264-.01.028-.466.21.01.03.402-.004.064zm.094 1.17v.01h-.048l.018-.354h.004l.026.343zm.558-11.435l.043-.027-.374 7.097-.034-.186.364-6.885zm-.61 5.864c.026-.042.03-.08.026-.108.057.01.117.014.173-.016l-.037.704-.072-.372-.157.278.025-.447c.016-.014.033-.024.042-.04zm-.164.308c0-.022 0-.042-.002-.06v-.02c.002 0 .004-.01.006-.01l-.005.087zm-.044.285c.013 0 .023-.015.03-.025l-.013.16-.002.013h-.11l.01-.186c.012.01.026.016.04.024.01.01.02.01.034.01h.01zm-.212-1.422h.063c.005 0 .012 0 .017-.01l-.007.167c-.005 0-.01 0-.01-.01-.01-.014-.01-.035 0-.068.005-.028-.01-.055-.03-.064h-.035l.002-.02zm-.16.777h-.09l.032-.473.077-.043h.005c-.01.077-.01.16-.006.233l-.004.06c-.018.01-.032.02-.037.04-.004.025.007.05.03.06l-.006.12zm.14 0h-.034l.006-.096h.05c-.003.012-.005.022-.003.032-.005 0-.01.01-.015.018-.006.01-.006.024-.003.04zm.805 1.696l.397-7.604.848-.538.054 10.448-1.044-.062.01-.89-.2.01-.052-1.275-.015-.087zm-.83-3.335l-.055.754h-.09l.048-.697.096-.057zm.17-17.977l1.737-.07-.24.316-1.502-.122c.004-.04.005-.082.005-.123zm-.104.005c-.002.037-.006.074-.007.112l-.24-.02.02-.082.227-.01zm.058-1.165c-.01.216-.02.43-.032.64l-.122-.006.154-.633zm.03-.57l-.292 1.194-.802-.057.837-.766.03-.534.236-.002c-.002.056-.007.113-.01.167zm.777-3.173l-.064.255.013-.23.02-.02h.015c.004 0 .01-.003.016-.005zm1.02-.81l-.306.004v.003c-.013 0-.025.004-.034.012l-.086.08c-.083-.045-.185-.07-.29-.08l.495-2.028.22 2.01zm.08-3.243l.38 3.236-.356.006-.25-2.31.226-.932zm-.038-.302l-.223.922-.354-3.215.097-1.798.48 4.09zm.017-15.262l-.015.23c-.166-.08-.382-.136-.58-.035l-.156.073-.046-.11s.162-.268.43-.198l.365.04zm.04-.81l-.03.58-.517-.058.034-.136.315-.092.033-.174-.004-.093.17-.027zm-.19-1.287l.42.296-.437.06.018-.357zm-.037.79c0 .002.125.11.076.102-.266-.043-.522.14-.728-.158.11-.132.526-.03.65.056zm-.388-.78c.288-.234.216.218.19.38-.032.11-.232-.03-.327-.024-.056-.133.035-.275.137-.356zm-.046-.356c.016.08-.055.266-.15.23-.104-.045-.065-.246 0-.3.095-.073.13-.02.15.07zm-2.702-.32l2.23.28-.012.62-2.244-.22.025-.68zm-.86-.107l.7.087-.025.684-.71-.07.034-.7zm-2.32-.293l1.067.135-.032.737-1.06-.103v-.03l.024-.74zm1.025 1.083l-1.06-.137v-.017l1.062.105-.002.05zm1.96.252L118 53.02l.006-.09.712.07-.005.112zm.16.022l.004-.117 2.248.22-.002.107-.21.05-2.04-.26zm-.01.325l.005-.167 1.608.206-.463.11-1.15-.15zm-.008.213l.002-.053.722.094-.132.032-.593-.073zm.147 1.628l-.028.798c-.28-.014-.45.038-.56.102l.04-.916.548.017zm-1.246 3.957l.147-3.89.33-.09h.006l-.172 4.062-.313-.083zm.133 4.388l-.3-.045.157-4.125.286.076c.01.003.018.003.027.003l-.17 4.09zm.068 3.372l.075-1.79c.172.06.37.096.57.112l-.06 1.562c-.303-.016-.48.046-.585.115zm-.543 1.215l.28-.012-.11 2.612-.267-.014.097-2.586zm1.8 7.442l.106-.1.217.01v.123l-.32-.033zm.428.043l.002-.13.11.007-.005.134-.107-.01zm.214.023l.004-.142.105.005-.007.148-.1-.01zm.288.03l-.005-.158.064.002v.16l-.06-.006zm.33.032l-.165-.016-.005-1.172.014-.014c.013-.012.02-.03.013-.048 0-.017-.014-.03-.03-.038v-.326l.254.044c-.028.525-.053 1.05-.08 1.57zm.245-.944c.01.01.022.016.036.017l-.067.95-.11-.012.084-1.56.132.024-.032.468-.04.038c-.023.018-.025.054-.003.075zm.71-.99c.047.005.096.013.142.026l-.146-.01.004-.017zm-.11-.012v.022l-.19-.01.002-.018c.057 0 .122.002.19.006zm.284-5.293l.313 2.862-.57 2.327c-.073-.005-.145-.006-.21-.006l.027-.645.2-.006.006-.345c.002-.008.007-.014.007-.02l.225-4.165zm-.07-.652l-.254 4.71c-.102-.04-.26-.07-.374.064l-.005.088-.16-.022c.15-2.873.296-5.705.426-8.18l.366 3.34zm.128-2.424l-.096 1.768-.366-3.35c.03-.562.057-1.106.086-1.625l.376 3.206zm.474-8.834l-.44 8.21-.378-3.213c.134-2.57.232-4.43.265-5.038l.514-.022c.012.022.027.042.04.062zm-.155-.6c0 .097.007.237.052.38l-.44.018.004-.054-.055-.005v-.052c-.03 0-.042 0-.053.118h-.02l-.393-.287.907-.12zm-.317-.292c0-.032.197.082.282.134l-1.06.14-.25-.186.64-.027c.04 0 .07-.03.075-.07.142.018.313.034.313.01zm-1.15-2.006c.1-.047.245-.04.34-.026.155.024.3 0 .437.08-.108.096-.284.13-.425.133-.07.003-.158 0-.223-.036-.014-.007-.17-.133-.13-.15zm.443 1.648l.174.265-.704.03-.286-.21.816-.085zm-1.877.705l.032-.803h.013l.168.054-.03.774-.01-.002c-.062-.01-.12-.018-.174-.023zm-.005.106l.157.02c.01.003.014.005.025.007l-.017.417c-.06 0-.122-.002-.183-.006l.018-.436zm-.664.122c.073-.065.23-.147.56-.13l-.02.437c-.193-.018-.385-.055-.55-.12l.01-.187zm-.087 2.03l.074-1.73c.164.06.356.096.55.113l-.062 1.51c-.285-.014-.456.042-.562.108zm-.09 2.153l.074-1.727c.163.063.356.1.554.118l-.06 1.46c-.308-.005-.477.073-.567.15zm-.095 2.223l.08-1.86c.162.07.357.113.56.136l-.066 1.578c-.31-.006-.48.072-.574.147zm-.086 2.032l.07-1.664c.166.068.363.112.564.134l-.06 1.445c-.28-.02-.46.025-.574.085zm.555.46c-.2-.016-.4-.05-.57-.116l.008-.213c.087-.065.255-.134.58-.11l-.02.44zm.105.006l.02-.435.117.016c.015 0 .033.005.05.01l-.017.412c-.057 0-.112-.002-.17-.004zm-.065 1.67l.062-1.563c.055.002.113.005.167.005l-.064 1.583c-.06-.01-.114-.02-.166-.024zm-.004.107l.154.022c.002.002.006.002.01.002l-.016.42c-.056-.003-.11-.003-.168-.007l.02-.438zm-.69.145c.06-.067.213-.173.582-.153l-.016.438c-.205-.02-.408-.06-.574-.13l.007-.155zm-.644 3.87l.265.013-.037.818-.262.027.033-.858zm.003 1.488l.293.023-.067.314-.25-.038.023-.298zm-.49.692s-.12-.192-.146-.38l.5.076-.02.254-.333.05zm.306.328v.023c-.064.007-.04-.005 0-.022zm.107 0l.01-.187.04-.212-.023.004.018-.22.23.036-.12.566c-.052 0-.104.005-.156.014zm.263-.013l.12-.55.28.04c.003.002.006 0 .013 0l-.31.524c-.03-.007-.064-.01-.103-.014zm1.78 1.938l-.722-.036.032-.525.958.084-.002.217-.267.26zm.26.01l-.115-.004.117-.116-.002.12zm.22.01h-.112l.002-.233.12-.118-.012.353zm.21.012l-.103-.006.01-.368c0-.027-.018-.047-.045-.05l.057-.056.105.01-.024.47zm.226-1.438l-.045-.006.01-.13h.036v.138zm.366.066l-.26-.047v-.15l.27.016c-.005.06-.007.122-.01.18zm.263-.274l-.14-.008c.008-.164.014-.33.024-.49l.162-.152-.047.65zm-.09-.995l.154.023h.004l-.013.165-.163.154.018-.342zm-.106-.013c-.01.154-.016.305-.024.46l-.434.408.048-.925.41.057zm.463-8.935c-.134 2.624-.296 5.7-.458 8.827l-.41-.057.593-11.29.275 2.52zm.116-2.257l-.01.22c-.024.438-.047.898-.072 1.375l-.276-2.52.078-1.47.28 2.395zm.184-4.9l-.006-.154.006.004c.016.01.032.017.05.015h.03c0 .047-.004.1-.01.166l-.057 1.114c-.04.788-.098 1.857-.164 3.124l-.28-2.393.092-1.78.263-.012c.044-.002.078-.04.076-.083zm-.172-.14c-.004-.036-.03-.065-.065-.07l.07-.01.004.148h-.035c.02-.016.032-.04.027-.067zm-.118-.222h-.007v-.005l.007.006zm-1.76.267l.02-.397c.425.09.56.208.603.277l-.002.045c-.087.032-.33.068-.62.075zm-.003.108c.036 0 .07 0 .103-.002.22-.01.404-.034.518-.067l-.073 1.848c-.1-.078-.284-.165-.61-.23l.064-1.547zm-.35 1.5l.062-1.506c.06.004.12.005.183.006l-.065 1.526s0-.002-.002-.002c-.063-.01-.12-.018-.177-.024zm-.083 2.11l.058-1.457c.06.002.12.007.18.007l-.062 1.47c-.062-.01-.12-.015-.176-.02zm-.087 2.226l.063-1.574.174.01-.066 1.585c-.06-.01-.116-.017-.17-.02zm.082 2.12c-.01 0-.023-.004-.035-.006l-.133-.018.06-1.445c.057.006.113.008.17.01l-.062 1.462zm.107.022l.06-1.48c.055 0 .11-.002.16-.004.19-.007.355-.028.47-.055l-.07 1.804c-.087-.086-.26-.19-.62-.265zm-.02.497l.012-.39c.508.11.587.263.6.308-.067.032-.315.073-.613.08zm-.073 1.712l.07-1.604c.022 0 .05 0 .07-.002.25-.01.458-.042.562-.08l-.078 1.926c-.1-.082-.285-.173-.625-.24zm-.022.506l.018-.4c.452.092.585.22.624.286l-.002.04c-.087.03-.34.07-.64.074zm-.005.11l.12-.004c.217-.007.408-.037.52-.068l-.073 1.798c-.1-.083-.287-.174-.626-.24l.06-1.486zm-.327 1.443l.056-1.45c.055.002.11.006.165.006l-.06 1.47c-.058-.014-.113-.02-.162-.025zm-.06 1.492l.032-.84c.056.002.11.006.162.006l-.03.765c-.06-.01-.12.004-.164.07zm-.728.86l.553.018-.026.184s-.215-.025-.285.137l-.254-.053.012-.285zm-.02.48l.003-.087.236.05v.01l-.24.026zm.16 1.067l-.273-.042.072-.32.147.01.083.37c-.01-.008-.017-.017-.028-.02zm-.2.65l.336-.574c.007-.01.01-.026.007-.038l-.088-.398.105-.067.334.048-.073 1.177-.493-.026-.017-.084s-.045-.02-.113-.036zm.55 1.312v.024l-.03.14c-.006-.005-.01-.007-.017-.01-.03-.022-.06-.05-.106-.06-.055-.015-.105-.005-.15.004-.004 0-.006 0-.01.002l.01-.127.304.027zm.01-.106l-.302-.025.018-.194c.003-.002.01-.002.017-.005.095-.024.217-.057.29-.142l-.022.368zm-.406-.977l.46.025-.017.286c-.062-.07-.18-.077-.278-.08l.006-.06-.148-.06-.023-.11zm.157.338c.077.002.172.002.206.044.016.018.02.048.01.088-.015.1-.11.136-.245.17l.028-.302zm1.523.75l-.957-.083.056-.962 1.31.075-.384.357c0 .002 0 .006-.002.01-.002.005-.006.005-.01.01v.016l-.012.578zm.444-.857l.058-.052-.005.062-.053-.01zm.048.117l-.015.27-.315-.123.186-.173.144.027zm.07-1.368l-.053 1.035-1.406-.078.065-1.154 1.393.196zm-1.303-3.21l.014-.4c.45.09.586.213.626.283v.043c-.087.032-.34.07-.64.074zm.035.97s-.03-.03-.074-.056l.035-.806h.122c.216-.008.405-.036.518-.068l-.072 1.818c-.076-.038-.178-.076-.308-.11l-.058-.438s.334-.294-.162-.34zm-.42 1.735l-.01.158-.2-.027.21-.13zm.83-13.45l.018-.4c.418.088.56.202.608.272v.057c-.094.03-.337.065-.625.07zm-.066 1.597l.062-1.49h.11c.213-.01.4-.036.514-.067l-.073 1.766c-.114-.073-.303-.15-.614-.208zm-.024.516l.02-.408c.362.07.534.157.613.23l-.005.118c-.124.03-.358.058-.63.06zm-.07 1.71l.068-1.602c.055 0 .11 0 .16-.002.186-.007.35-.03.465-.055l-.075 1.87c-.114-.076-.303-.154-.618-.212zm.61.454c-.12.03-.36.06-.63.06l.015-.41c.373.074.543.167.622.238l-.007.112zm1.04-2.365l-.626 11.936-1.396-.197.01-.147.332-.015.034-.148s.983-.04.49-.393c0 0 .086-.138-.113-.283l.078-1.935c.014-.02.02-.034.02-.05 0-.005.006-.036-.015-.08l.08-1.976c.013-.016.02-.033.02-.046 0-.006.002-.036-.017-.08l.166-4.144c.01-.002.02-.01.032-.015.034-.02.04-.05.04-.067 0-.01.005-.07-.063-.15l.078-1.99c.016-.007.03-.012.037-.018.036-.022.043-.048.04-.066.005-.01.007-.077-.068-.158l.076-1.898c.023-.02.03-.04.03-.057 0-.005.005-.044-.024-.094l.08-2.016c.017-.017.026-.035.024-.05.002-.006.002-.038-.02-.086l.028-.672.4.28-.21.656c-.006.025-.003.053.01.074.005.005.013.01.02.012l.424 3.873zm.11-2.1l-.076 1.44-.35-3.197.217-.01.21 1.767zm.094-1.78l-.06 1.15-.134-1.14.194-.008zm-.313-.64l.3.21-.387.07.087-.28zM120.3 73.82v-.087l.298-.277c-.006.126-.015.25-.02.378l-.277-.014zm-.176.737l.06.023-.062.062.002-.085zm-.123.362l-.008-.002.01-.01v.01zm-.25.084l-.097.094.002-.102.095.007zm-.093-.115l.01-.51.355.138-.013.234-.158.155-.195-.018zm-1.742.504l.028-.312.04-.007c.038-.006.07-.015.102-.005.024.006.046.02.07.04.016.01.033.027.056.038l-.056.258-.24-.013zm.64-6.277c.052.005.104.01.16.022h.006l-.017.42c-.054-.002-.108-.002-.16-.006l.014-.437zm-.104-.01l-.018.44c-.204-.02-.408-.06-.576-.133l.006-.144c.056-.068.206-.182.588-.162zm.363-6.4c.054.003.112.01.174.02l-.018.425c-.06-.002-.115-.004-.173-.01l.016-.436zm-.675.203c.002-.006.083-.222.57-.21l-.017.434c-.2-.023-.4-.067-.56-.143v-.07c.003-.005.007-.006.007-.01zm.764-2.43c.054.004.115.01.177.02l-.02.426c-.058 0-.116-.004-.174-.007l.016-.44zm-.67.205c.005-.006.083-.22.565-.212l-.016.435c-.2-.023-.397-.068-.557-.142v-.07c.005-.005.01-.006.01-.01zm.757-2.314l.163.023c.004.002.01.002.013.002l-.017.418c-.06 0-.12-.002-.178-.007l.017-.436zm-.67.135c.064-.068.22-.16.564-.143l-.02.44c-.197-.02-.39-.058-.553-.127l.01-.17zm1.217-3.07l.463.324-.027.626c-.097-.08-.28-.17-.606-.236l.03-.76.14.046zm1.266 18.733l-.135-.026.01-.194.142.006-.017.213zm.597-.18l.176.01-.23.21.054-.22zm-.196.352l-.1.09.023-.46.165.01-.088.36zm-1.007.13l-.064-.024.014-.288.05.006v.307zm.007 1.036l-.07-.002-.024-.62.002-.085.086-.083.005.79zm-1.65.026l.62.03-.097.096-.528-.054.004-.072zm-.647-.033l.114.006-.115.004v-.01zm-.702-2.99l-.02.288-.51-.075c0-.016.006-.03.01-.046l.33-.18.19.012zm.726-1.555c.003-.06-.04-.11-.1-.113h-.033l.056-1.314c.17.066.37.107.576.126l-.056 1.423-.03.196-.566-.018.01-.2H117.83c.053-.003.097-.046.1-.1zm.012-3.527c.17.066.37.103.572.123l-.06 1.452c-.303-.015-.48.048-.585.12l.072-1.694zm-.137 20.82l-.443-.03.015-.27s.604-.21.055-.334l.08-1.95s.653-.265.06-.44l.015-1.933s.604-.17.064-.373l.07-1.87s.578-.224.06-.468l.06-.19 1.896-.036-1.93 7.895zm1.57-8.747l.575-.022-.018.067-.556-.044zm.463.436l-.005.01-.068-.01h.073zm.42.067l-.318-.04.006-.034.316-.013c0 .03-.002.058-.004.086zm.106.016l.006-.107 1.3-.054-.243.302-1.063-.143zm-2.45 8.236l1.93-7.905.396-.005-.417 8.055c-.007-.01-.02-.016-.03-.016l-1.88-.127zm1.568 1.364l-.257.213.007-.232c.097.007.178.013.25.02zm.248-1.008l-.016.812-.124.104c-.09-.01-.208-.018-.352-.03l.02-.552.472-.334zm-5.914-16.644c.238-.094.79-.117 1.302-.1-.002.036.004.074.03.12 0 0-.147.058-.135.19-.44-.047-.978-.123-1.197-.21zm1.14.66l.002-.017c.027.017.067.034.124.045v.004c-.04-.01-.084-.02-.126-.033zm-.13 1.22l.118-1.114.135.034-.04.833-.213.248zm-.015.18l.225-.257-.034.75-.187.242v-.733zm-.105.123v.75l-.386.494-.097-.01.035-.722.446-.51zm-1.214 1.39l.024.885-.154.196-.353.016.005-.542.48-.555zm-.97 1.116l.384-.44-.004.424-.38.016zm.002 1.04l-.004-.933.382-.017v.47l-.378.48zm.005.963l-.005-.764.37-.033v.394l-.366.402zm0 .428v-.27l.363-.402v.26l-.362.412zm.468-.53l.002-.26.438-.484.112-.01v.12l-.554.633zm.67-.766l-.01.014v-.013h.01zm.617-.912l.138.054-.652.742-.115.01-.004-.107.632-.7zm-.35-1.84l.215-.25-.026.58-.178-.016-.01-.315zm-.315 1.252l-.017-.732c.103.026.267.098.37.283l-.353.45zm.005.17l.397-.51c.013.048.03.098.034.155.024.22.036.376.04.485l-.468.018-.004-.15zm-.122.154l.017-.023v.02l-.017.003zm.594.198l.08.028-.527.583-.02-.71.472-.017c0 .08-.006.116-.006.116zm-.55.88v.003-.004zm-.263.134l-.28.31v-.284l.28-.026zm-.387-.07l-.307.026.31-.395-.003.367zm.11-.682l.003-.334.266-.01-.27.343zm.41-.35l.11-.005.017.82-.154.17-.384.037.002-.496.41-.525zm1.078-1.314l-.045-.006.262-.333v.273c-.04-.06-.107-.064-.216.066zm.324.253v-.73l.18-.23-.042.913-.138.047zm1.213 11.98c-.074 0-.174.006-.32.02l.004-.144.325-.013-.007.137zm.075-1.384l-.033.624-.338.013.02-.622.35-.014zm-.32-.887l.37.034-.04.747-.357.015.026-.797zm.26 2.027l-.327.014.014-.41.333-.012-.022.407zm-1.65-7.06l.197.05-.118.39s-.026-.004-.06 0l-.02-.44zm-.68-8.306c.216.122.886.21 1.345.256.01.016.013.03.025.046 0 0-.12.077-.158.157l-.007-.004c-.028-.002-.053.02-.058.048l-.01.064c-.64-.17-1.177-.386-1.153-.53.002-.015.01-.025.016-.038zm2.445 13.266l-.372-.032.007-.237.39-.203-.026.473zm7.316-20.24l-1.184 4.844-.522-4.42.47-8.713c.113.11.273.186.5.206l.543 4.966-.727 1.743.92 1.376zm-1.633 8.845s-.002 0-.002-.002l.052-.05h.293l.01.074-.352-.02zm2.21 29.272h-.04l.312-10.965-.038 3.598-.235 7.37zm1.096-25.87l-.797 22.327.04-3.827.584-18.343.172-.158zm-.6 3.144l.03-2.573.05-.153-.08 2.727zm.192-2.932h.097l.03-.026-.424 13.347.048-4.51.25-8.812zm-.55 26.66l-.065.03.028-.918h.056l-.006.55-.013.337zm.334 1.883l.037-.768.07-.028.005.798h-.114zm-2.526-1.685l-.702-.046.014-1.206 1.043.06.005 1.215-.252-.02.034-1.127c0-.032-.022-.055-.053-.055-.027-.01-.053.02-.053.05l-.034 1.126zm-1.37 1.502l.026-.455h.048l-.024.456h-.05zm-2.3-6.672l.432-.01v.03l-.43.246v-.27zm-.44.01l.336-.01.002.33-.36.21.014-.53h.006zm1.774-1.434l-.022.41h-.305l.006-.208.32-.196zm.58-.616l-.012.147-.45.274.024-.444.438.024zm-1.726-6.592l.596-.502-.02.576-.578-.035.002-.038zm-.876-1.18l.25-1.027 1.838.125-.54.378c-.007.004-.015.01-.02.016l-.792.557-.736-.05zm-.168.682l.143-.58c.224.014.432.026.627.04l-.77.54zm-5.715-2.233l2.333-5.36.146-.006-.01.426.15.007-.268 5.093-2.35-.16zm-5.335.85l.103-1.1 2.61.18-.054 1.08-2.66-.16zm-6.98-.418l.054-1.16 2.034.14-.084.73-.698.367c-.45-.028-.886-.054-1.307-.078zm-1.825-.042l-.295-.006.656-1.144.284.007-.645 1.144zm.765-1.142l1.01.02-.058 1.16-1.595-.037.643-1.142zm16.78-34.114l.31-.217v.084l-.315.27.004-.136zm7.115-1.702l1.73 1.64c-.294.025-.762.134-.762.134s-.454-.417-.61-.006l-.54-.383.07-1.284s.058-.042.112-.1zm.578 3.976c-.11.01-.225.045-.355.107 0 0-.07-.064-.177-.127l.017-.275.488.054.028.24zm1.65 16.88l.13 1.583-1.894.03-.415-3.53 1.225-5.025.16.24.665 4.975c-.316.033-.737.148-.673.907.05.595.513.774.8.82zm-.075 1.927l-1.664-.094-.01-.114 2.088-.03-.414.24zm.604 15.33l-.645 13.815h-.058l.928-26.008c0-.014-.006-.025-.017-.035l.052-.046-.26 12.278zm.585-12.562l-.39 8.387.173-8.204.2-.18.017-.003zm-.042 27.9l.16.01-.16.06v-.07zm-.105.113l-.664.252.01-.415.654.043v.12zm-1.352 1.217l.01-.592.015-.01-.022.6zm-.19 0l.013-.517.035-.013-.018.53h-.03zm-1.037-.026v-.09l.02-.01-.006.097h-.012zm-7.24-16.657c.094.006.187.013.28.017l-.06 1.073-.253.01.034-1.1zm-10.315-.466l-.438-.046c-.017-.05-.043-.102-.075-.152.49.027.984.057 1.48.088v.01h-.002c-.05.01-.086.05-.1.114-.01.033 0 .072.014.108-.08.014-.15.045-.22.078-.018.01-.04.018-.058.025-.03.01-.064.022-.094.035-.026.01-.04.04-.03.066.012.027.04.044.066.035.035-.01.066-.023.098-.035.03-.01.062-.02.094-.032.062-.02.125-.037.186-.063.004.006.01.007.013.01l-.012.112c-.002.02-.002.04-.002.06l-.05.522-.942-.065.072-.87zm-3.028-.35c.428.026.866.05 1.312.08l-.095 1.03c-.486-.042-1.052-.088-1.028-.083.04.014.055-.227.055-.227l-.2-.018s.053-.41-.045-.78zm-7.972.766l.043-1.05 2.76.06-.6 1.048-2.203-.058zm-3.448 6.5l-.2-.833.175-.006.208.84h-.183zm-.205.11l.257 1.05-.37.08c-.015 0-.027.01-.035.02l-.1.152-.332-1.07.152-.23.427-.003zm-.655.35l.333 1.066-.124.188-.332-1.067.123-.188zm-.2.3l.332 1.068-.065.095-.332-1.064.064-.1zm-1.438 2.372l.197.02.22.707-.13.2-.288-.928zm.38 1.232h.192l.16.51-.135.187-.216-.694zm.33 1.063l-.05-.172.14.043-.09.13zm1.47 1.57l.825.31v.29l-.095.014-.73-.614zm-3.182.59c-.014.01-.023.022-.023.038l-.002.125c-.38-.03-.705-.062-.922-.083v-.02c.217-.037.547-.054.95-.06zm-.534 1.37l-.17.062h-.097l-.05-1.238c.21.023.496.05.823.075l-.01.522c-.156.085-.284.274-.382.565l-.114.012zm.488-.056l-.257.03c.073-.204.16-.347.263-.425l-.006.396zm.81-.088l-.53.06c0-.108.006-.25.006-.433.2.038.4.225.525.372zm.235-.025l-.105.01c-.135-.165-.386-.42-.654-.465.002-.13.004-.28.004-.453.322.025.672.05 1.027.074-.047.29-.098.598-.142.822l-.13.01zm.242-.022c.05-.287.11-.647.135-.806h.056l-.14.798h-.05zm1.218-.224l-.74.484-.202-.125.148-.926c.338.015.667.028.967.03l-.168.54h-.004zm.457-.536l-.19.763-.09-.076.23-.686h.05zm-.162 0l-.174.52.164-.52h.01zm.1-.343h.015l-.08.234h-.01l.074-.235zm-1.13-.05c.334.013.678.028 1.02.046l-.077.24c-.305 0-.643-.015-.985-.032l.042-.256zm-.168.357l-.136.87-.033-.02.15-.85h.018zm-1.313-.387c.413 0 .88.01 1.373.027l-.042.254h-.018l.033-.188c.005-.03-.015-.057-.043-.063-.03 0-.056.015-.06.042l-.036.203c-.415-.024-.83-.054-1.208-.083v-.19zm-.11.745h-.064l.007-.47h.058l-.002.456zm-.05-.7c0-.02-.014-.032-.028-.043h.085c-.003.06-.003.12-.003.18h-.057l.002-.13zm3.5.234c-.046 0-.1.01-.153.014l-.007-.178c.06 0 .12.01.18.01l-.02.153zm-.697-6.018l.125-.186.318 1.02-.13.175-.313-1.008zm-.14.212l.063-.096.313 1-.065.09-.31-.994zm-.076.114l.306.987-.037.055-.13-.01-.263-.85.122-.18zm-.495-1.013l.123-.184.332 1.065-.123.183-.332-1.063zm-.194.294l.12-.18.33 1.063-.117.18-.332-1.064zm-.217.328l.142-.215.33 1.063-.14.21-.32-1.048c-.003-.005-.008-.006-.012-.01zm-.198.303l.125-.194.333 1.063-.108.162h-.027l-.318-1.022s-.005 0-.005-.01zm-.21.313l.136-.2.284.905-.193-.02-.208-.668c-.002-.01-.01-.013-.016-.018zm.14 1.352l-.182-.585.186.018.117.38-.122.187zm.316 1.02l-.125-.405h.182l.07.227-.126.177zm.025.43l-.17-.05.11-.148.06.197zm.017-.308l.125-.172.07.22-.127.182-.068-.23zm1.243-1.71l.064-.09.047.145h-.002l-.093-.01-.017-.05zm-.106.144h.04l.035.117-.12.18-.054-.165.1-.133zm-.142-.013h.017l-.012.02-.005-.022zm-.115-.01l.042.138-.124.17-.1-.325.183.017zm-.38-.654l.12-.18.223.723-.18-.018-.163-.525zm-.214.322l.137-.208.124.4-.207-.02-.054-.172zm-.106.158l.03-.043.013.048h-.043zm-.067.1l.146.015.24.776-.128.18-.288-.925.03-.046zm-.274.22l-.078-.254.192.017.012.045-.126.192zm.252.808l-.212-.676.128-.19.272.867h-.187zm.07.23l-.036-.12h.126l-.09.12zm.108.34l-.068-.215.13-.178.065.208-.127.186zm.57-1.09l.122-.168.053.167-.12.178-.056-.18zm-.252.627l-.113.166-.052-.166h.166zm-.127-.108l.08-.11.034.11h-.114zm.118-.342l-.202-.66.208.02.137.444-.142.196zm.184-.07l.055.18-.14.205-.06-.19.144-.195zm.795-.9l-.127.182-.045-.143.13-.175.04.135zm-1.875.936l.125-.185.173.56h-.18l-.118-.38zm-.207.313l.13-.197.083.264h-.193l-.02-.067zm-.166-1.497l.125-.193.177.57-.185-.018-.11-.353c-.003 0-.007-.01-.007-.01zm-.215.324l.14-.215.076.24-.215-.022zm2.932-.518l-.383-.016c-.02 0-.036.01-.046.024l-.044.063-.32-1.027.138-.206.35-.074.305 1.237zm.424.014l-.206-.01-.308-1.288.184-.04.33 1.336zm-.356-1.44l-.183.04-.24-1.005.18-.002.243.968zm.054 1.916l-.48-.045-.077-.245.075-.105.388.01.094.385zM90.7 103.7l-.004-.194h.01l.007.195H90.7zm.002.107h.016l.03.778-.027.01-.018-.784zm-.37-.09h-.04l.074-.227c.075 0 .15.01.22.01l.007.206h-.152l.032-.118c.008-.028-.01-.058-.042-.066-.025-.01-.055.013-.063.04l-.036.15zm-2.882.99l.006-.44c.015-.01.03-.01.043-.014h.02c0 .168-.003.324-.008.45h-.062zm42.797 7.85l.014-.215.417-.507.32.013v.026l.79.22.003.053.018.45-.318.015-.01-.225-.51.246-.308-.053-.007-.213-.258.225-.15-.034zm.747-.817l-.232-.01.22-.27.01.28zm-.02-.492v.053l-.347.426-.324-.01.05-.776.62.307zm-.678.573l.247.01-.27.33.023-.337zm4.022-.683l1.69-2.335 3.658-1.416-.34 3.066-.432.165c-.013 0-.024.01-.036.015l-.853-.032c-.03 0-.053.023-.055.05l-.04.923-.056-.01c-.51-.1-.954.44-.954.44l-.24.01c-.34-.212-2.34-.876-2.34-.876zm4.086.498l-.39-.05.04-.876.674.022c-.142.2-.02.544-.02.544l-.305.36zm1.704-.67l.022-.182.335.01-.016.19c-.126-.042-.284-.08-.342-.017zm1.137.753l-.17-.18c.01-.2.026-.427.036-.628h.12l.033.796c-.01 0-.013.01-.018.016zm.424-2.406h.04c.063.088.122.187.1.232-.014.03-.067.04-.153.043h-.01c-.03 0-.067.01-.1.013-.126.02-.183.02-.193-.023-.01-.04.01-.057.065-.098.043-.03.094-.067.117-.136.015-.01.024-.02.036-.028.01.01.024.01.038.01.018 0 .036-.01.054-.015zm.664 1.735l.01.226-.212.05-.024-.622c0-.024-.02-.044-.042-.05l-.778-.17c.01-.072.014-.142.02-.188.012-.02.02-.04.017-.06 0-.058-.035-.068-.054-.068-.033 0-.05 0-.063.09-.036.047-.148.122-.27.187 0-.024 0-.042.01-.056.01-.01.014-.026.01-.042 0-.028-.035-.053-.058-.057-.023 0-.04 0-.056.08l-.045-.04.784-3.683.02-.01-.08 2.446c-.014.01-.023.023-.03.038-.01.027 0 .055.01.087v.024c-.012.014-.025.025-.038.033-.01.01-.02.02-.024.034-.01.04-.04.064-.083.09-.055.04-.13.093-.107.208.023.105.113.123.2.12.038 0 .08-.01.113-.012.033-.01.066-.01.094-.01.133 0 .216-.035.25-.104.052-.11-.042-.255-.144-.388 0-.013 0-.024-.01-.038v-.04c-.01-.04-.044-.07-.088-.08h-.03l.072-2.215.596 3.44c-.054.063-.09.133-.068.188.02.045.063.063.113.068l.09.516-.097.01zm.97-.054l-.097.01.558-.735.203.92-.65.075-.012-.266zm1.886.457l-1.113-.266-.225-1.03.108-.144c-.03.09-.014.205.025.283 0 .025 0 .045.01.064v.032c.01.024.03.04.052.04s.038-.016.048-.035c0-.01.01-.014.01-.02.03-.085.03-.18.014-.267 0-.01 0-.016.01-.02.017-.024.014-.053-.01-.072v-.082-.127l.485-.642 1.972 2.296c-.055-.01-.115.02-.18.102 0 0-.558-.592-1.203-.11zm-.664-3.615l-.01-.054s.01.01.01.014c.01.016.02.032.026.052v.01c-.01-.01-.02-.015-.028-.02zm-.203-2.05l.074 1.865v.017h-.01c-.01.01-.02.02-.024.033-.022.034-.025.078-.01.118v.076c-.01.02-.01.04 0 .064h-.18c-.027 0-.047.03-.043.06 0 .026.026.05.058.046h.113c.024 0 .048 0 .074.01-.01.04 0 .087.022.13 0 .016-.01.032-.01.05-.01.015-.02.037-.02.07-.014.015-.02.035-.01.054.01.042.037.078.07.104v.01c.012.018.028.026.05.026l.057.548-.724.955-.855-3.88 1.082-.397s.127.03.274.045zm-2.556.79l.91-.335-.224 3.793c0 .016.01.03.02.04.002.01.002.02.01.028-.025.02-.058.046-.09.076l-.62-3.6zm.643 3.725c.046-.046.105-.1.164-.14h.05c.01 0 .027-.01.05-.02.01.012.023.027.032.04.036.05.053.098.044.135-.012.066-.087.077-.196.085-.034 0-.066.01-.094.01h-.03l-.02-.115zm.13.737l-.09-.517h.03c.026-.01.053-.01.08-.01.114-.01.267-.023.295-.17.014-.067-.01-.146-.06-.218-.018-.024-.037-.046-.057-.067.01-.02.01-.042.014-.07 0-.02-.01-.04-.027-.05-.01-.01-.023-.01-.03-.015-.014-.02-.027-.034-.047-.047 0-.01-.01-.014-.02-.02-.015-.01-.036-.01-.056 0l.216-3.647.08-.03.867 3.957-.667.88-.528.028zm-1.076-4.352l-.76 3.564-.038-.03c-.013-.014-.037-.016-.055-.01l-.19.092c-.01 0-.012.01-.02.016l-.252.303.45-3.62.866-.317zm-.992 4.003l-.23-.01.235-.286.016-.01-.02.302zm.104 0l.026-.334c0-.01 0-.01-.01-.02l.03-.013.053.042-.07.325h-.032zm-.014.22l.01-.113h.016l-.024.114zm.214.31l-.14-.15.06-.27h.104c-.01.112-.016.25-.024.416zm.228-.305c-.01.175-.023.352-.03.514l-.095-.103c.01-.14.015-.285.023-.417.01 0 .017.01.025.01h.078zm-.198-.216h-.09l.055-.254.055.047c0 .053-.01.123-.02.21zm.204.11h-.087c-.01 0-.01.01-.015.01.01-.1.013-.188.02-.262h.026c.022-.01.047-.025.073-.04-.01.092-.01.193-.016.295zm.107 0c.01-.156.015-.282.02-.356l.05-.032c-.002.03 0 .064-.01.1 0 .028.014.052.04.058l.783.172.026.607c-.095.03-.206.063-.312.104l-.024-.623c0-.014-.01-.03-.02-.037-.01-.01-.02-.014-.037-.013l-.517.02zm.493.694c-.088.04-.172.082-.244.128l-.03-.724.248-.01.026.607zm8.673 1.34s.072-.106.033-.206l.947-.11c-.017.09-.024.183-.022.276l-.958.04zm1.63.394l.474.052-.01.187c-.183-.023-.345-.11-.466-.24zm.594.248h-.022l.01-.182.42.046c-.117.08-.256.13-.406.138zm.517-.232l-.527-.057.03-.62.71.026c0 .026.01.05.01.077.01.223-.08.428-.222.573zm-1.298-.707l.693.025-.03.612-.567-.063c-.07-.11-.114-.238-.12-.375 0-.07.01-.136.022-.2zm1.49-.05l-1.462-.057c.108-.28.37-.485.69-.496.36-.016.672.22.77.553zm2.333-1.174s-.035-.017-.085-.03l.097-.935c.028.027.055.055.082.084l-.095.878zm.71-6.573l-.234 2.19c-.04.012-.077.03-.11.05l.14-1.353c0-.013 0-.025-.01-.034-.154-.246-.23-.353-.272-.398.01-.073.016-.2.03-.435l.456-.02zm-.25 2.322c0-.01-.01-.01-.01-.012h.01v.01zm-.42 3.023l.312-2.98c.015.017.03.027.044.04.02.015.035.028.05.042l-.314 2.894h-.092zm.07.21c-.026-.026-.055-.056-.084-.08v-.017c.028 0 .058-.01.094-.01l-.014.106zm6.357 3.107l-.013-.31 3.804.22-.07.205-3.72-.115zm6.452-7.62l-.557-.027c.203-.398.317-.432.36-.423.096.016.164.24.196.45zm-.872 1.57l.063.41-.012.086c-.114.017-.19 0-.214-.035-.05-.077.042-.273.163-.46zm-.01.885l-.012.074c-.062.02-.14.038-.207.05 0 0 .01-.01.01-.013.027-.036.05-.065.096-.08.04-.013.077-.024.112-.032zm-.127.795v.025h-.04c.014-.01.03-.022.044-.03zm-.115.747l-.013.062c-.033.01-.07.014-.104.015.035-.026.078-.055.116-.078zm-.12.756l-.023.133c-.07.035-.187.053-.294.058.063-.048.118-.087.175-.12.04-.024.09-.047.142-.072zm-.262 1.656l-.01.042c-.036.01-.07.014-.106.02.03-.022.058-.04.087-.054.01 0 .02-.01.025-.01zm2.692 2.548l-.036-.287.215.037-.023.26-.157-.01zm.68.04l-.415-.025.02-.252.446.076-.052.2zm.37-1.447l-.12.468-.58-.06.04-.473c.205.02.43.04.66.067zm-1.244-.11c.13.01.294.018.48.033l-.04.476-.38-.04-.06-.47zm.383 1.16l-.238-.038-.07-.544.354.036-.047.545zm.57.093l-.464-.077.045-.55.563.056-.146.57zm1.447-1.17l.066-.283.387-.017.046.024c-.01 0-.012.01-.015.01h-.014c-.028 0-.05.03-.048.058v.02c0 .024 0 .042.01.062 0 .055-.01.118-.028.157l-.4-.03zm1.905 2.278v-.235l1.372.057-.01.287h-.07l-.1-.158-.48.01-.096.23-.62-.188zm2.082.116h-.09l.035-.267h.104l-.048.263zm2.717-12.275l-.522.252c.12-.516.232-.572.27-.574.082 0 .182.164.25.323zm-1.126 2.224v.01c-.025.01-.05.016-.08.022l-.044.013c-.02.01-.044.012-.067.02.01 0 .017-.01.024-.013.03-.016.1-.035.165-.05zm.02.87l-.017.078c-.033.015-.072.028-.112.033h-.053c.06-.04.122-.08.183-.115zm-.453 2.612l-.022.11c-.047 0-.105 0-.155-.02.04-.035.103-.064.177-.09zm-.187 1.073l-.01.048c-.044.01-.09.01-.137 0 .046-.02.095-.038.145-.053zm-.145.847v.01h-.035c.01 0 .025-.01.038-.01zm-.123.697l-.013.076c-.053 0-.11-.01-.163-.01h-.01c.058-.026.122-.05.182-.066zm-.152.877l-.01.056c-.08.014-.164.01-.252 0 .053-.03.14-.04.22-.053.014 0 .028-.01.04-.01zm-.13.743l-.025.15c-.016-.01-.03-.018-.043-.03-.04-.035-.025-.058-.02-.068.01-.016.046-.033.088-.052zm-.096.564l-.018.105-.044.236-.162-.01.043-.34h.182zm-2.386-.047l1.422.028c-.01.01-.01.02-.01.03l-.014.306-1.403-.036v-.328zm1.36 1.415l-1.376-.057.01-.656c.44.015.95.034 1.392.055l-.024.658zm.77.033l-.11-.01.086-.648c.054 0 .1.01.142.01l-.118.644zm-2.134-1.013l1.398.034-.01.177c-.348-.016-.803-.032-1.395-.054v-.158zm1.508-.07l.012-.304c0-.013 0-.022-.012-.03l.596.01-.046.34-.55-.015zm.535.12l-.025.196c-.133-.01-.303-.018-.52-.027l.01-.18.54.014zm.227.216c-.04 0-.088-.01-.146-.012l.026-.2h.16l-.04.21zm-.366.844l-.035.27h-.412l.01-.284.44.02zm-.43-.124l.02-.66.51.027-.085.653-.445-.02zm-2.758-2.202v-.02.018zm.026-.234c-.203-.02-.43-.026-.55-.02l.03-.255s.336.025.39-.257c.053-.282-.02-.425-.377-.423l.45-.11.02-.122-.534-.034.09-.856.072.087v.042c0 .03.02.055.047.057h.01c.01 0 .016-.01.024-.01l.75.908-.263.01c-.027 0-.05.02-.05.047l-.104.932zm.164-.505l.042-.37.255-.01-.082.37-.206.01h-.01zm-.56-1.633l-.07-.085.058-.53c.024 0 .05-.01.075-.01l-.062.623zm.415-4.288l-.11 1.135c-.018 0-.033 0-.048-.01l.232-2.178.38.053.023.55-.46.41c-.01.01-.017.024-.017.036zm-.377 3.56h-.038v-.025c.01.01.024.014.036.02zm.246-2.2l-.205 2.1c-.022-.01-.043-.024-.066-.032l.22-2.073c.018 0 .033.01.05.01zm.01-.11h-.05v-.015h.01c.01.01.018.01.027 0h.02v.01zm6.94 4.703l-.094-1.127c.01.01.018.018.032.02h.037c.042 0 .08-.025.108-.065.033.01.067 0 .094 0 .028-.012.053-.026.07-.04.04.01.078.01.103 0 .017 0 .026-.01.038-.016.014.01.03.014.045.02 0 0-.01.01-.01.016.02.15-.01.31-.04.462-.017.085-.033.17-.04.253-.015.13-.01.266 0 .4l-.343.08zm2.09-2.376s-.022-.286-.13-.156c.012-.162.044-.166.18-.172.038 0 .08 0 .13-.01.086-.01.145 0 .167.03.02.022.014.055.014.055l-.058 1.242h-.13l.014.306.068.037-.046.47s-.223.087-.21.046c.01-.04 0-1.85 0-1.85zm3.893.746c.426.01.71.103.71.103l.01.118s-.833.128-1.026.308c0 0-.116-.538.31-.53zm1.356 1.555l.1-.885.45.484-.02.544c-.092-.01-.163 0-.163 0l-.366-.144zm.636.157l.017-.446.58.625-.016.068-.276.037c-.013-.183-.162-.258-.304-.285zm.96 0l-.334.04v.01l-.602-.65.036-1.01h.09c1.517 0 1.396 1.928 1.396 1.928l-.16.01-.044-.423-.105-.01-.065.095-.21.01zm-.192-2.005l.13-.14 1.18.072 1.38 1.575-.033.946c-.674-.07-1.376-.12-1.376-.12l-.043-.985c.174-.233.142-.604.142-.604l.196-.087-.01-.175-.44.018c-.21-.604-1.127-.5-1.127-.5zm3.634 2.58c-.215-.038-.533-.08-.87-.116l.03-.84.84.957zm.23-1.005l-.054-.014c-.055-.01-.26.08-.26.08l.03.52c-.04.307.2.297.2.297l.01.136-.987-1.125.026-.722c0-.03-.022-.054-.052-.056-.028 0-.05.023-.052.052l-.023.61-1.237-1.41 1.18.07c1.18.18 1.224 1.563 1.224 1.563zm-4.68-1.19l-.03.908-.442-.476.053-.46.418.028zm-.706-4.83l-.108.863-.286-.383-.02-.463.414-.018zm7.704 8.32s-.01-.108-.038-.243l.994.023.01.296-.966-.074zm1.71.385l-.636-.28-.01-.323.723.018-.03.585h-.047zm2.08.047l-1.655-.038-.023-.59 1.858.043-.18.584zm-1.786-.63l.024.59h-.167l.034-.587h.11zm16.1-12.205s-.02-.807.383-.745c0 0-.103.468-.036.732l-.347.013zm.82-.113s.018-.723.368-.793c0 0-.14.504-.05.78l-.318.012zm.584-1.33s-.28-.074-.554.052c-.033-.468.05-.7.08-.766.106-.023.477-.1.96-.21 0 .01-.01.018-.01.025l.01.718c-.11-.012-.326-.01-.482.182zm.268.317c.01.016.024.025.044.025h.01c.05-.01.105-.02.166-.034v.743c-.03.058-.06.12-.087.186h-.32s-.163-.662.19-.92zm.324.568v-.6c.226-.053.503-.128.786-.21-.053.07-.11.155-.162.262 0 0-.357.186-.622.548zm1.203-.64s.013-.017.013-.02c.04-.033.297-.068.332.024.09.245-.42.08-.346 0zm.533-.238l-.01-.173.763-.19h.026l-.022.396-.393.265-.08-.237h-.225s-.022-.023-.06-.054zm.888.818c.057-.08.17-.086.25-.074.083.016.126.054.22.04.08-.013.127-.065.196-.08.13-.025.067.12 0 .163-.08.057-.257.067-.355.083-.11.02-.21.056-.313.083-.06-.053-.04-.165 0-.216zm.744-.8l-.766.01.023-.394.75-.03v.417zm.16.072l.037-1.194 1.043.053c-.04.04-.08.106-.116.207l-.37.43-.426-.01.01.24.18.458.05-.426s.43-.152.5.512l-.788-.034.45.275-.368.134-.182-.27-.017-.374zm1.307.263c.014-.105.175-.205.283-.192.21.025-.055.406-.282.192zm.452 5.168c.384-.03.067-.323.067-.323l.038-1.32.683-.55c.567-.195.97-.45.97-.45l9.65.428c.01.278.353.226.353.226l.058 4.673-1.84-.082-.017-.107-.03-.4s-.36-.037-.572 0c-.212.037-.22.156-.22.156v.278l-2.996-.123c0-.048-.01-.097-.02-.125.087-.043.187-.06.17-.188-.017-.117-.185-.1-.112-.222-.012.022.08-.01.1-.04.026-.043.02-.125.013-.17-.018-.105-.083-.236-.21-.212-.076.024-.145.023-.183.102 0 .036-.01.07-.027.1 0 .144.034.212.12.303 0 .016.01.028.017.043 0 .01-.013.046-.014.05-.057 0-.06.073-.043.116h.01c.01.014-.01.014.026.023 0 .01.018.04.022.048h.023c.016.053.016.11.014.17l-4.848-.2-.063-1.504-1.11-.088-.025-.612zm10.33-3.64l.01-.14c1.46.35 2.67.637 3.234.77-.032.023-.066.043-.102.072l-3.136-.703zm3.276 2.088c.095.118.216.202.366.19.114-.01.2-.037.264-.08l-.01 1.836c-.01-.01-.023-.014-.04-.02-.097-.033-.33.01-.422.04-.035 0-.06 0-.082.01l-.08-1.977zm-3.42-2.376l-.38-.09.075-.195.32-.013-.014.298zm-.417.01l.288.07-.335.06.048-.13zm-.154-.036l-.056.147-.945-.195s-.02-.134-.064-.21c.365.088.718.174 1.065.26zm-1.486-.203l-2.175-.402-.013-.29c.82.205 1.673.413 2.503.613-.025.024-.057.067-.086.138l-.097-.036s0-.28-.133-.02zm-2.244-.705c.013 0 .025.01.036.01h-.036v-.01zm-.166-.15l-.467-.116.01-.06.447-.098.013.273zm-.477-.01c.16.04.318.078.48.12v.056l-.474.02-.028-.01.02-.187zm-.158-.04l-.02.195-2.542-.54s-.056-.424-.268-.07h-.134v-.135l-.98.163-.025-.665c.53.175 2.103.582 3.976 1.047zm-4.105-.43c.015.03.01.06.01.09-.037.01-.077.01-.115.01.04-.147.022-.4-.01-.54.044.01.095 0 .14.01.01 0-.025.41-.03.438zm-.016-1.21l.02.442c-.022 0-.04.01-.047.028v.018l-.14-.015s-.252-.323-.496-.416l.664-.056zm-1.238.33s-.073-.137-.17-.21l.49-.042c-.054.04-.102.108-.134.22l-.186.03zm.703 3.836c.025.21-.152.233-.268.342-.03.01-.063.014-.1.02.028 0-.024-.42-.013-.466.058-.22.357-.07.38.105zm-2.33-4.205l-.41-.02.414-.108v.127zm-.86.737l-.024.01c.01 0 .022-.01.025-.025v.02zm.11-.03l.036-.636.712.036-.01.394h-.017l-.726.205zm.737.01l-.44.018.446-.126v.11zm.148-.94c-.013-.023-.036-.04-.06-.03l-.78.205c0-.03-.023-.055-.05-.057-.027 0-.056.02-.056.05l-.045.735c-.01-.026-.04-.042-.068-.033-.01 0-.317.11-.738.243l-.043-1.002c.584-.14 1.092-.268 1.317-.35.19-.067.334-.066.42.01.072.057.094.156.102.235zm-1.896 1.3v.064c-.025-.014-.053-.03-.08-.043l.076-.02zm-1.63-.76c0-.016-.01-.03-.024-.04.488-.107 1.072-.237 1.603-.365l.04 1.013c-.1.03-.206.064-.316.1-.11-.01-.233.02-.352.108-.06.017-.12.034-.178.054l-.684.172c.103-.09.207-.23-.088-.304v-.737zm19.805 15.958l-.708-.106.05-2.254s.033-.227.446-.22c.413.012.92.02.92.02s.232.015.238.255l.042 3.316s.01.28-.307.278c-.32 0-.827-.03-.827-.03l-.016-.36.178-.208-.016-.69zm2.347 1.993v-.237l2.32.076v.205l-2.32-.043zm3.6.064l-1.122-.02v-.2l1.14.037c-.01.057-.014.117-.02.182zm.513-.166l.542.02c.01.027.01.056 0 .08-.03.148-.234.288-.382.208-.13-.07-.166-.153-.158-.307zm.847.194s.01-.07.01-.166l.548.02v.17c-.238-.013-.426-.02-.56-.025zm3.22.15v-.207l2.608.084v.254l-2.607-.13zm6.82.34l-.013-.324 1.562.053.016.348c-.405-.02-.94-.045-1.566-.077zm1.473-2.185l.034.864c-.235 0-.79-.025-1.566-.055l-.03-.71c.743-.035 1.235-.07 1.56-.1zm.127-.174c-.41.043-1.07.085-1.694.116v-.026c0-.043-.04-.08-.083-.077-.045 0-.077.038-.076.08v.037c-.174.014-.586.016-1.174.01l-.01-.087c0-.043-.038-.078-.082-.076-.044 0-.078.04-.076.082v.078c-.346 0-.746-.01-1.187-.02v-.286c2.13.068 3.825.128 4.374.166zm-5.643-.205c.238.01.472.015.705.022l.01.29c-.23 0-.472-.01-.718-.015v-.295zm-.16-.163l-1.953-.06 1.875-4.226c0 .048 0 .092.033.13.024.032.044.045.06.053v.44c-.01-.01-.02-.016-.02-.016l-.566 1.154c-.165.223.01.256.01.256.134.034.337.134.568.266l-.01 2.005zm-2.196.093l-.13.3c-.098 0-.19 0-.285-.01v-.303c.14 0 .277.01.414.01zm-8.612-.234l2.33.062v.282c-.87-.03-1.662-.055-2.328-.08v-.265zm2.33 1.966l-2.32-.077v-.845c.462.02 1.283.05 2.322.094v.827zm3.353.11l-.013-.8 2.364.098v.168l-.267.603-2.085-.07zm2.348.236v.21c-.084-.01-.17-.01-.25-.014l.088-.2h.163zm0-.158h-.095l.095-.213v.215zm2.766.09l-2.61-.086v-.58l.088-.195c.853.034 1.706.07 2.524.1v.76zm.16 0v-.756l.76.03.03.753-.79-.026zm.81.456c-.27-.014-.542-.028-.813-.04v-.255l.8.03.012.267zm.33.016c-.055 0-.114-.01-.17-.01l-.01-.272.18.01v.274zm.506.025c-.113 0-.23-.01-.345-.017v-.277l.336.01.01.283zm.91.045c-.246-.013-.496-.025-.75-.036l-.01-.286.746.022.013.3zm1.32-.254l.013.32-1.177-.056-.01-.302 1.172.037zm-2.15-1.74c.268 0 .52.01.747.01l.025.627-.748-.03-.024-.606zm-.445-.01c.098 0 .194 0 .288.01v.01l.022.59c-.1 0-.2-.01-.302-.012l-.01-.596zm-.144 1.5l-.185-.01-.03-.75c.07 0 .14 0 .21.01l.01.75zm.623-.725l.744.03.03.74-.746-.024-.03-.747zm-.133.74l-.332-.01-.01-.75c.104 0 .207.01.31.014l.03.747zm-1.622-1.544c.25.01.49.01.725.017l.025.586-.75-.03v-.573zm-2.77-.074h.216l-.215.488v-.493zm-.16 0v.533c-.8-.035-1.596-.067-2.364-.1l-.01-.504 2.373.07zm-2.377-.53c.775.02 1.577.044 2.38.067v.304l-2.373-.073-.01-.3zm-3.17.196v-.283c.893.024 1.922.05 3.01.082v.298c-1.044-.032-2.07-.064-3.014-.097zm0 .16c.9.03 1.934.063 3.015.096l.01.507c-1.1-.047-2.135-.09-3.024-.126v-.48zm-2.486-.086l2.327.08v.478c-1.04-.043-1.863-.08-2.326-.097v-.46zm8.65.117l.134-.298 2.022.06v.296c-.673-.017-1.4-.035-2.153-.057zm2.153.217v.57l-2.453-.1.234-.53c.77.024 1.52.044 2.22.06zm1.04-.136l-.014-.29c.084 0 .165 0 .244.01l.01.29c-.08-.002-.16 0-.237-.01zm.236.165l.01.592c-.07 0-.14 0-.213-.01l-.024-.59h.232zm2.714.7l-1.176-.047-.026-.63c.487.01.86.01 1.073 0h.1l.03.686zm.034.89l-1.174-.037-.03-.738c.426.017.82.033 1.175.044l.03.73zm1.725.06l-1.564-.053-.03-.73c.78.03 1.337.05 1.562.056l.03.726zm-10.863-.03v-.17l2.007.066-.09.197c-.758-.036-1.422-.07-1.917-.092zm-1.348-.496c.102-.014.196.043.26.128l-.428-.014c.038-.058.093-.102.168-.114zm-.685.097l-1.17-.04v-.82l3.027.123.01.8-.554-.016c-.033-.216-.145-.457-.485-.457-.482 0-.73.07-.828.41zM90.37 86.563c-.032-.03-.08-.055-.15-.074l.02-.106s.266-.133.077-.236l.077-.02c.08-.012.162-.028.22-.094.053.014.104.028.143.055.077.054.13.174.125.284-.005.05-.023.14-.112.19-.052.028-.136.018-.22.01-.058-.007-.12-.014-.18-.007zm.186-.66c-.013-.003-.03-.008-.043-.013-.022-.01-.05-.022-.075-.036-.055-.026-.11-.052-.17-.07l.012-.11s.04-.016.08-.046c.098.075.2.186.197.275zm-.295-.01c.045.015.09.037.13.057l.085.038c.004.002.01.002.016.005-.027.013-.065.023-.113.03-.042.006-.09.016-.13.032l.014-.163zm-44.218 22.673c-.004.028.018.055.047.057H46.11l.212.62s.846-.153 1.05.226l-.087 1.176s.41.223 2.822.23l7.018.285 3.493 8.14 2.765 6.31 1.11 2.376s1.166.182 2.713.238c0 0 98.38 3.91 179.32.446 0 0 5.84-2.425 6.995-4.844 0 0 .477-.738.468-2.897-.01-2.157-.11-2.662-.11-2.662s-.23-.01-.623-.03l-.093-2.288c.48-.06.482-.11.482-.162 0-.095-.095-.12-.404-.148-.415-.038-2.206-.102-4.492-.173-.013-.03-.04-.048-.075-.048-.026 0-.053.016-.067.042l-1.12-.034.01-1.914c.672.4 1.474.987 1.474.987.315.508.355.212.355.212-.077-.557-1.02-1.757-1.02-1.757-.208-.484-.58-.865-.803-1.063v-.987c.064-.025.187.048.24-.014.127-.145-.117-.158-.15-.222-.048-.082-.042-.277-.067-.373.023-.01.305-.135.192-.19-.046-.025-.08-.05-.156-.025.01-.138-.05-.28-.083-.418.062-.01.108-.03.17-.013.05-.03.072-.073.076-.13 0-.092-.49-.095-.548-.056-.02.036-.05.106-.043.145.014.075.065.05.107.086.08.07.115.296.092.394h-.052c-.196.026-.175.21.01.235-.01.114 0 .256-.047.364-.028.07-.188 0-.158.147.01.046.048.07.09.08l-1.97 4.446c-.164 0-.33-.01-.495-.014-.01-.028-.037-.048-.073-.048-.026 0-.05.02-.065.042-2.002-.056-4-.11-5.57-.152-.012-.027-.04-.047-.073-.047-.03 0-.054.018-.07.043-1.004-.028-1.823-.048-2.34-.062l-.01-2.535s.343-.148-.01-.24l-.05-3.113s.55-.265.04-.324l-2.72-.047s.038-.655-.426.018l-1.192-.138-.087-4.713s.28.016.3-.16l.613-.025s.038.17.123.36l.104 2.53c-.024.03-.046.06-.056.102.02.216.146.498.315.635.13.11.104.16.09.32-.01.08.018.418.15.235 0-.027 0-.063-.01-.09.017-.09.02-.275-.012-.376.015-.042.05-.068.098-.073.04-.055.12-.167.19-.206 0-.162.157-.296.11-.45-.01-.032-.027-.05-.044-.07.013-.014.02-.033.02-.054l.01-2.365v-.01c.028-.138.015-.3-.014-.464-.06-.34-.195-1.047-.655-.904-.478-.115-1.78-.423-3.38-.807l.022-.417c0-.022-.01-.042-.023-.06-.015-.016-.04-.024-.062-.023l-.46.02c-.033 0-.06.02-.073.05l-.097.262c-1.207-.29-2.532-.612-3.773-.92l-.018-.41c0-.026-.01-.048-.03-.064-.02-.014-.044-.02-.066-.014l-.6.13c-.032.01-.057.035-.062.07l-.01.095c-1.92-.477-3.523-.89-3.993-1.054l-.022-.54h-.068c0-.027-.028-.048-.058-.045l-1.568.133-1.106-.057v-.05c.026 0 .052-.02.054-.046 0-.014.04-.31-.14-.457-.116-.094-.292-.102-.52-.02-.674.236-4.04.957-4.076.964-.016 0-.028.01-.036.024 0 .01-.154.266-.1.898-.076.052-.146.123-.207.22 0 0-.703-.545-1.15.233 0 0-.195.49-.117 1.086l-1.362.215s-.26.173-.378.83l-1.26 6.687-.274.064-.01-.197-.067-.038-.015-.307-.13.01.01.306-.116.072.01.24-1.262.384-.134-.022-.01-.107.133-.018.01-.108-.308-.025.01.107.068.05-.06.107-.17.14s-5.453.85-5.895 1.136c0 0-.387.17-.043.41.018.015.04.03.062.042.45.26.352.158.386.33l-1.278.013s-.556-.59-.566.17l.04 1.023-.613-.053-.15.483-4.065-.09c-.077-.327-.218-.684-.435-.11l-.86-.15.473-.486-.614-.068-.01-.184-.364-.026-.02-2.106s.062-.774-.847-.832c-.906-.053-3.932-.103-3.932-.103s-.463.075-.1.484l-.59-.057.48-4.6-.78-.117-.033.278-.482.02c-.03 0-.052.027-.052.054l.024.533c0 .013 0 .023.013.032l.36.485-.404 3.314-1.468-.02s-.247.14.017.423c0 0 .127.18.055.638l-.565-.11-1.898.493-.023-.534-.183-.245h-.124l.056-1.23s.018-.076-.036-.138c-.05-.057-.137-.082-.26-.068-.046 0-.086.01-.122.01-.218.01-.275.047-.29.373 0 .023.015.038.033.046 0 0 0 .01-.01.01 0 0-.383.074-.085.215l.07 1.037s-.423.35 0 .453l-.022.082s-.252-.018-.15.204l-1.243.288c-.01-.124-.01-.247 0-.367.01-.077.024-.157.04-.24.03-.16.062-.322.04-.488.012 0 .02 0 .027.01.036 0 .066-.01.092-.036.04.02.09.023.135.013h.043c.01 0 .024 0 .033-.01.023.015.05.022.076.02h.022c.02.014.04.023.062.024.04.01.078-.014.102-.05.03-.057.017-.13-.036-.176-.036-.028-.078-.038-.114-.028-.01-.018-.016-.035-.027-.047-.016-.02-.044-.024-.068-.01-.02.01-.033.028-.045.048h-.01c-.046-.018-.092-.01-.118.024-.01.01-.014.014-.015.023-.01-.01-.024-.02-.04-.03h-.027c-.024-.01-.053-.01-.08 0h-.03c-.01-.025-.026-.046-.055-.043-.054 0-.092.03-.114.06-.034 0-.065.015-.09.042-.014-.02-.033-.04-.056-.045-.027-.01-.06 0-.077.024-.016.02-.025.04-.025.06 0-.01-.01-.022-.017-.03-.017-.022-.043-.026-.065-.015-.023.01-.037.018-.048.03-.036 0-.065.014-.086.034l-.45-5.29s-.082-.943.484-1.152l.257-.89-.334-.332-.53.01c-.056-.15-.19-.43-.366-.426h-.01c-.16.01-.282.25-.385.74l-.54.257-.064.63c-.044.017-.09.037-.133.072-.013.01-.02.032-.015.052 0 .02.017.033.035.04.04.012.082.028.124.05h.01l.09.702c-.092.02-.193.057-.205.062-.076.042-.137.106-.194.17-.02.017-.03.034-.047.05-.02.018-.02.043-.01.062.012.02.03.03.05.03h.01c.058-.015.116-.04.17-.066.05-.02.097-.042.144-.055l.042-.01c.02-.01.042-.014.067-.02l.056.45-.03.17c-.11.057-.214.127-.317.196l-.12.083c-.025.014-.034.043-.02.07.01.017.03.03.05.026h.016c.042-.017.094-.017.15-.017.034 0 .07 0 .098-.01.033 0 .06-.01.084-.02l-.108.628c-.036.013-.08.022-.12.03-.105.026-.214.05-.287.12-.014.01-.02.027-.017.042 0 .017.01.033.024.04.044.028.1.037.16.035.068 0 .14-.023.2-.05l-.105.61c-.035.01-.07.023-.095.04-.044.028-.08.067-.114.103-.026.025-.05.05-.078.072-.022.015-.044.027-.062.038-.024.015-.032.043-.02.07.01.02.028.03.05.027h.017c.03-.013.053-.026.075-.04.06-.033.125-.063.187-.083l-.107.617c-.12.035-.274.1-.328.206-.013.026 0 .057.022.07.06.034.157.067.248.065l-.128.733c-.145.038-.316.112-.375.178-.016.015-.02.04-.01.058.01.02.024.032.046.032l.075.01c.064 0 .135.01.205 0h.01l-.097.57c-.07.028-.15.042-.228.058-.06.013-.122.025-.173.04-.023.01-.037.022-.038.044 0 .02.01.042.025.052.08.048.17.054.26.048h.112l-.08.464c-.124.02-.256.086-.35.133-.014.01-.024.018-.028.03v.016c0 .01-.01.017-.01.025-.01.017 0 .033.01.047.01.015.025.023.042.023.043 0 .09.01.135.01.054 0 .106.01.157.01l-.103.588c-.023 0-.048.01-.075.01-.146.023-.33.045-.358.2 0 .015 0 .03.01.044.01.01.024.02.04.02l.093.002c.058 0 .118.01.18 0h.063l-.08.453c-.1.036-.173.07-.202.12-.04.067-.027.14.037.2.025.026.06.046.097.06l-.034.2-2.018-.038.413-.046-.076-.184-.75-.128-.086-.143-.44-.024.01.145-.56-.04v-.032c0-.057.01-.11.015-.166 0-.028-.015-.055-.043-.058h-.036l-.01-.01c.094.01.195-.01.282-.08 0 0 .118-.06-.11-.117-.044-.01-.094-.02-.15-.025l.047-.42c.01 0 .017.01.025.01l.25-.01c.023 0 .043-.02.048-.043l.104-.48c0-.014 0-.03-.01-.042l-.87-1.047.076-.766c.01-.01.02-.01.032-.013.02 0 .04-.016.046-.035.01-.028-.015-.058-.04-.066h-.023-.01l.214-2.185s.013-.01.02-.01c.01-.012.018-.026.018-.04 0-.038-.01-.068-.024-.092l.113-1.156.464-.415c.013-.01.02-.027.017-.04l-.023-.62c0-.027-.02-.05-.045-.053l-.43-.06.015-.156-.802-.1-.748 6.784s-.46-.205-.512.142c0 0-.224.408.272.468l.022.24-.145.563c-.67-.076-1.056-.105-1.282-.112l-.663-5.214.333-1.345-.03-.747-.508-.024c-.027-.198-.103-.528-.285-.56-.15-.025-.31.14-.497.523l-.38-.016-.372.334v.094l.15.072.092.61.242.07.044.28c-.142.197-.334.515-.232.676.042.066.12.095.237.09h.05l-.027.17c-.062.01-.12.028-.164.042-.078.026-.116.076-.15.117-.027.037-.047.066-.09.08-.02.01-.03.03-.032.05 0 .022.014.04.032.05.024.01.06.013.103.01.074-.002.17-.022.253-.045l-.076.476c-.066.028-.127.07-.185.11-.05.037-.095.072-.133.084-.028.01-.042.038-.036.064.01.025.03.04.054.04h.01l.042-.01c.06-.014.11-.023.166-.025h.042l-.078.484c-.078.032-.17.096-.27.178-.036.03-.072.057-.1.075-.02.014-.03.044-.016.067.01.022.03.032.048.032h.016c.058-.022.113-.028.17-.03.035 0 .07-.01.105-.015l-.072.453c-.072.034-.148.07-.214.11-.093.05-.183.117-.295.213-.015.015-.022.035-.017.056.01.02.023.033.043.036.048.01.11.013.182.01.08 0 .166-.016.243-.04l-.07.424c-.06.04-.125.078-.193.112-.083.043-.17.087-.256.153-.023.016-.027.047-.013.072.013.018.03.025.047.025.01 0 .017 0 .026-.01.048-.03.132-.048.22-.07.044-.01.09-.018.13-.028l-.093.598c-.032.013-.065.025-.09.038-.04.02-.078.044-.114.07-.05.033-.1.067-.15.08-.025.01-.04.032-.04.057 0 .026.022.046.048.047.035.01.086.01.14.01.05 0 .106-.01.16-.02l-.018.11-.848.076-.23.68-3.84-.223v-.077l-4.618-.182-.312.197-.01-.17-.616-.083.06-.506.38-.136.112-.524-.605-.07.75-7.078-.83-.086-.038.362-.524.023c-.024 0-.047.024-.05.05-.01.17-.023.444-.03.503v.02c0 .025.02.045.04.052.042.052.15.208.24.356l-.467 4.487c-.017.01-.034.016-.047.027-.01.01-.017.024-.017.037 0 .016 0 .032.016.04.01.012.02.022.032.03l-.108 1.014c-.087 0-.183.01-.26.087l-.072.524s.166.14.355.185l-.056.268-1.667-.066s-.092-.26-.35-.456c-.232-.202-.537-.32-.868-.306-.554.024-1.007.4-1.15.907h-.013l-1.06.12c-.018-.01-.03-.02-.055-.028-.284-.095-.958-.306-.958-.306l-.025-.56s.096-.257-.194-.218c-.292.04-1.29.147-1.29.147s-.4.215-.094.524l-.268-.016-.19-.445-.265.02-2.227-2.598-.054-.513h.025c.023 0 .044-.01.062-.023 0 0 .01 0 .014-.01.017 0 .03-.018.034-.037 0 0 0-.01.01-.014.01-.04 0-.08-.026-.112v-.01-.035c.01-.016.01-.032.014-.052 0-.03 0-.063-.01-.095 0-.027-.01-.06-.018-.095.022 0 .043 0 .066-.01.056-.01.113-.016.168-.02.027 0 .048-.025.048-.052 0-.026-.016-.05-.042-.055-.08-.015-.172.01-.26.03 0-.037 0-.072-.01-.106.014-.07-.002-.154-.046-.205-.032-.038-.075-.05-.117-.044l-.074-1.807c.212.014.413-.02.306-.213-.202-.367-.278-.628-.278-.628s-.06-.147-.374 0c-.315.146-.487.18-.454.31l-2.967 1.083.213-2.608s-.268-.335-.882-.057l-.315 3.038-6.77 2.49-.06.51-.173.02-.018-.452-1.693-.01.01.266-.225.023-1.41-.61s.1-.483-.865-.362l-1.9-.8s-.167-.54.56-.69c0 0 .205-.183-.05-.185l-.28.01.005-.238s.368-.15.25-.397l.014-.626.55-.556-.337-.066s-.16-.327-.517.088l-.46.458.05-.8.15-.154-.227-.066.068-1.202-.002-.013v-.01l-.006-.01c-.002 0-.002-.01-.005-.01h-.01c-.005 0-.013-.01-.018-.01h-.01l-1.454-.087.13-6.283 1.026-20.432c0-.014-.005-.028-.015-.036l.042-.042-.06-.116-2.96-.26-.114-.99 1.557-.902.16.01h.003c.01 0 .02-.003.027-.007l.433-.27c.017-.006.026-.025.024-.044l-.048-1.193c0-.007-.003-.014-.005-.022l-.235-.508c.213-.052.54-.24.484-.897-.036-.425-.293-.633-.523-.735l-.708-5.97.277-.91-.283-.518 1.893-7.743.023.004s.328-.094-.007-.186c-.035-.01-.11-.022-.21-.038 0-.02 0-.04-.018-.05l-1.646-1.235.22-.033s.52-.276.496-.57c-.02-.24-.318-.322-.577-.338l-1.87-1.77c.012-.027.012-.057 0-.082.03-.045.052-.098.06-.145l.014-.01c.017-.02.027-.038.035-.058.046-.03.088-.078.106-.146v-.018c0-.006.002-.015 0-.022-.005-.025-.026-.043-.052-.043v-.01c0-.02-.01-.037-.026-.047-.004 0-.006-.002-.007-.004l.002-.033c.043-.065.03-.167.022-.232v-.026c-.006-.02-.015-.036-.034-.044-.018-.007-.037-.006-.054.006-.01.01-.024.02-.033.034h-.017c-.026.002-.085.017-.105.125-.008.05.008.12.05.162v.035c-.042-.005-.088.002-.136.042-.01.007-.016.018-.017.03-.022.11.03.18.098.21-.007.025-.017.05-.025.076-.004.017 0 .034.01.048l.002.002c-.027-.007-.057-.015-.095-.017-.016 0-.03 0-.047-.004l.062-2.593c0-.03-.02-.054-.052-.054-.036 0-.054.024-.054.052l-.062 2.593c-.103.004-.146.032-.155.078l-4.123-.46-.076-.295s.447-.203.053-.36l.01-.347s.446-.218-.038-.358c-.486-.14-.592.197-.36.294l-.028.307s-.254.33.002.374l-.11.325-1.402-.155.006-.15-.256-.067-.128.05c.002 0 .006-.004.006-.007.017-.042.033-.12.033-.2.024-.003.047-.008.066-.016.022-.01.04-.02.06-.036.013-.015.022-.032.023-.052 0-.006.004-.014.004-.023 0-.055-.006-.074-.04-.116-.017-.018-.04-.03-.063-.03l-.06.003c-.05.004-.12.008-.155-.006-.033-.012-.074 0-.094.032-.006.012-.012.025-.012.04-.015.01-.03.02-.04.034-.02.02-.027.044-.023.07.006.025.022.047.046.057.034.015.08.03.13.038 0 .05-.007.107-.023.142-.015.04.005.087.045.105h.006l-.002.002-.023.44h.02l-.224.414-.065-.007c0-.066.002-.155.014-.28.008-.08.01-.138 0-.182l.007-.04c-.002-.008-.006-.013-.006-.02.01-.01.018-.022.022-.038.04-.218.114-.628-.09-.858-.078-.087-.16-.117-.236-.146-.033-.01-.07-.025-.104-.046-.032-.017-.057-.04-.082-.06-.07-.053-.15-.117-.295-.09-.012-.078-.068-.1-.085-.105-.038-.01-.08-.002-.115.02l.006-.07c.01-.06.017-.125.01-.18.005-.005.01-.01.018-.015.095-.023.187-.044.27-.037 0 0 .002 0 .002.002 0 .04.02.072.056.084.028.01.063 0 .082-.022l.002.028c.01.044.05.073.094.067.044-.008.073-.05.066-.093-.014-.085-.007-.186.007-.284.005-.016.006-.033.01-.05.014-.072.03-.145.04-.216.004-.037-.016-.072-.053-.086.005-.016.01-.032.018-.047.012-.04-.006-.087-.047-.102-.042-.015-.088.007-.104.047-.033.09-.052.208-.06.327-.017.04-.027.08-.037.12-.035.038-.09.063-.148.06h-.012c-.012.003-.024.005-.036.012-.058.007-.116.02-.172.034-.084-.017-.168-.034-.256-.005-.04.014-.06.052-.053.092l.002.015-.003.012c-.005.036.017.074.052.085.033.01.066.017.1.017 0 .038-.005.084-.01.12-.012.105-.024.215.03.3.006.01.015.018.025.024-.054.068-.1.136-.14.214-.038.037-.058.09-.068.114-.005.016-.005.034-.002.05-.002.03.01.063.038.08.1.06.162.03.19.007.022-.007.038-.02.054-.034.012 0 .022-.003.027-.003.02 0 .06.012.102.026.015.018.035.032.055.036h.007c.015.012.032.016.048.015.006 0 .012 0 .018-.002.032 0 .062-.023.074-.057v-.018c.005-.007.01-.014.012-.022.005-.023.01-.05 0-.08-.01-.042-.04-.075-.08-.088-.01-.002-.017-.004-.025-.004-.034-.013-.064 0-.087.022-.01.006-.022.013-.03.024 0 .002-.003.002-.003.004-.03-.01-.06-.015-.083-.015-.004-.002-.01-.002-.01 0-.002-.003-.003-.006-.006-.008-.015-.016-.032-.026-.052-.032v-.007c.035-.057.073-.11.12-.162.004.003.013.003.02.003.037-.002.064-.028.086-.07.017.01.034.015.053.01.08-.013.11.012.172.06.03.026.064.052.104.075.043.024.086.04.13.057.065.024.12.044.167.1.13.145.105.422.072.62-.038-.018-.095-.03-.18.007-.1.026-.202.094-.24.174-.04.085-.017.177.065.242.076.06.183.058.28-.007h.029c-.008.104-.013.194-.013.272-.01-.024-.03-.04-.05-.047-.023-.005-.05 0-.07.014-.008.005-.016.013-.024.023-.002 0-.006 0-.01.005-.044.024-.07.07-.077.126-.024.03-.024.07 0 .1 0 .003 0 .005.004.005v.032c.002.037.017.075.04.107h-.02l.016.36.2.03-.008.127c-.125.015-.274.142-.31.247-.023.068-.023.12.002.165.033.065.11.083.177.102.04.01.07.017.092.028l-.166 2.218s.068.345.363.08l1.274.147-8.004 13.943.286-3.032c.002-.03-.02-.055-.05-.057-.027-.006-.052.016-.056.046l-.308 3.265-3.17 5.528.318-3.55c.002-.03-.02-.055-.05-.06-.027-.003-.053.02-.056.05l-.342 3.78-6.943 12.1-3.535-.075-.88-.02c.01-.058.008-.125-.013-.175l.227-4.573c0-.03-.023-.055-.05-.057-.033 0-.054.022-.056.05l-.224 4.5c-.015 0-.025-.006-.04-.004-.016.002-.032.016-.04.032-.003.005-.003.01-.006.013-.015-.007-.03-.007-.045 0-.05.028-.105.107-.15.205l-.14-.004v-.034c0-.03-.02-.055-.05-.056-.036-.002-.056.023-.056.052v.044c-.01.004-.018.01-.023.022l-1.04 1.837-1.74-.058.04-.957s.533-.312.102-.414v-.334s.22-.16.226-.3c.033 0 .07 0 .115.006.098.01.198.02.282-.022.1-.054.158-.152.166-.276.01-.147-.06-.302-.168-.378-.048-.034-.105-.05-.16-.066.026-.166-.15-.324-.24-.395 0-.026-.02-.06-.08-.094v-.6s-.172-.272-.498-.085c0 0-.342.122-.11.246l.01.29s-.282.373-.056.443l-.002.345s-.307.267-.052.377l-.33 5.6-1.248 2.316s-.277.37.216.443l2.18.165.207.84-.43.004c-.017 0-.032.01-.045.022l-.134.203c-.01-.002-.024-.006-.036-.002-.027.007-.04.038-.033.066l.007.028-.13.2c-.014-.01-.03-.02-.05-.014-.027.007-.043.037-.035.067l.02.05-.493.743h-.006c-.026.01-.04.034-.034.06l-1.06 1.603c-.01.016-.01.034-.002.054.005.015.02.028.04.03l.037.01.33 1.048-.073.11c-.01.017-.01.035-.005.054.01.018.028.028.05.028h.086l.257.83.108.345-.158.233-.007.772.454-.018.96.36.86.725c-.86-.057-2.378-.143-3.527-.136-.007 0-.017-.01-.026-.01-.006 0-.018 0-.026.012-.487 0-.9.026-1.166.073h-.004c-.006 0-.007 0-.014.01-.13.024-.224.055-.266.097-.015.014-.022.034-.015.053.006.023.024.036.044.038.02 0 .093.01.205.02l.052 1.26-.85.015-.192.262-.132.02s.07-.204-.153-.168c0 0 .188-.263-.183-.512l-.486-.5s-.973-.04-.65.32l.204.205-.396.4s-.705-.33-.875.05c0 0-.612-.64-1.12-.058 0 0-.69-.2-1.097-.062 0 0-.446-.782-1.177-.152l-6.62-.594s-.57-.91-1.22-.178l-2.662-.25s-.387-.563-.92-.395c-.152-.24-.406-.467-.786-.48-.46-.018-3.742-.077-5.764-.113-.018-.015-.035-.032-.055-.05-.002-.02-.002-.04.006-.064.016-.052.13-.023.103-.15-.028-.125-.266-.06-.33-.19.108-.05.28-.024.31-.17.044-.212-.18-.127-.23-.256.086-.09.2 0 .274-.104.118-.166-.093-.128-.162-.164-.137-.076-.11-.033-.11-.213 0-.114.023-.207.042-.32.087.017.31.04.364-.06.068-.123-.1-.247-.192-.27-.02-.11-.025-.222.08-.282.112.07.306-.06.4-.13-.174-.105-.495.06-.623-.11-.098-.127-.03-.51-.025-.668.002-.29.062-.578.066-.868.008-.4.073-.778.073-1.135-.02.157-.048.294-.178.395-.198.15-.198.12-.2.405-.006.398-.072.797-.06 1.192.005.21.034.528-.046.757l-.534.02c-.042-.1-.074-.2-.098-.302l.244.03h.006c.027 0 .05-.024.05-.05.005-.028-.016-.055-.045-.058l-.283-.034c-.08-.453-.023-.922-.002-1.408.01-.22.006-.43.04-.642.026-.144.127-.41.084-.564-.01-.04.004-.053-.035-.1-.165.1-.078.215-.154.35-.05.095-.166.136-.218.26-.104.247-.085.542-.073.8.012.152-.006.296-.023.44h-.135c-.03 0-.052.026-.052.056.002.03.027.053.057.052h.114c-.013.087-.024.178-.033.272-.03 0-.06-.01-.086-.015-.027-.01-.06 0-.068.033-.01.026.003.056.032.067.038.01.075.017.114.02-.014.24-.035.51-.328.456-.078.068-.372.135-.224.283-.056.01-.11.03-.148.068-.09.085-.097.264-.1.395 0 .027-.002.055-.005.077-.005.08-.013.16-.023.243-.01.1-.023.207-.03.31l-2.01-1.28.133-2.236-2.33-.01s-.175.31.016.41l.213.002c-.096.08-.26.18-.363.218-.075-.112-.197-.22-.388-.317 0 0 .024-.262-.248-.29l.002-.01c.017-.05.034-.1.043-.153.03-.185-.076-.22-.202-.26l-.052-.017c-.18-.06-.327-.062-.488-.064-.076 0-.155-.002-.242-.012-.013 0-.027.003-.038.013-.01.012-.018.023-.018.037-.004.042-.002.088 0 .133.002.05.005.1 0 .15-.075.008-.153.076-.217.267 0 0-.63 0-.628 1.025l-.863.33-.014-.308-.918.024s-.485-.765-.883-.042c0 0 .67.745 1.54.817 0 0-.346.32.22.23 0 0 .544.146 1.112.205l-1.43 4.795c-.703-.02-1.394-.03-2.02-.03h-.006c-1.256 0-2.216.06-2.367.215-.003 0-.006.01-.012.015 0 0-.006.01-.01.01h.003c-.002 0-.005.01-.005.01l-.112 1.087c-.06.02-.096.043-.107.072-.01.03-.01.076.06.12.006 0 .015.01.024.014l-.222 2.14"/></svg>