<svg xmlns="http://www.w3.org/2000/svg" width="300" height="150" viewBox="0 0 300 150"><path d="M219.498 114.763s-.184.64-.734.64l-.72.05-.686.043s-.765-.03-.765-.98c0 0-.06-1.282 1.01-1.252l.442-.013.72-.017s.703.03.733.702v.827zm-38.89-3.178c-.222 0-.43.01-.6.02-.065 0-.13.01-.197.02h-.022l-.136-9.064h.158l.797-.017 1.193-.023c.277.816.62 1.432.62 1.432l.077 7.616s-1.05 0-1.89.02zm-.963-9.553v-.035l-.01-.03-.07-.224c.08-.134.162-.28.245-.44.024-.05.05-.096.075-.147l.408-.674c.1.18.207.326.314.438.446.46.895.39.895.39.035.243.087.483.15.716l-1.045.022-.796.017h-.165v-.036zm-.2-1.104c-.028.05-.053.103-.08.15l-.15-.495-.058-.187-.177.01h-.015l-.276.013v-.803c.1-.01.198-.02.29-.034.396-.067.694-.194.832-.26.054-.028.084-.046.084-.046.045.24.1.453.16.64l-.243.404-.358.59-.01.015zm-.466 10.907h-.012l-.078-2.705h.365l.04 2.604c-.11.03-.217.065-.318.1zm-.27-9.11c.063-.04.128-.087.195-.146h.252l.09 6.06h-.37l-.17-5.916zm-.023-.765v-1.04l.107-.01.184.6.044.146c-.015.02-.03.04-.044.062-.102.14-.2.25-.29.33v-.09zm-.4 10.18h-1.453l-.064-1.757.08-.102.52-.666.055-.07v-.388l.447-.01h.277l.25-.01.082 2.903c-.12.057-.192.095-.192.095zm-1.56-2.972h.198v.21l-.185.24-.015-.447zm-.25-6.893l.372-.013h.01l.06 6.407H176.71l-.234-6.4zm-1.354 9.865h-.045l-.124-1.183h.17l1.1-.02h.072l.044 1.208h-1.217zm-.353-2.943h.353l1.108-.017.04 1.044-.173.22-.974.02h-.22l-.133-1.265zm-.276 2.943h-.064l-.023-1.172h.05l.036.353.085.82h-.085zm-.092-1.668v-.066.066zm-.065-3.4h.157l.63-.024 1.028-.035.06 1.67-1.09.02-.628.01h-.126l-.03-1.636zm-.035-1.947h.192l.63-.023.958-.034.053 1.45-1.012.038-.63.025H174.33l-.03-1.452zm-.035-1.993c.044.01.09.014.136.02.03 0 .06.01.092.01h1.519l.05 1.398-.94.035-.63.024h-.2l-.026-1.497zm-.015-.782h.242l.63-.023.857-.03.016.377h-1.454l-.047-.01c-.032 0-.062-.01-.092-.01-.05-.01-.097-.015-.145-.02v-.28zm-.45-.478h-.054v.243l.01.422-.037-.01c-.036-.01-.073-.018-.11-.03l-.087-1.328.198-.01h.08l.6-.03.092-.01.63-.03 1.725-.085v.01l.01.748h-.01l-1.726.06-.628.022h-.092l-.41.015-.19.01zm0 3.27l.01.41-.013-.203-.015-.207h.014zm-.046-.494l-.108-1.63.076.017.046.01.03 1.602h-.043zm.046 7.492h-.875l.03-.043c.24-.37.536-.845.767-1.287.028-.05.053-.1.08-.152.035-.075.07-.148.1-.218l.032 1.7h-.133zm-.53-14.82l.45-.01h.08l.6-.013h.093l.63-.01 1.472-.026c.07.24.147.454.223.64l.025 2.613-1.72.085-.63.03-.092.01-.6.028h-.08l-.23.01-.22-3.357zm-.11-1.67l.56-.018.08-.004.6-.023h.093l.63-.024 1.212-.042c.01.453.063.864.14 1.23l-1.353.024-.63.01h-.09l-.602.01-.08.003-.483.01-.078-1.175zm4.708 3.824c.11.092.203.14.277.16.016.01.03.01.045.013v.802h-.045l-.277.014-.53.025-.016-1.657c.216.323.397.522.545.642zm.33 2.777c-.017 0-.035-.01-.053-.01-.02-.01-.037-.015-.054-.022h.107v.034zm-.848-.5l-.01-.764.524-.025.278-.013h.045v.775h-.046l-.278.012-.517.018zm1.03 6.897h-.512l-.453.01-.06-6.42h.054c.088.15.243.37.46.504.082.053.175.092.277.11.024 0 .047.01.072.01l.162 5.785zm-11.762 3.493h-.185c-.175-.263-.457-.662-.824-1.166l-.308-.42-.01-.79V109.722s-.064-.394-.27-.85l.53-.4.062.083c.406.54.647.857.652.862l.024.032.03.02c.002 0 .315.198.315 1.37 0 .528 0 .965-.01 1.3zm-1.01 0h-.124l-.167-.223-.01-.595c.11.147.21.28.3.404.118.16.22.302.3.414h-.3zm-1.01 0h-.245l-.433-.576-.328-.435-.33-.44-.237-.316.237-.178.09-.068.24.322.328.435.677.9.225.3v.055h-.226zm-1.872-2.162l-.167-.223-.49-.653.328-.24.163.217.366.484.128.17-.128.094-.198.15zm-.957-1.274l-.12-.162-.678-.9-.9-1.2-.23-.303.23-.174.093-.07.214.285.59.786 1.022 1.356.108.144-.108.08-.22.157zm-2.227-2.96l-.144-.193-.467-.62.315-.254.15.202.352.467.116.154-.116.086-.207.156zm-.91-1.212l-.16-.214-.662-.88-.653-.87c-.267-.26-.4-.45-.465-.584-.01-.014-.014-.027-.02-.04l.02-.014.31-.235 1.47 1.953.4.532.077.1-.078.062-.238.19zm-1.94 2.86l-.52.01-.597.01-.033-1.23h1.226l.03 1.215h-.11zm.01-6.094l-.01.01-.014.01v-.047l.013.014.01.017zm-1.978-3.326c-.747-.788-1.628-.75-1.628-.75l-1.68-.006-.048-.85 2.444-.026c.257.332 1.156 1.49 2.358 3.048l.52.673.608.788-.2.152-.408-.54-.22-.294c-.083-.203-.185-.394-.3-.574-.432-.676-1.045-1.195-1.447-1.62zm-3.467-3.58l2.6-.066c.257.36 1.152 1.607 2.314 3.22l.52.72c.358.5.734 1.02 1.12 1.555l.298.414-.416.314-1.002-1.3-.52-.67c-1.213-1.572-2.03-2.625-2.04-2.637l-.075-.096h-.124l-2.592.028-.082-1.48zm-2.318 2.817l-1.97-.007-.01-.79 1.98-.02 1.934-.02.047.844-1.98-.007zm-1.99-1.353c.69-.386-.134-.5-.134-.5.087-.32.117-.612.12-.856l2.004-.05 1.822-.046.083 1.472-1.905.02-1.987.02-.002-.06zm9.038-.36c.04.074.104.174.184.297.13.2.305.455.52.76.304.435.685.963 1.12 1.56.208.29.43.59.66.906l.4.543.045.06-.045.034-.367.278-.03-.043-.663-.918c-.39-.54-.767-1.062-1.12-1.554l-.52-.722-1.69-2.35c.423.077 1.047.338 1.506 1.148zm3.41 4.78l.353.474.322.434.307.413c.196.262.392.53.592.795l.677.906.343.456.065.09-.065.047-.344.263-.058.04c-.202-.276-.41-.56-.62-.85l-.593-.816-.308-.425-.32-.445-.353-.484-.528-.73-.077-.104.077-.06.34-.255.187.252zm5.002 9.064l.2-.15.014-.013c.12.293.17.542.184.613v.083l-.198-.267-.2-.266zm-.478.36l.107-.08c.2.263.39.515.57.75l.208.28.01.6-.217-.29-.676-.9-.172-.23.172-.13zm-.328-1.433l-.135-.178.134-.1.125-.09c.077.1.144.188.202.258.085.11.147.18.182.217.108.11.202.23.28.355l-.282.213-.18-.238-.328-.438zm-.668.21l.15-.11.188.246.33.434.136.176-.136.104-.144.107-.186-.246-.338-.448-.128-.17.128-.094zm-.364-1.572l-.57-.75-.343-.45-.452-.59.293-.223.16.218.343.47.57.773c.126.173.248.337.363.492l.338.453.155.208-.156.112-.103.075-.234-.308-.364-.48zm-1.75-1.498l.16.21.677.883.343.448.57.745.214.28-.215.157-.06.043-.51-.675-.343-.456-1.09-1.445.25-.19zm-.433-1.364l-.13-.17.13-.103.184-.148.408.56.226.31-.226.172-.076.057-.517-.677zm-.63.232l.118-.094.204.264.307.4.128.17-.13.096-.117.09-.188-.252-.32-.428-.117-.152.116-.093zm-.184-.487l-.167.13-.064.053-.464-.614-1.475-1.96.205-.156.21.27 1.06 1.378.527.684.166.216zm-.167-1.022l-.528-.685-.4-.52-.475-.618.405-.305.072.1.4.553.525.726.35.484.322.445.2.275-.2.16-.124.1-.197-.26-.35-.455zm3.162 1.75l.702.932.33.44.328.435.677.897.65.858-.468.354c-.056-.087-.116-.17-.183-.252-.046-.053-.094-.107-.145-.157-.07-.07-.256-.307-.533-.673-.1-.128-.208-.274-.328-.435l-.33-.443-.338-.456-.364-.496-.57-.776-.107-.15.108-.082.362-.272.207.274zm-19.978-28.2l.008-.007.014-.013h.124l.006.926-.143-.002h-.008s-.306-.594 0-.904zm-.268 2.348l-.864.03-.286.01.176-.32.11.002.99.018-.126.26zm-.62 1.27l-.244-.177-.62-.448.056-.1.564-.02.618-.022-.375.765zm-3.08-22.735l.602-.02.602-.016-1.068 5.092-.135-5.057zm-.173-6.558l.775-.013.602-.013 1.376-.024-1.084 5.177-.292.045-.03.004.08.97-.05.002-.602.017-.61.016-.165-6.184zm.026 23.26l-.442.004-1.13.01h-.472l-.034-1.353.507-.01 1.128-.02.288-.007c.155.453.203.955.153 1.375zm-.385.86c-.02.013-.04.028-.057.046-.253.226-.34.648-.365 1.074l-.764.014-.425.007-.036-1.49.46-.003 1.128-.01.32-.003c-.066.157-.153.284-.263.364zm-.522 2.626s-.273.05-.664.052c-.12 0-.25-.002-.386-.015l-.025-1.028.41-.006.755-.01c.003.186.01.36.01.496 0 .578-.102.513-.102.513zm-1.218-6.67l.554-.01.444-.01c.227.463.47.92.684 1.235.022.034.043.066.064.102l-.064.002-1.13.02-.52.013-.033-1.35zm-.173-6.882l.727-.02c.372-.01.75-.023 1.128-.032l.448-.015c-.014.088-.022.196-.027.3-.02.404-.16.38-.16.38s-.1-.012-.262.065c-.117.057-.265.162-.427.357-.38.46.083 2.948.083 2.948.076.576-.4.44-.4.44-.158-.013-.284-.007-.384.015-.537.12-.347.677-.347.677s.14.337.346.795c.063.144.134.3.21.462h-.21l-.567.014-.16-6.39zm-.16-6.293l-.006-.272h.006l.503-.012.167 6.192-.52.014-.15-5.922zm0 19.81c-.033-.01-.067-.017-.102-.026l-.025-.922.127-.002h.105l.025.974-.13-.025zm-.147-1.61l.147-.003.01-.002-.01-.47v-.025l-.148.004h-.014l-.023-.828h.037l.148-.002.054-.003.04 1.492-.094.002-.142.002-.005-.168zm-.09-3.165l.09-.003.147-.005h.007l.034 1.35h-.042l-.15.002h-.05l-.04-1.345zm-.006 23.982s-.143.15-.36.228c-.085.03-.182.048-.285.046-.113-.006-.235-.04-.36-.12-.062-.038-.124-.088-.186-.15l-.006-.004-.093-1.815h1.29v1.815zm-1.544-18.42c-.165.28-.26.51-.26.51l-.03-.958.29.003.238.003h.072c-.025.03-.05.06-.072.09-.09.117-.17.24-.238.355zm-.598 15.8c-.12-.14-.222-.36-.245-.7-.06-.916-.214-8.802-.214-8.802s.05-.716.458-.95c.046-.027.097-.047.153-.06l.307 10.762s-.255-.013-.46-.25zm-.55-43.202h.083l.468-.01.207-.005.176 6.234-.382.01-.35.008-.117-3.68-.08-2.557zm-.202-6.4l.285-.012.468-.015h.027l.17 6.04-.197.005-.467.01h-.093l-.19-6.028zm-.257 37.88l.006.107h-.007l-.365.006-.01-.57s-.058-.287.134-.537c.052-.07.138-.082.24-.062.133.022.29.104.413.177l.014.453h-.46l.032.427zm.38-2.038l.023.774-.404-.21-.375-.195.03-1.204c.115.044.233.145.344.27.15.176.285.398.38.564zm-.38-1.408c-.193-.203-.356-.32-.356-.32l.037-.766h.626l.045 1.556c-.107-.185-.234-.344-.35-.47zm-.68-2.166c-.24-.06-.548-.1-.908-.13-.194-.015-.404-.027-.625-.034-.093-.002-.188-.008-.287-.01-.174-.003-.354-.004-.54-.004-.102-.003-.208 0-.315 0l.24-.544.076-.003.54-.012.287-.006.625-.014 1.162-.025.425-.01.25-.006.042 1.38h-.597c-.02-.202-.067-.336-.122-.422-.11-.175-.255-.16-.255-.16zm-.207 18.56l-.7.01-.626.005-.287.005-.54.005c-.444.004-.85.007-1.088.007-.764 0-.825-.43-.825-.43l-.214-7.732c-.034-.336.52-.304.52-.304s.77-.01 1.608-.024l.54-.01.287-.007c.226-.005.44-.01.625-.016.087-.002.17-.002.243-.007.947-.03.824.64.824.64s.09 6.36.09 7.125c0 .765-.457.734-.457.734zm-2.152 14.98h-2.31v-2.568h2.63l.03 2.568h-.35zm-5.163-33.463c.048-.004.52-.062.72-.705l1.255-.027 1.974-.04-.247.548c-.565.018-1.15.048-1.728.085-.675.04-1.344.09-1.975.14zm-.167 9.346h-2.057l-1.996-.004h-3.352l.386-.754.808-1.57.737-.006 1.422-.015 1.996-.02 2.057-.02 1.666-.02.007 2.41h-1.674zm.857 8.838c-.046.385.076.676-.445.985 0 0-.192.058-.412.053-.097 0-.2-.017-.292-.053-.306-.123-.506-.323-.522-.51-.014-.183-.046-.66-.046-.66s-.075-.26.333-.25l.527-.005.657-.005s.247.06.2.444zm-1.843-2.573v-3.517c-.01-.464.388-.494.388-.494l.598.012h.428c.46 0 .383.34.383.34v3.647c0 .37-.337.34-.337.34l-.473.005c-.225 0-.48.003-.65.003-.366 0-.336-.334-.336-.334zm1.254 16.627h-1.375l-.06-1.406 1.167.026.268.01v1.375zm-3.975-13.654s-.143.012-.346.02c-.214.01-.5.02-.758.01-.507-.014-.568-.2-.568-.2l-1.93-7.506c-.025-.34.136-.46.29-.5.133-.035.26-.01.26-.01s.62-.01 1.283-.017c.507-.006 1.04-.01 1.34-.01h.082c.592.03.452.38.452.38s.168 6.833.198 7.34c.03.51-.305.493-.305.493zm-.61 14.512c-.03.67-.43.64-.43.64h-1.22c-.613 0-.643-.55-.643-.55l-.03-1.803c.03-.52.52-.52.52-.52s.226.02.645.026h.546c.765 0 .582.52.582.52s.06 1.01.03 1.682zm-2.702-14.516c-.022.002-.046.004-.074.004-.25 0-.92.008-1.5.016l-.417.006-.55.007s-.1.025-.23-.034c-.143-.068-.323-.237-.443-.657-.062-.214-.244-.83-.48-1.617-.645-2.157-1.68-5.6-1.68-5.6s-.03-.246.244-.185h3.326s.11-.023.23.056c.098.063.204.198.26.468.09.434.883 4.026 1.315 5.98l.28 1.252s.108.273-.28.304zm-2.746 6.044h-.023l-.924.017-3.8.08-2.716.056-.038-1.57c0-.46.23-.65.23-.65.073-.054.14-.107.206-.16l2.317-.02c.927-.01 1.84-.02 2.687-.025.304.3.687.52 1.114.63.193.047.396.074.604.074.108 0 .216-.01.32-.024.067-.01.133-.02.198-.033-.026.977-.174 1.624-.174 1.624zm-6.295-3.978l1.545.004 1.956.003c.008.44.133.852.345 1.206l-2.3.023-1.81.02c.433-.545.388-.98.264-1.255zm-1.22-1.86h5.53c-.392.353-.67.83-.77 1.372l-1.995-.006-1.875-.003c-.235-.347-.62-.36-.62-.36-.346-.252-.25-.943-.25-.943l-.02-.06zm6.566 1.87l.916.003.01.038c.08.396.13.778.162 1.14h-.163l-.924.01h-.184c-.397-.252-.666-.69-.682-1.192h.866zm0-1.39c.15-.068.31-.11.48-.125l.124.393c.074.21.138.422.194.63l-.798-.003-.798-.003c.128-.4.42-.723.798-.893zm0-11.387l.802-.86.123.004.778.007.417.008 1.098.014-1.098 2.167-.07.138h-.346l-.78-.002-.924-.003-1.368-.006 1.368-1.465zm1.702-8.38c.018-.004.04-.005.068-.007-.023.123-.047.248-.068.367l-.03.177-.005-.406-.002-.062-.03-.054s-.002-.007.068-.016zm.417 5.825c.2.41.37.6.37.603l-.37.006-.34.007-.03-1.65c.112.437.246.778.37 1.035zm3.282-5.67c.16-.08.266-.16.332-.235l.927-.02.312-.006v1.39h-.313l-1.224-.008c-.12-.636-.036-1.123-.036-1.123zm1.572 2.965l-.313.006-.463.006c-.147-.417-.298-.69-.298-.69-.146-.223-.25-.45-.33-.67l1.09.006.313.003v1.34zm-.59 2.304l.277.003.312.002v.92l-.313.006-.8.016c.265-.292.43-.614.522-.947zm-.036-1.798l.313-.007.312-.005v1.317h-.313l-.19-.003c.042-.458-.023-.912-.123-1.304zm1.12-3.744l1.19-.023.14-.006c.18.514.83.753.83.753h.007c-.354.034-.684.063-.977.093-.536.053-.95.097-1.19.12v-.937zm1.19 3.213l-1.19.014v-.592l1.19-.01 1.186-.012v.58l-1.187.02zm1.17 3.204l-1.17.02-1.19.02v-.907l1.19.01 1.168.01v.847zm-.003-1.453v.11l-1.167-.01-1.19-.007v-1.33l1.19-.018 1.187-.018v1.272h-.02zm.517-1.28l.373-.006 1.187-.017.03 1.207-1.217.055-.373.016V79.75zm0-1.073l.373-.004 1.16-.007.014.566-1.174.017-.373.004v-.576zm4.865-.224h.88l.086 3.45c-.046.008-.088.02-.127.037-.324.122-.417.44-.418.445l-.353.005-.068-3.937zm.84 5.164l.538.004h.287l.625.005h.263c.583 0 .567.524.567.524v1.03c0 .692-.502.765-.502.765h-1.24l-.54.002c-.687.004-1.37.01-1.624.013-.582.016-.643-.428-.643-.428l-.013-1.354c.015-.517.595-.57.595-.57l1.686.01zm.538-9.13l.287-.652.625-1.422 1.162-2.643.425-.96.043-.1v.065l.194 6.538-.238.005-.426.01-1.162.028-.625.012-.287.005-.395.012.395-.897zm-.54-3.834l-2.964-2.468 2.965-.033.54-.004.287-.004.625-.008.836-.01-.836 1.858-.615 1.364-.01-.008-.287-.24-.54-.45zm-3.482-3.027c-.095-.173-.554-.21-.554-.21l.018-2.252c.053-.02.1-.046.14-.075l.69.68 1.865 1.837-1.865.017-.294.002zm6.444-33.81l.077-.002.54-.015.2-.007.044 1.573c-.083.11-.17.253-.243.45-.04.114-.077.244-.105.393l.106.02.26.046.007-.038.033 1.148-.3.01-.505.014-.114-3.594zm-.348 30.59l-.35-.466.35-.006.323-.007.028.943-.35-.464zm0-2.712c.073-.114.155-.212.247-.287l.036 1.174h-.5v.372h.512l.018.602-.312.005-.515.01c.037-.402.16-1.322.514-1.877zm.425-30.29l.54-.01.132-.003.058 2.033-.19.005-.54.014-.09.003-.064-2.038.153-.002zm.98 10.9l-.44-.02-.35-.016-.087-2.78.438-.956.314-.684.125 4.457zm.028 1.034l.016.6h-.016l-.467.02-.296.006-.042-1.324.34.015.447.023.018.66zm.568 20.177l-.568.013-.143.004-.017-.58h.23v-.37h-.242l-.06-1.914c.106.018.19.028.23.026l-.01-.37c-.037.002-.12-.012-.234-.03l-.093-2.945.338-.01.393-.012.176 6.186zm.03-32.14l.238-.005.115-.002.184-.003.36-.005.285-.006.404-.006.01.422-.414.032h-.004v1.018h.004l.445.008.01.374.004.157h-.005l-.455.01-.284.008-.362.01-.185.004-.115.002-.238.006-.135.004-.056-2.024.19-.004zm1.688 3.658l-.05.003-.455.012-.285.01-.36.01-.186.005-.116.004-.238.006h-.087l-.038-1.308.124-.002.238-.006h.115l.184-.007.36-.008.285-.01.454-.01h.015l.034 1.304zm.062 2.277l-.112.004-.36.01-.05-1.905.41-.014h.06l.052 1.904zm.036 1.387l.14 5.157-.14.007-.148.005-.196.006-.027-1.094.077.006.017-.374-.103-.004-.118-4.71.352-.01.122-.003.026 1.016zm.316 11.61l-.316.005-.148.003h-.033l-.153-6.072.187-.006.148-.005.15-.004.166 6.08zm.57-18.98l.66-.012.054 1.997-.713.017-.66.018-.014-.514.25.004-.02-1.116-.26.02-.012-.403.714-.012zm.818 5.93l-.817.026-.553.017-.052-1.905h.01l-.01-.37h-.01l-.035-1.305.648-.018.723-.02.096 3.576zm-1.852 14.39l-.024-.96h.024l.148-.002.326-.006.168 6.206-.494.013h-.015l-.133-5.253zm-.144 19.084l.144-.002h.11l.034 1.348-.144.004h-.105l-.04-1.35zm-1.14 22.322l.184-.003.36-.006.285-.004.313-.003.03 1.14-.344.003-.285.005-.36.002-.186.003h-.052v-1.137h.05zm0-.403l.128-1.424h.056l.36.005.285.004.19.004.046 1.462-.237.002h-.285l-.36.004h-.192l.005-.056zm-.354-16.87l.238-.005.076-.003.04 1.406v.02h-.354l-.307-.002-.047-1.41.353-.007zm-.02-11.894l.32 11.39-.062.002-.238.006-.367.01-.363-11.39.13-.005.578-.013zm.92-26.55l-.362.01-.185.007h-.116l-.238.008-.023.002-.053-1.91.076-.002.238-.006.115-.004.184-.004.32-.01.04 1.644.01.264h-.01zm0 5.044l-.224-.01-.134-4.65.357-.013.017-.003.117 4.68-.135-.005zm0 1.51l-.18.006-.034-1.154.213.012.145.008.027 1.124-.172.006zm.283 6.434l-.28.006-.005-.226-.17-5.838.17-.006.18-.005.154 6.07h-.05zm0 6.593l-.088.003-.18-6.22h.267l.058-.002.157 6.215-.216.006zm.1 6.565l-.177-6.192h.076l.225-.01.156 6.195-.28.006zm.012.37l.28-.008.062 2.53.098 3.856-.098.003-.158.004-.183-6.385zm-.113 11.9h.083l.042 1.46c-.042-.014-.084-.018-.125-.022h-.087l-.04-1.434.126-.004zm-.06-5.015l.13 4.52-.07.002h-.142l-.126-4.52.207-.003zm-.225-6.873l.026-.003.185 6.382-.208.004-.002-.08-.176-6.3.175-.003zm-.36-6.558l.195-.005.18 6.19h-.014l-.188.005-.174-6.162v-.027zm-.186-6.596l.184-.002h.006l.18 6.223-.187.003h-.01l-.175-6.206v-.017zm-.116-6.426l.115-.004h.005l.175 6.055-.18.005h-.012l-.17-6.053.066-.003zm-.12-1.943l-.118-4.134-.01-.47h.01l.17-.007.133 4.622-.066-.004-.12-.007zm.12.38l.077.003.034 1.184-.11.005-.076.002-.034-1.2.11.006zm3.426 1.077l-.99.036-.375.01-.167-6.173.54-.018.83-.02.162 6.166zm.138 5.18l.034 1.3h-.034l-1.13.022h-.2l-.164-6.087.365-.01 1-.035.128 4.808zm0-17.67l.38-.006h.028l.022-.006.76-.226.602-.176 1.632-.48 1.14-.334.52-.155-.52.34-1.14.752-1.632 1.07-.6.396-1.192.782-.044.03-.053-1.983.098-.002zm-1.15 25.568l-.17-6.204h.19l1.13-.02.044-.003.164 6.19-.208.006-1.13.033h-.02zm.02.37l1.13-.03.218-.006.164 6.19-.382.01c-.326.01-.65.022-.974.03l-.167-6.194h.013zm7.224-27.54l.202-.132 1.157-.087.143-.01-.142.684-4.205 20.06-1.455.027-.6.01-.786.014-.15-5.644c-.01-.366.162-.53.51-.486l.425-.016.203-.004.04 1.026h.843l.025-1.058.148-.005-.012-.37-.126.004.024-1.032-.545.04-.452.036.04.988-.19.006-.957.032-.142-5.41c.242-.157.676-.51 1.1-.758l.062-.034.54-.017.846-.026c.25.062.585.14.785.3.062.05.11.106.14.173.19.44.477.017.516-.134.038-.158-.01-.38-.01-.38h-.002l.29-.01-.008 1.02.217-.003.682-.016-.008-1.025.043-.004-.01-.37h-.036l-.007-.943-.663.014-.2.005-.006.954-.934.026-1.632.05-.6.018-1.13.035-.096-3.575.034-.003.053-.002.044-.028 1.094-.718.602-.395 1.632-1.07 1.14-.752 1.53-1.003zM105.79 96.828l-2.055-.005h-1.453l.12-1.35h3.672c-.093.388-.19.854-.284 1.356zm-.312 1.778c-.634 0-1.224.01-1.743.013-.437.01-.824.01-1.147.01l-.046-.077c-.285-.453-.318-.935-.304-1.235l1.497.004 1.964.004c-.078.423-.153.857-.222 1.28zm-.44 2.885l-1.303.02h-.057c0-.272-.192-1.212-.44-1.252-.25-.037-.39-.176-.39-.482 0-.206.07-.36-.024-.657h.91c.498-.01 1.06-.01 1.664-.016-.21 1.315-.36 2.39-.36 2.39zm-.084 6.915v1.773c0 .49-.52.55-.52.55s-.323 0-.7.01c-.235 0-.493.012-.706.02-.55.033-.52-.518-.52-.518v-1.77c.06-.553.49-.553.49-.553s.3 0 .737.013c.182 0 .39.01.607.018.734.032.612.46.612.46zm-3.556-11.586c-1.024 0-1.5.307-1.602.382l-1.578.957-3.517 2.134.166-1.29.004-.033-.002-.026s-.056-.513.817-.936c.49-.232 1.555-.77 2.534-1.267 1.06-.536 2.02-1.026 2.025-1.03l.02-.008.006-.004c.002-.002.322-.227 1.202-.227h.186c.008.427.03.925.077 1.35h-.336zm.303 1.81h-.125c-.866-.02-1.478.344-1.57.4l-1.787 1.092-3.79 2.308.192-1.505 3.598-2.184 1.85-1.12.024-.015.013-.013s.315-.274 1.293-.274h.303v1.314zm0 .88l-.97 1.077c-.538.442-.52 1.308-.52 1.308 0 .673-.152.654-.152.654l-1.073.478s.345-.268-.23-.307c-.252-.016-.425.118-.537.272-.142.193-.19.42-.19.42l-1.034.695c-.076-.424-.594-.578-.594-.578-.727-.443-.842.404-.842.404l-.918.02h-.406l.114-.895 3.87-2.36 2.046-1.246.012-.01s.506-.34 1.29-.323h.135v.384zm-7.97 4.487c-.95.15-.814.61-.814.61-.044 0-.085 0-.124.01h-.013c.003-.034.006-.07.012-.105.022-.168.06-.365.11-.576.093-.38.23-.8.413-1.16.183-.364.408-.665.67-.793l-.256 2.01zm-.412 5.36h-1.054v-1.423c.02-.502.274-.72.528-.81.263-.097.526-.057.526-.057v2.29zm-4.536 3.815c-.152.89-.947.918-.947.918l-.617-.096-.688-.106-.07-.01c-.888-.276-.795-1.315-.795-1.315s-.154-.366.61-.825c.08-.05.167-.087.255-.11.22-.068.46-.074.688-.045.554.062 1.044.305 1.044.305.58.31.52 1.286.52 1.286zm-2.472-8.45l.22-.014.125-.01s-.096.404.192.617l-.307.287-.01-.01-.315-.393s.19-.08.095-.482zm-9.382 3.384c-.254.06-1.43.035-2.633-.014-1.423-.053-2.88-.14-2.88-.14l-.06-1.135.288-.037c1.01.374 1.898.484 2.652.453 1.89-.078 2.94-1.052 2.94-1.052-.25.562-.307 1.926-.307 1.926zm-8.865-.556s-.13.052-.346.063c-.103 0-.226 0-.363-.026 0 0-.05-.204.363-.682.094-.11.215-.236.365-.376l-.02 1.02zm-5.907 2.994c-.186.374-.358.572-.506.675-.284.2-.472.026-.472.026-.46-.304-.153-1.04-.153-1.04.183-.362.485-.676.625-.813.05-.045.078-.073.078-.073s.368-.398.582.153c.213.55-.154 1.07-.154 1.07zm68.876-73.086h-.03s-.192-1.336-.594-1.97c-.02-.026-.037-.054-.057-.08l.058-.003.624-.007h.14v-1.022h.45l.092 3.062-.682.02zm-.967-2.465l.02-.29.036-.002.288-.02.19-.016-.038.368-.152-.013-.287-.022-.055-.005zm.056-.755l.035-.447-.034.452-.034.45.035-.454zm.066-.848l.222-.026.248-.026-.058.443-.19-.016-.25-.017.028-.357zm.222-2.785c.145-1.796.28-3.398.323-3.922H131.033c.352.026.37.45.37.45l.207 6.83-.437-.012v-1.076l-.14-.01-.625-.05-.176-.012.176-2.198zm12.734 43.756l.98-.01.993-.007.054 1.417-1.048.017-.9.014-.005-.587h-.088l.012-.843zm.03-1.933l.95-.017.917-.02.054 1.46-.972.006-.973.01.02-1.44zm.027-1.827c.4-.008.72-.008.922-.008h.137c1.04.014.72.262.76 1.302l-.898.02-.943.018.02-1.333zm2.026 6.66l-1.104-.016-.89-.012-.006-.944.897-.015 1.065-.018.038 1.004zm27.73 25.01c-.04-.02-.082-.038-.12-.058l-.03-1.004.15-.01h.076l.075 1.136c-.052-.022-.102-.04-.15-.063zm-.262-4.92v-.022h.082l.18 2.733.043.643h-.044l-.164.01-.097-3.363zm-.05-1.68h.023l.028.423.05.74h-.065l-.034-1.16zm-.36 6.178c-.01-.01-.02-.018-.03-.026l-.016-.586h.075l.018.658c-.017-.014-.032-.03-.046-.04zm-.156-4.295l-.01-.214.01-.003h.07l.086 2.956.014.443h-.074l-.095-3.187zm-.055-1.862h.077l.034 1.152h-.077l-.034-1.15zm76.937 23.532c-.25-1.365-1.972-4.058-1.972-4.058-.383-.538-.862-.386-.862-.386s-.958-.922-1.436-1.268c-.48-.346-1.168 0-1.168 0l-1.475 1.06-2.585-4.463c.575-1.135-2.412-1.117-2.412-1.117l-.038-1.672c.383-.25.19-.867.19-.867-.44-.672-.86-.27-.86-.27-.612.484.02.83.02.83l.015 2.03c-5.306.526-11.945.975-18.38 1.336-12.32.695-23.884 1.078-23.884 1.078l.02-.722c.19-.01.314-.258.314-.258.192-.56-.536-.503-.536-.503-.726.213-.133.752-.133.752v.845l-2.68.05.02-1.088.86.017.02-.314-.87-.048-.038-.702-2.088.01v.894h-1.035l-.028-.846.908.01-.02-.373-.872.028v-.75l-1.38.04v-1.925c0-.903-.44-1.498-.44-1.498-.707-.77-.325-1.404-.325-1.404l.73-2.654c.44-1.29-.27-1.116-.27-1.116-.44 0-.42-.73-.42-.73 0-.636-.345-.54-.345-.54l-.53-.034c-.306-1.607-.306-3.71-.306-3.71l4.454 3.187c.058 1.173 1.053.866 1.053.866l1.726 1.42s.536.61 1.11.305c.574-.305-.153-.765-.153-.765s-3.176-2.143-2.22-1.912c.958.227 4.21 2.716 4.21 2.716l.69-1.645s-.306-.27-1.378-1.456c-1.072-1.188 1.186 1.147 1.99.113.803-1.033-.613-2.142-.613-2.142-1.11-1.53-4.096-3.672-4.096-3.672-.04-.92-1.148-1.073-1.148-1.073l-6.584-5.703-2.908.957s-.02-.382-.244-.748c-.15-.25-.398-.494-.796-.604-.144-.043-.307-.065-.492-.065-.128 0-.24.02-.34.063-1.016.405-.54 2.692-.54 2.692.46.65.23 2.297.23 2.297.023.2.138.406.31.616.215.263.517.52.832.754.274.204.557.385.796.533.362.22.627.356.627.356l.956 3.062c.268.728.077.994.077.994-.497 1.415-.957 4.477-.957 4.477-.65.115-.572-1.685-.572-1.685.685-.96.406-2.02-.13-3.53l-.062-.18c-.167-.47-.434-.803-.734-1.037-.266-.21-.556-.338-.832-.422-.322-.1-.622-.13-.833-.143-.107-.006-.19-.006-.243-.006h-.034c-.214-.01-.663-.07-1.02.235-.25.21-.455.598-.504 1.306l-1.223.043-.63.02-.09.004-.602.022-.08.003-.767.028-.26.01-.412.013-.155.01-.317.01-.246.01.01.243.19 6.47v.08l.052.066s.095.118.31.277c.047.033.1.07.156.107.114.073.25.15.41.227.083.038.17.077.262.115.06.025.12.046.186.07l.458 6.933c-.024.28-.32.838-.644 1.37-.087.143-.175.286-.26.418-.136.21-.26.402-.363.548h-5.217c.01-.337.015-.776.015-1.3 0-1.198-.368-1.63-.49-1.743-.08-.103-.46-.604-1.03-1.358-.29-.385-.633-.838-1.01-1.34l-.678-.898-.328-.434-.33-.44-.338-.45-.365-.484-.57-.76-.343-.458-.677-.908c-.2-.267-.398-.535-.592-.797l-.63-.848-.35-.473-.528-.717c-.135-.185-.27-.368-.398-.545-.235-.32-.457-.626-.663-.91-.478-.664-.865-1.21-1.12-1.59-.124-.187-.217-.333-.273-.433-.077-.136-.16-.26-.244-.374-.9-1.194-2.14-1.06-2.216-1.052l-5.017.13-2.034.052c-.017-.108-.033-.168-.033-.168-.294-.835-.848-1.116-1.393-1.163-.553-.047-1.098.15-1.36.26-.1.044-.157.075-.157.075l-.076-1.134c.097-.003.173-.013.235-.028.296-.076.244-.26.244-.26-.058-.346.057-.69.4-.827.21-.08.51-.127.714-.15.134-.018.226-.023.226-.023.69-.193.536-.48.536-.48-.294-1.267-.552-2.085-.762-2.65-.27-.72-.462-1.03-.56-1.332-.172-.537-.306-.365-.306-.365-.517.23-.277-.45-.277-.45.102-.87-.01-1.61-.215-2.226-.44-1.316-1.32-2.053-1.53-2.213-.028-.024-.045-.033-.045-.033l.046-.12.797-2.016.732-.012.513-.007c.387.048.667.012.846-.04.165-.044.244-.096.244-.096.23-.27.48 0 .48 0 .612.5.574-.232.574-.232.134-.806.804-1.846.804-1.846.498-.364.248-.44.248-.44s-.554-.154-1.11 0c-.3.083-.707.436-1.017.743l-.238-6.17h-.002c-.004-.16-.14-.493-1.2-.506l-.143-.002c-.203 0-.52.002-.915.006l.01-.71-.345.714-.28.005-.247.003.01-.065c.1-.13.178-.25.238-.362.275-.505.196-.856 0-1.1-.304-.373-.888-.48-.888-.48-.024-.352-.118-.617-.253-.816-.456-.668-1.375-.596-1.632-.562-.044.006-.068.013-.068.013.013-.872-.25-1.604-.533-2.2-.11-.237-.226-.45-.33-.647-.027-.05-.052-.097-.076-.136l.406-.013.6-.02c.572-.018 1.122-.037 1.633-.06.41-.016.793-.035 1.14-.053.203-.008.394-.02.57-.03l-.058 1.063.9-.02v-1.103c.04 0 .08-.006.118-.01.08-.01.15-.017.205-.026l-.054-.367-.15.02c-.037.002-.077.008-.12.01v-.87l-.766-.037-.055.967c-.18.01-.378.022-.59.032-.346.02-.73.035-1.14.052-.51.022-1.06.04-1.632.06l-.6.022-.437.012-.002-.06 1.04-4.96.13-.613.03.39.863-.04-.054-.97h.07l-.01-.372-.08.002-.06-1.082-.337.05 1.08-5.146 1.14-.018.18-.004.043 1.08.88.02-.078-2.578-.9.115.04.99-.166.005-1.063.018 2.982-14.222s.386.168.97.392c.913.356 2.31.854 3.46 1.08.66.128 1.24.17 1.596.04 0 0-.19-.69-.803-1.035-.612-.343-.37-1.114.013-1.363.382-.25.747-.713.67-1.058-.076-.346-1.474-1.116-1.474-1.116h-.002c-.073-.03-1.963-.767-2.038-1.707-.077-.954-1.218-.823-1.22-.823l-.012.057.013-.057.23-1.102-.12-.024-.015-.184-.298.02-1.233.094h-.017l-.02.007-.088.026-.307.09.092-.645c.077-.01.148-.018.215-.028.927-.135 1.01-.46 1.01-.8 0-.365-.153-.75-.517-.75-.31 0-.41.097-.493.292-.014.034-.028.07-.043.113-.095.268.02.537.02.537l-.403-.058s.095-.48-.288-.826c-.384-.346-.46-.194-.67-.058-.06.037-.107.134-.146.254-.1.314-.14.786-.14.786h-.422c.153-.156.133-.443.133-.443-.195-.694-.522-.57-.712-.418-.09.07-.15.147-.15.147s-.382.595-.133 1c.06.095.16.16.283.208.395.148 1 .08 1 .08-.11.127-.18.77-.183 1.06l-.817.243-1.632.478-.6.18-.844.246-.208.004-.452-10.957.023 10.963-.84.015-.887.016-.148.003-.455.007-.284.005-.363.005-.185.003-.114.002-.238.004-.6.01-.465.01-.543.007-.165.006-.036-.89c.193-.346.193-.866.193-.866l.02-2.94c-.06-3.308.343-3.155.343-3.155.082-.01.144-.03.19-.057.16-.094.094-.27 0-.41-.085-.126-.19-.225-.19-.225-.07-.383-.22-.41-.354-.345-.128.062-.24.21-.24.21-.092.115-.15.22-.184.315-.054.16-.04.29 0 .395.087.218.3.328.3.328-.326 1.212-.115 3.02-.115 3.02h-.862c-.09-.13-.202-.17-.484-.26l-.033-.01c-.305-.095-.23-.25-.095-.29.052-.013.095-.048.128-.095.052-.072.075-.174.063-.268-.01-.072-.018-.14-.064-.202-.054-.07-.154-.13-.357-.182-.116-.03-.2-.045-.27-.045-.127-.003-.197.043-.286.135-.025.024-.05.052-.078.083-.14.157-.104.335.078.47.066.047.148.092.248.127l.04.014c.225.082.167.086 0 .187-.075.046-.168.11-.27.205l-.018.017c-.187.187-.098.29 0 .34.065.034.132.044.132.044h.105c-.037.438-.128 1.53-.236 2.85-.155 1.888-.343 4.244-.456 5.826-.038.55-.07 1.008-.084 1.32l-.006.14c-.318-.068-.872-.174-.872-.174s.345-.423.192-.595c-.153-.172-.46-.21-.574.173-.116.384-.02.29-.288.346-.268.058-.422.48-.25.672.173.193.557.134.633-.153 0 0 .798.024 1.163.1v.003c.06.347.308.51.54.588.106.034.207.05.288.06.097.01.162.005.163.005l.463-.014.12-.005.616 1.455.09 2.943-.434-.024.016-1.015-.408-.05-.568-.067-.007 1.086-.048-.004-.146-.006-.016.372.162.008.047.002-.01 1.082.586-.012.37-.006.018-1.017.45.023.14 4.55c-.246-.054-.525-.168-.55-.595-.035-.596-.246-.746-.428-.766-.017-.003-.033-.003-.05-.003-.19 0-.48-.018-.536.212-.058.23.345.405.497.405.03 0 .06.01.09.03.12.077.208.28.005.297h-.006c-.248.02-.568.12-.624.48v.083c.037.225.384.318.624.364.074.017.138.026.18.034.19.04 0 .25 0 .25l-.18.026-.395.05s-.133.252.02.347c.062.04.215.047.376.042.235-.008.486-.043.486-.043l.096-.767.412.105.032 1.096-.827.07.01 1.756c.172.018.505-.134.542.248.02.18.188.49.362.773l.255 8.46-.206-.043-.317-.07-.016-.798-.077-.098c-.348-.11-.593-.13-.753-.122-.167.007-.242.047-.242.047.01.137.12.235.242.302.15.083.312.12.312.12.268.038.038.308.038.308-.144.028-.26.065-.35.105-.437.185-.358.432-.358.432.01.194.202.32.357.388.108.054.198.075.198.075.287.018.19.23.19.23-.213.003-.328.084-.388.168-.075.105-.07.218-.07.218h.07c1.162-.01.868-.27.868-.27l-.015-.723c.09.018.194.043.31.068l.217.046.016.497c-.084.04-.16.093-.234.157-.812.706-.903 2.613-.904 2.618l-.004.068.04.054.867 1.147.37.492.03 1-.4.89-.077.17-1.086.008-.625.006-.287.003-.54.004-.804.007-2.814-2.86c.103-.328-.035-.69-.035-.69.21-.03.36-.08.466-.138.307-.166.243-.4.243-.4.006-.228-.097-.394-.244-.517-.327-.275-.867-.33-.867-.33 0-.346.535-.346.535-.346h3.006l.02-.52h-8.1l.04.48h2.89c.116 0 .23.017.334.04.25.057.433.154.433.154l.038.248c-.122 0-.3.043-.47.132-.236.125-.455.343-.488.676-.045.457.328.587.487.622.042.01.068.013.068.013 0 .596.556.616.556.616l.038 2.52s-.36-.038-.662.14c-.08.045-.155.106-.22.186-.305.386.155.5.155.5h.784l1.422 1.118 3.673 2.89-1.475 3.274-2.2.046-1.173.026c.01-.735-.556-.873-.556-.873h-1.225c-.646 0-1.04.322-1.13.936l-.113.003-1.995.043-.96.018c-.056-.06-.108-.095-.108-.095-.288-.157-.32-.536-.32-.536-.23-1.15.956-1.874.956-1.874.842-1.57-.573-1.457-.573-1.457l-.417-.025-.81-.05c-.415-.26-.627-.048-.734.26-.13.374-.106.89-.106.89-.828.488-1.253 1.1-1.47 1.625-.274.668-.216 1.206-.216 1.206l-.032.15-.17.03c-.587.144-.572.474-.53.63l.11 6.28-.356.354-.926.908-.927.912c-.345.572-.765.383-.765.383-1.723-1.877-1.914.076-1.914.076-.068-.02-.132-.037-.194-.044-.506-.07-.84.235-.84.235-1.148.842.498.955.498.955.12 0 .235.004.342.01 1.472.08 1.572.68 1.572.68l2.228 7.17.186.598c-.062.01-.124.024-.186.04-.066.015-.13.036-.197.058h-6.58c-.292-.506-.503-.173-.503-.173-.018.053-.035.11-.053.175h-3.588c-.596-18.52.003-49.855.003-49.855-.453 6.078-.62 22.285-.683 34.485-.276-9.918-.54-20.86-.54-20.86.152 9.187.506 35.75.506 35.75l-.248-.008c0 .004-.004.197-.002.488h-.18c-.98 0-1.43.277-1.473.308-.135.068-.898.457-1.78.903-1.025.52-2.21 1.118-2.75 1.377-1.04.502-1.1 1.224-1.096 1.4l-.316 2.48c-.508.097-.897.55-1.18 1.11-.03.057-.057.114-.083.173-.16.354-.284.742-.37 1.095-.1.416-.152.793-.155 1.022-.002.1.01.186.034.257-.203.608.02 1.563.02 1.563-.477.038-.457.558-.457.558l.036 2.152-4.683-.365h-.007c.002-.085.006-.17.007-.252.004-.174.004-.342 0-.498-.04-1.643-.467-2.193-.467-2.193 0-.302.287-.343.467-.34.085 0 .146.013.146.013 1.014-.096.344-.404.344-.404-.227.026-.383-.153-.49-.407-.23-.538-.238-1.42-.238-1.42l-.287-.02-.06.787-.104.01-.316.03c-.42-.443-.996-.077-.996-.077-1.57-1.29-3.235-1.193-3.235-1.193-2.93-.06-4.272 2.232-4.272 2.232s-.46-.02-1.78.75c-.512.297-1.082.436-1.637.487-.88.082-1.718-.052-2.21-.124-.806-.116-.882-.52-.652-.73.23-.212 1.11-1.04.44-1.596-.67-.558-.076-1.097-.076-1.097.018-.885-.537-.883-.537-.883l-3.37.057s.02.442.04 1.94c.01.758-.08 1.318-.212 1.727-.132.404-.31.66-.48.814-.344.307-.44.805-.44.805-2.245-.317-4.463-.373-5.147-.382h-.213l-.04.31c-.612-.405-.822-.214-.822-.214-.86.5-.765 1.807-.765 1.807-1.418-.097-1.36.442-1.36.442-.04.387.747.597.747.597.918.673.383 1.442.057 1.924-.327.482-1.015.23-1.015.23-1.15-.96-1.955-1.076-1.955-1.076h-2.488c-.633 0-.69.307-.69.307-.115.5-1.263.27-1.263.27-.863 0-.705.494-.705.494-.46 5.82.047 9.763.047 9.763.486.076 2.184-.344 4.063-.79.055 1.63 1.098 2.696 2.195 3.3 1.403.167 2.805.33 4.206.49 2.025.23 4.047.453 6.067.67 2.194.232 4.386.457 6.577.67 4.086.4 8.163.772 12.235 1.105l.688.057c1.86.15 3.717.295 5.574.433 1.81.13 3.618.26 5.426.38 1.84.126 3.68.24 5.517.35 2 .122 4 .232 6 .335 1.268.065 2.535.127 3.8.186l.927.042c.258.013.52.024.777.036.14 0 .28.01.417.018l1.577.067c.514.02 1.03.043 1.544.062.475.02.948.04 1.423.056.665.026 1.33.05 1.995.074.685.025 1.37.046 2.057.07.714.024 1.428.045 2.142.067 1.063.032 2.125.06 3.19.09.178 0 .36.01.54.012l.286.01.625.014c.387.01.775.022 1.162.03l.424.01c.18 0 .36.01.543.012l.466.01.6.01.237.01h.114l.185.01c.12 0 .24 0 .36.01h.285l.455.01h.148l.886.014c.376.01.753.013 1.13.02.396.01.793.01 1.19.013l.6.01c.544.01 1.09.01 1.633.016.38.01.76.01 1.14.012.512 0 1.022.01 1.53.01.453 0 .906.01 1.36.01 1.153 0 2.305.01 3.46.01 2.408 0 4.82-.014 7.23-.038l.52-.01c.374 0 .745-.01 1.12-.013l.662-.01h.398l.526-.01.352-.01h.63c.195 0 .393-.01.59-.01.226 0 .452-.01.678-.012h.344l.57-.01.363-.01.34-.01h.33l.328-.01c.225-.01.45-.012.677-.016.337-.01.674-.016 1.012-.022 2.17-.05 4.342-.107 6.517-.172h.155l.41-.015.26-.01c.257-.01.514-.017.77-.023h.078l.6-.02h.092c.21-.01.42-.01.63-.02l1.726-.062 1.02-.038.276-.01c.277-.012.556-.024.833-.033.277-.01.555-.022.832-.034.265-.01.53-.02.797-.032 12.378-.514 24.84-1.326 37.438-2.435 8.23-.726 16.52-1.576 24.882-2.553 1.53-1.456 1.028-4.943 1.028-4.943 1.418 1.557 2.806.874 2.806.874.383.568.737.413.737.413l.975-.434c.765-.366.535-.942.535-.942"/></svg>