<svg xmlns="http://www.w3.org/2000/svg" width="300" height="150" viewBox="0 0 300 150"><path d="M104.662 108.006c.003-.153.135-.276.295-.274l1.678.026c.16 0 .29.13.286.283l-.048 2.93c-.003.153-.136.277-.296.274l-1.678-.026c-.16 0-.288-.13-.285-.282l.05-2.93zm2.54-8.405s.464-.206.957.016l.06 1.604s-.51-.35-1.043-.13l.025-1.49zm.187 2l.7.175-.016.933-.408.24.013-.77-.298-.152.007-.426zm1.263-1.863l.48.122-.026 1.488-.48-.09.026-1.52zm1.71 8.357c.002-.153.134-.276.294-.274l1.678.025c.16 0 .29.13.287.283l-.05 2.93c-.002.152-.136.276-.296.273l-1.678-.025c-.16 0-.288-.13-.285-.282l.05-2.93zm6.532-9.865l-1.55-5.392c.004-.282.19-.508.41-.505l2.325.036c.222.003.4.234.396.516l.115 5.37c-.004.28-.19.506-.412.502l-.683-.01c-.22 0-.428-.01-.6-.52zm1.816-7.123c0 .052-.16.09-.355.088l-2.038-.03c-.195-.004-.354-.048-.353-.1l.446-.605c0-.053.453-.294.648-.29l1.317-.153c.195.003.354.048.353.1l-.017.99zm.93 1.797c.005-.282.35-.505.768-.5l4.376.068c.42.006.756.24.75.523l.116 5.37c-.005.28-.35.503-.768.497l-4.376-.067c-.418-.01-.756-.24-.75-.522l-.116-5.37zm3.55 15.388c.003-.153.135-.277.294-.274l1.678.026c.16 0 .29.13.287.282l-.05 2.93c-.004.152-.138.276-.296.274l-1.678-.026c-.16 0-.288-.13-.286-.282l.05-2.93zm2.55-17.24c0 .052-.352.088-.78.08l-4.48-.068c-.426-.006-.775-.054-.774-.106l.017-.99c0-.05.35-.088.778-.082l4.48.07c.428.005.777.054.777.105l-.017.99zm-1.623-3.785l-.022 1.313-.386.034.02-1.233.114-.127s.137.028.273.015zm-.544.29l-.018 1.07-.146.01.015-.98.088-.032.06-.068zm-3.608.754l-.214-.003.02-1.08.21.2-.015.884zm6.964 1.77c0-.052.25-.09.555-.086l3.207.05c.304.003.554.05.554.1l-.017.992c-.002.052-.254.09-.557.085l-3.208-.048c-.304-.004-.554-.05-.553-.103l.017-.99zm1.237 3.786c.004-.207.088-.373.19-.372l1.067.016c.104.002.184.172.18.378l-.066 3.947c-.004.205-.09.374-.193.372l-1.066-.016c-.104 0-.183-.17-.18-.377l.067-3.947zm3.454-14.505c.006-.27.35-.328.35-.328.225-.244.4.006.4.006l.53.008.16-.383.267.004-.01.622c-.327.542-.02 1.145-.02 1.145l-.058 3.46-.737-.012c-.08-.394-.25-.004-.25-.004l-.58-.058.013-2.734.367.005.087-.522c.196-.02.45-.23.45-.23.277-.396-.978-.49-.978-.49l.008-.49zm.727 13.74c.005-.282.35-.506.77-.5l4.374.068c.42.006.757.24.753.522l.117 5.37c-.005.28-.352.504-.77.497l-4.376-.067c-.418-.01-.756-.24-.75-.52l-.117-5.37zm-.19 15.448c.005-.352.25-.638.543-.634l3.067.047c.292.01.527.3.52.652l-.113 6.764c-.006.354-.25.64-.542.636l-3.068-.047c-.294-.01-.528-.298-.522-.652l.114-6.765zm6.878-47.145l-.375-.572.01-.65c.164-.45.384.092.384.092l-.02 1.13zm-.402.446l.076-.425.21.707-.48 9.306-.292-.037v-.98s-.218-.205-.485-.177l.623-8.94.22.053.025.524.103-.03zm-.133 28.407l-.017.99c0 .053-.352.09-.78.082l-4.48-.07c-.426-.006-.775-.053-.774-.105l.016-.99c0-.052.35-.09.776-.082l4.48.07c.428.005.78.053.778.104zm-8.308-2.89l-.014.817-.34-.085-.002-.536 1.047-1.41-.014.815-.126 1.223-.266-.444-.01-.395-.276.013zm.71-2.41l-.016.938-1.077 1.45-.32-.02-.006.44-.086-.017-.005-.64-.37.05.038-2.23 1.843.028zm-1.995-.032l-.038 2.254-.027.004-.037.163-.223.013-.047.8-.292-.005.055-3.24.607.01zm9.892-7.507l.19-5.267.37-.575-.057 6.21-.15-.003-.03-.36-.324-.005zm.06 1.54l.44-.444-.02 1.888c-.115.042-.207.17-.267.285l-.183.103.03-1.832zm.41 7.06l-.01-.216h1.312l-.067.235-1.234-.02zm.337 7.454c.007-.423.343-.766.745-.76l4.22.065c.4.006.726.36.72.783l-2.603 8.075c-.008.424-.55.762-.952.756l-1.548-.023c-.403-.01-.727-.357-.72-.782l.137-8.113zm5.54 7.687l.742-2.835-.05 2.868-.694-.034zm1.723-11.948l-.708-.698s-.054-.82.257-1.01l1.403.02-.953 1.688zm.585-.122l.813-1.56.89.015-1.482 2.53-.22-.985zm.774.733l1.407-2.27.41.005-.008.558-1.82 2.197.01-.49zm-1.72-3.782l-.34-.014.033-1.183c.25.245.304.81.308 1.198zm-.286-4.187l.017-1.03.238-.12-.053 1.153-.2-.004zm.364-1.315l.028-.627.05.002.006-.327.224.004.113.427-.007.312-.416.208zm-.077-.628l-.03.682-.237.12.014-.806.254.004zm-.866.723l-.006.382-.62.314.017-1.034.308.004-.006.36.308-.028zm-1.156.62l-.205-.004.013-.818.204.118-.012.703zm-.363-.76l-.007.426h-.104c-.056-.065-.086-.125-.087-.182.002-.117.13-.2.19-.24.005-.004.005-.005.007-.005zm-.15.527c.036.038.083.078.14.117l-.002.066-.577.015.008-.194.43-.004zm-.624.006l-.023.196-1.684.044.014-.218 1.07-.013c.005 0 .007.005.013.005h.006c.006 0 .01-.004.018-.006l.587-.008zm-1.79-.075l-.41.006-.093-2.442c.017.063.05.118.12.12.17.002.212-.36.212-.36l.324-.01-.01-.442-.675-.01-.636-16.388c.105-.39-.026-.706-.032-.72-.008-.018-.025-.03-.048-.03l-.177-.004c.166-.336.254-.86.295-1.166l.28.004-.004-.802-.548-.01s-.06-1.408.28-2.385l.29.005.003-.13-.552-.01c.018-.693-.134-2.307-.193-2.895l.054-.726c.458-.463.587-.99.59-1.428l.008-.007c.317-.44.217-1.013.182-1.163l.02-.106.256.005.028-.605s1.607-1.61 2.517-1.992l-2.08 33.69zm-.917-32.275l-.293-.22.022-1.326s.208-.595.503-.286l-.232 1.83zm-.112 1.73c.058.003.145-.03.22-.212.018.202.01.495-.123.754-.017-.222-.058-.41-.096-.542zm-.377.65l.286-.6c.107.387.237 1.23-.386 1.943l.1-1.344zm-.32-2.985c-.035.057-.068.132-.077.216l-.24-.103.004-.225.313.112zm-.97-.78l-.005.258s-.363.257-.007.425l-.052.52-.6-.603.006-.46-.006-.002.664-.14zm.58 1.036l.043-.047.274.114c.004.028.012.056.024.084 0 0 .005.754-.12.964l-.062-.393-.117-.036-.04-.688zm-.077 22.86l-.315.475.397-9.052-.08 8.578zm.912-10.414c.03.093.11.392-.014.726h-.078l.014-.07c.004-.026-.014-.052-.04-.057-.033-.004-.057.014-.062.04l-.016.085-.127-.002.02-.064c.006-.026-.007-.053-.034-.06-.026-.01-.055.004-.063.03l-.03.092-.087-.002.066-.726.452.007zm.05-1.27c-.044.315-.135.854-.306 1.167l-.187-.004.065-.745.177-.422.252.004zm-.815 1.723l.275-4.808.333.005-.314 3.064-.1.22-.193 1.52zm.566-5.05l-.306-.003.168-2.28c.068.736.15 1.775.137 2.285zm-.673 21.612l.06-6.355.105-.108.17.003-.02 1.238c0 .027.02.05.048.05.03 0 .053-.02.054-.048l.02-1.24.273.005.032-.833-.674-.012.08-8.56.196-.34.062.002-.098.295c-.008.026.007.053.035.062l.015.002c.022 0 .042-.014.05-.035l.108-.323.138.002-.077.4c-.005.026.014.05.04.056h.01c.024 0 .047-.015.05-.04l.082-.415.132.002.49 12.635c-.11-.154-.32-.287-.32-.287-.233.13-.083.416.188.727.075.087.124.12.154.118l.118 3.02-1.52-.023zm1.093 9.493l.256.026-.03 1.807h-.257l.03-1.832zm3.962 4.06c0 .052-.252.09-.557.085l-3.206-.05c-.306-.003-.556-.05-.555-.102l.016-.99c.002-.05.254-.09.56-.085l2.99.184c.303.004.637.41.636.46l.116.498zm-.596-5.54l-.024.288-.594-.01.102-.278h.516zm.007-.098h-.49l.595-1.632.033.025-.137 1.607zm-.342-4.386l.58-.015-.008.52s-.04.36-.606.27l.035-.774zm-1.893.048l1.678-.043-.09.777-.286 2.554.188.004.156-1.11.22.165c-.085.377-.274 1.29-.366 1.993h-1.705l.024-1.41.18-2.93zm-.102.003l-.04.63.01-.63h.03zm-.697 7.08l.02-1.13.128.01-.008.485.12.002c-.078.14-.18.352-.26.633zm.4.668h-.406c.037-.63.26-1.086.385-1.3h.043l-.022 1.3zm-.387-3.313h.37l-.1.245-.242-.004-.027-.24zm1.74 3.332l-.452-.01.47-.995-.017 1.005zm.582.02c-.155-.007-.316-.012-.48-.017l.022-1.236.185-.39.3.028-.028 1.616zm.067-3.353l-.016.045.006-.045h.01zm.653-1.794l-.617 1.696h-.036c.09-.668.267-1.525.352-1.925l.3.23zm-.075-1.683l.256.004-.013.77-.307-.004s-.032-.042-.08-.074l.068-.626c.035 0 .065-.016.078-.07zm-.338.7l-.152-.02.01-.687.24.004s.027.023.063.043l-.065.624c-.032.002-.062.01-.095.036zm.216 4.562l-.028 1.648c-.12-.04-.25-.063-.393-.072l.027-1.61.393.035zm-1.71-.162l-.028 1.698c-.098 0-.193 0-.283-.003l.03-1.722.28.028zm-.474-1.37l-.067-.252h1.68c-.012.098-.022.192-.028.277l-1.584-.025zm.04-5.003l-.014.218h-.03v-.06c0-.054-.045-.1-.102-.1-.058 0-.102.042-.103.096l-.076 4.5h-.388l-.007-.04.077-4.608.17-.002c.005.002.012.008.02.008.01 0 .013-.007.02-.01l.43-.003zm2.48 8.36c-.08-.053-.17-.097-.262-.135l.028-1.68.39.037s.1.514.378 1.056l-.534.72zm.974-7.56l.006-.41.62-.312-.007.503-.138.228-.48-.007zm.38 1.857v1.997l-.142.374-.04-2.718-.083-.132.012-.622.407.17-.012.655-.14.277zm-1.023-1.243l.104.002-.012.72-.104-.003.013-.72zm1.2 8.987l-.702-.958s-.105-.325-.364-.655l.46-.562c.285.33.67.595 1.175.646l-.567 1.53zm-6.16-13.04l.204-.21h1.044l.086.1.208.004.102 2.654-.133.003v-.042c.002-.054-.044-.098-.1-.1-.055 0-.105.043-.106.097l-.08 4.683-.027.108h-1.346l-.087-1.718.322-1.745.187.003.09-.393-.15-.148.103-1.112-.104-.032c-.073-.105-.15-.16-.233-.17l.02-1.98zm-.197 2.17c.043-.054.092-.094.143-.097.06 0 .12.046.187.14l-.346 1.94.035-1.996-.02.012zm11.492 26.214l.027-.025 1.175 2.887-.596.36-.644-1.014.038-2.21zm.975 6.128l.468.628-.005.393-.49.615.028-1.636zm1.866 3.106l.62 1.776-1.953-.03s-.043-1.42 1.332-1.746zm1.56-.647c-.01.504.176.883.266 1.036l-.403-.635.066-3.932.7 1.062.082 1.28s-.7.528-.712 1.19zm.762-3.413l.258-.512.247.25-.33.535-.175-.273zm.366.436l.292-.56.607.55-.13.733-.77-.723zm-.87-1.26l-.434.432-1.407-2.43.455-.274 1.386 2.272zm-4.08-6.678l2.485 4.067-.446.27-2.324-4.014-.004-.077.287-.244zm.798 5.085l-1.19-2.93.15-.14-.04-1.48 2.235 3.854-1.154.696zm1.29 3.717l-1.85-2.916.535-.32 1.317 3.237zm-1.138-3.344l1.2-.724 1.5 2.585-.065 3.838-.882-1.39-1.752-4.31zm16.094 5.563s1.163-1.246 1.05-.623c0 0-.033 1.216.744 1.62 0 0 .088.064-.007.442-.096.378-.25 1.077-.25 1.077l-.45-.01s-.292-1.75-.326-1.98c0 0-.792-.298-.762-.53zm4.185 2.57s-.06-.94-.213-1.664c1.373-1.725 2.513-2.48 3.395-2.248 1.32.35 1.713 2.853 1.812 3.725l-4.995.185zm1.69 3.855s.08-.206.513.01l-.256.72-.268-.078.01-.65zm.412.77l.28-.758.385.01-.014.847s-.538.04-.65-.097zm.948-.748l.667.01s-.07-.393.213-.39c.282 0 .12.396.12.396h.142l-.014.847-1.142-.018.014-.847zm1.437.022l1.76.027.048.85-1.822-.03.015-.846zm-3.906-6.692c-.27.272-.55.587-.84.944-.016-.066-.033-.128-.052-.185-.227-.723-.177-1.607.026-1.538.205.07.83-.478.402.53 0 0-.228.306-.314.388 0 0-.124.293.188.068 0 0 .24-.028.294-.223l.295.018zm6.254 6.73l4.338.066s-.004-.554.125-.564c.13-.012.12.567.12.567l1.322.02-.015.848-5.906-.09.014-.848zm6.304-.002l3.016.047-.016.944-3.016-.046.016-.944zm5.17.287s1.05-.6 1.884.078l-.01.552-1.883-.03.01-.6zm3.923-.406l2.927.046.1.886-2.964-.046s-.417-.473-.063-.886zm-121.108-5.66c.768 1.635 6.494 10.757 6.674 13.853 0 0 137.767 1.51 144.064-.407 0 0 1.05-4.403 1.064-5.188 0 0 1.165-.048 1.384-.863 0 0 .216-.62-.32-1.216 0 0 .497-1.073-.866-1.587 0 0-.667-1.023-1.756-1.368 0 0-1.265-2.213-2.154-2.29-.587-.052-.837.34-.938.616.074-.316.16-.835-.048-.926-.307-.136-.937.608-.937.608s-.293-.825-1.012-.868c-.72-.043-4.42.097-4.42.097s-.583.058-.62.35l-2.395-.135s-.958-.08-1.003.638l-15.41.19.785-1.76-.142-.058-.812 1.82-9.284.114-.19 1.142.02-1.18-5.478.05-.36 1.007-.12-1.05-1.702.063c-.095-.894-.492-3.48-1.926-3.862-.717-.188-1.575.214-2.566 1.19l.395-.687s.28-.405.062-.606c-.22-.198-.73-.403-1.038-.44-.307-.037-1.214.013-1.35-.168l.007-.427s.612-.645.017-.932c-.594-.288-1.006-.114-1.166.13-.156.243-.196.52-.01.72l-.056.277s-.003.18-.414.173c-.412-.01-.624.416-.624.416s-.854.904-1.153 1.34c0 0-.553.385-1 .542l-1.768-1.884s.074-1.3-.36-1.504c-.433-.204-.488.017-.567.188 0 0-.426-.572-.943-.382 0 0-.274-.57-1.007-1.244-.734-.675-2.095-2.144-2.095-2.144s-1.673-1.302-2.898-.266c-1.225 1.037-1.054 1.58-.985 2l-.78.776-4.093-6.703.166-1.095.154-.12.04-.76-.25-.372-.07-.346-.302-.47-1.566-.025.065-3.936c0-.053-.044-.096-.1-.097-.058 0-.105.04-.106.095l-.067 3.936-.488-.01.034-1.988-.746-.01-.814 1.042-.018 1.055-1.23-.06.063-3.717 1.097-4.18.592-.136s.652-.58.733-2.37c0 0 3.768-4.584 3.78-5.335.013-.754-.13-.46-.513-.008l-.244.225s-.442-.14-.584.187c-.145.323-.05.85-.05.85l-.34-.104-.06-.28.06-5.167c.002-.055-.042-.1-.1-.1-.057 0-.102.043-.103.097l-.06 4.97-.08.44-.58-.14v-.087c0-.005.005-.01.003-.017l-.042-3.61c0-.054-.045-.097-.103-.097-.056.002-.1.045-.1.1l.04 3.61v.034l-.75-.24-.018-.853-.064-.025-.02-4.757c0-.053-.047-.097-.102-.098-.057 0-.102.044-.102.1l.02 5.186-.09.44-1.713-.08c-.002-.43-.066-1.088-.406-1.33l.052-1.863.24.004.006-.36 1.453.12-.028-.327-.994-.016-.077-.41-.33-.004.055-1.206.42-.21v.015l.205.004.01-.54.537-.515 8.085.828.005-.294-8.63-1.035-.6.09s.13-.62-.88-.456c0 0-.22-.348-.668-.094 0 0-.03-.328-.442-.203 0 0-.386-.378-.546-.04l-.014.8s-.22.88-.53.01l.017-1.048s-.032-.263-.29-.234c-.256.03-.313.307-.313.307l-.02 1.113-.904-.014-.005.262.33.758.063-.752.463.023.266.414-.024.377.29.004-.01-.294.153.003-.01.587.137.002.096-.588s-.032-.213.155-.21c.19.003.202.33.2.396 0 .015 0 .12-.004.267-.018 0-.035.002-.044.016-.005.005-.013.01-.02.014-.072.047-.237.154-.237.323 0 .06.025.122.066.184l-.344.005.004-.096.02-.197-.17-.052-.04.348-.557.006.068-.52c.003-.026-.015-.052-.044-.055-.03-.007-.053.016-.056.042l-.072.533-1.036.013 1.767-28.616c.313-.21 1.084.168 1.515.345.435.18.553-.016.553-.016s.842.26 1.16.437c.32.176.13.002.13.002-.133-.58.13-.97.313-1.065.183-.095.57-1.022.57-1.022-.264-.323-1.183-.584-1.58-.663-.397-.08-.152-.1-1.134-.545-.79-.358-1.186-.805-1.31-.966l.102-1.68c.002-.028-.02-.05-.047-.053-.005 0-.005.004-.01.004l-.03-.21s-1.347.683-2.602 2.087l-.323-.243.234-1.856.054.02.383-2.433.12.002-.038.262.17.002.115-.67-.258-.004 3.71-20.107-.024-.02 3.567-16.234c.006-.027-.01-.053-.04-.058-.026-.005-.053.01-.06.038l-3.555 16.176-.022-.02-4.174 22.23s-.315-.12-.386.37l-.077.1.21-3.925c.004-.028-.02-.05-.047-.052-.03.003-.054.02-.055.046l-.218 4.07-.37.474-.067.8-.024.03-.368-.133.017-.996s-.323-.202-.666-.044l-.007.377-.867.18c-.03.007-.047.034-.04.06.003.01.01.02.018.028-.07.116-.06.34-.06.34l-.285.167c-.076-.125-.156.083-.156.083l.06.934.17-.895.195-.144.21.005.657.66c-.052.077-.17.298.064.448l.168.2-.077.57.276-.077.05.213.132.133-.01-.54s.207.003.218.298c.014.295.07 1.146.07 1.146l-.56 8.7-.36-.055-.016-1.014s.073-.245-.286-.333c-.08-.02-.155-.023-.22-.02l.078-4.662c0-.026-.022-.048-.05-.05-.03 0-.054.022-.055.05l-.08 4.683c-.155.047-.23.17-.155.32l-.045.737s-.197.357.074.46l-.032.997.13.428.12-.166-.64 9.194c-.106.036-.216.112-.323.254l-.04 2.374.24-.08.172.102.06.41.172.02.038-.278.204.035.26.922-.16 3.255s-.326.142-.384.55l-2.327-.036-.005.345.255.07s-.006.36.25.363c.257.004.194-.34.194-.34s.272.102.45-.125l.682.076s.094.508.76.502l-.127 4.663s-.868.593-.997 1.113c0 0-.202-.182-.225.064-.02.245-.077.52-.077.52l-.905 1.968s-.394.058-.413.238l-1.388-.02-.038-6.842s.373-.714.018-1.08l.01-.64.514-.04.006-.327-.512-.042.004-.23-.172-.033s-.043-.764.53-1.183c.05.22.122.573.063.577-.085.007-.33.174-.226.266.1.092.496.033.8-.12.302-.15-.288-.355-.288-.355l.01-.548c.187-.06.407-.096.678-.087l1.453.12.025-.44-1.95-.097-.007-.605s.007-.393-.387-.367l-.65-.043.03-1.88.078-.54-.067.015-.075-.557.14-.128.064-.85s-.232-.38-.665-.027l-.016.917.13.312-.037.28-.103.046.124.673-.152.98-.107.308.275-.125-.046.605s-.562-.025-.553.4l.202.25-.006.408-.31.012.008-.507-.75-.045-.095.54-1.424.01-.008.475h1.114l.036-.147s1.132-.08 1.533.45c.405.53.167 1.378.167 1.378l-.427-.04-.093.407-.222-.018s-.406-.333-.685.038l-2.47.11-.005.408h1.03s.5-.353.53.024l-.01.475s-.943.165-.88.395c.065.23.492.385.492.385l.026.524.34.04-.045 2.732-.94-.015s-.065-.295-.24-.02L127 83.75l-.145 3.533-.24.11-.02 1.08-.24-.003s.04-.262.005-.263c-.034 0-.275.03-.275.03l-.004.23-.272-.005.004-.245-.444-.025v.082s-.634-.043-.7-.29l.01-.588-.273.028-.02 1.146-.136-.002.022-1.344c.06-.03.1-.08.105-.16.022-.294.097-.636.097-.636s.157-.693-.17-1.187l.018-1-.154-.003-.014.824c-.068-.06-.143-.118-.236-.164 0 0-.422-.384-.843.167l.037-2.176s.244-.226.214-.504c-.03-.28-.464-.858-1.046-.85-.584.006-1.086.374-1.092.767-.006.393.13.477.13.477l-.045 1.57-.12.032.008-.492-.34-.054.024-1.36-.463-.022-.023 1.375-.326.06-.014.867-.258.11.017-1.013-.275.03-.104 1.16s-.38.027-.465.205c-.09.18-.01.655-.01.655s-.19-.07-.19.062l-.024 1.39.36-.026-.012-.394.35-.32-.062 1.635s.063.213-.382.223c-.445.01-.863.413-.863.413l-.835.804-.777.447-.037-2.882-.446.042-.05 3.013s-.812.85-.946 1.252c-.135.402-.49.89-.312 1.75l2.143 6.172-.025.723-2.5-.04.007-.456-.9-.41-.01.623.356.152-.002.083-.906-.014.068-4.026c0-.054-.047-.1-.1-.1-.058 0-.105.043-.106.096l-.068 4.026-.79-.012s-.772.15-.89 1.213h-.104l.007-.44-.29-.054.024-1.505.34.12.01-.638s-.352-.3-.578-.172l-.253 2.78-.76.364.043-2.554s-.867-.373-1.415-.316c-.55.057-1.226.587-1.226.587l-.06 3.536-.43.157-.01.572-5.762 3.61s.164-.553-.17-.57c-.333-.02-.987.684-.987.684l-1.058 1.16-.138 2.274s-.68.742-.71 1.38l-.444-.01.023-1.358s.077-.424-.54-.434c-.616-.01-.675.448-.675.448l-.087 1.177-.615-.14.032-1.915s-.13-.36-.68-.353c-.545.01-.69.348-.69.348l-.03 1.882-1.45-.236.024-1.473s-.008-.54-.694-.516c-.685.02-.64.465-.64.465l-.025 1.34-1.98-.243-6.01-1.01.525-1.694s.71.484 1.27-.08c.556-.563.505-1.562-.434-1.757l.52-1.466s.175-.063-.236-.2c-.408-.136-.63-.123-.63-.123l-.916-.49s-.646-.336-.842.118c-.195.456-1.447 3.612-1.447 3.612l-.518 1.285s-.766-.29-.957-.048c-.193.242-.546.81-.546.81l-3.37-.182s-.68-.19-1.125.817c-.445 1.007-1.036 2.52-1.036 2.52s-.362 1.164.407 2.796"/></svg>