<svg xmlns="http://www.w3.org/2000/svg" width="300" height="150" viewBox="0 0 300 150"><g fill-rule="evenodd"><path d="M266.108 129.406l2.09-4.668s.766-.59-.513-2.4l-1.788-3.993s-.18-.838-1.492-.812l-2.044.018s.21-.745-.085-1.13c0 0 .403-1.75-.848-2.02l.203-1.502s.105-.45-.39-.46c0 0-.402-.184-.566.48l-.088.73s-8.948-.055-12.322.76c0 0-.29.128-.248-.244l.073-.575s.058-.28-.327-.338c0 0-.743-.164-.833.472 0 0-.202 1.795-.24 2.555l-2.025 1.686s-1.5-.623-1.66.863l-.137 3.808-.297.002.02-1.58-1.002-.023-.033-.386-.247.003-.044.28-.147.046.068 1.723-1.26-.02s-.295-.316-.095-.694c0 0 .353.002.352-.245 0 0 .144-.342-.727-.273 0 0-.308.088-.488-.097 0 0 .12-.256-.342-.222 0 0-.67-.072-.706.158 0 0-.015.18.177.18 0 0 .28.38-.097.52 0 0-.207.248-.148.767 0 0-.063.688-.365.51 0 0-.246.13-.532-.93 0 0-.71-3.863-.756-6.03 0 0 .024-.68-.44-.692l-.144-2.752s.566-.408-.083-.403l-17.728-.158s-.29-1.48.2-2.306l.845-2.374s.443-.546-.482-.462l-5.232-.098s-17.036-.616-24.815-2.53l-.657-1.194 1.01-4.846s.388.045.185-.372c0 0 .242-.62-.61-.83l-2.707-.893.152-12.92s.23 0 .202-.542l-.014-.705s-.002-.264-1.02-.2c0 0-.555-.105-.638.292l.016.976s-.014.16.187.26L184.24 95.9l-10.118-3.372s-2.72-.86-3.89-.604c0 0-.876 2.59-1.025 3.226l-.066-2.57-3.548-.08s.134-2.646-.762-2.61c-.892.037-.978.92-1.023 1.495 0 0 .282.338.59.15 0 0-.055-.974.33-.933 0 0 .262-.002.185 1.86l-9.183-.27s-.216-1.857-.83-1.87l-2.923-14.478s.225-.96.067-1.423c0 0 2.373-8.374 2.788-8.718l.538.03-.145 1.113s.374.492 1.498.312c0 0 1.113.038 1.566.73 0 0 1.92-2.892-.77-3.426 0 0-1.234-.207-1.578-.576l-.317.76-.465-.122.375-1.224.432.106s.277-.513-.314-1.142l.04-.497s.343.23.477-.345l.24-1.052s.135-.405-.5-.522c0 0-.665-.306-.81.87l-.056.7s-.12.2.265.275l-.014.417-.433-.056-2.978 9.82s-.355.11-.196.482l-.665 2.124s-1.512-.188-.394.87l-3.044 9.74-2.75-.473s-.842.16.347.555c0 0 .707-.33 1.938 1.256l-1.25 3.69s-.03.495-1.03.41l-4.048-.587-.967-1.23 1.736-21.726s.488-.176.586-.34c.098-.163.097.525.097.525s.162.734.31-.022l.11-.776s.884-.194.102-.534c0 0-.162-.085-.156-.185l.518-4.93.15 1.732-.017-2.245s.478-.145.06-.398c0 0-.076-.092-.064-.27l.19-1.75-.273-.083-.232 2.022s-.483.166-.12.387l-.59 2.195.65-1.687-.487 4.993s-.01.175-.117.18c-.11.004-.258.59-.606.163 0 0-.113-.69-.296.068 0 0-.05.616-.085.956l-1.875 21.582s-.478-.128-.673.864c0 0 .087.23-.328.205l-11.507-1.318s-.308.05-.622-.693l.135-4.52s.638.135.608-.247c-.03-.382-.476-.31-.6-.31l-.627-.013s-.412-.168-.424.277c-.01.446.423.29.423.29l.294-.002-.052 2.887s-.317-.118-.343.595c-.026.713-.028 1.325-.028 1.325s-.156.188-.542.145c-.384-.043-1.992-.217-1.992-.217l-.087.158-2.147-.172s.006-.91-.984-1.43l-.01-1.253s.31.12.37-.176c0 0 1.095.303 1.105-.41.01-.71-.007.092-.007.092l-.017-1.362s-1.144-.347-1.164-1.2c0 0-.174-.4.212-.308l1.22.068.06-2.044-1.806-.032s-.278-.247-.4-.18c0 0-.17-.596-.444.02 0 0-.562-.187-.6.59 0 0-.21.867.346.926 0 0-.94.3-.212.666l-.107.233s-1.41-1.042-1.414.66c0 0-.662-.072-.666 1.398l-.985-1.462.015-1.905s-.358-.49-1.495-.033c0 0-1.148-.595-1.775-.064l-.05 1.89 1.376.127.037.65-2.915.058-.024.218 2.372.153s1.042.3 1.157.928l-.048.822-2.238-.044-.062.22 1.314.11s-.18.434.173.603h-.964l.034.2.98.104s.208-.063.078.154c-.13.22-.46.568-1.375.6 0 0-2.662.116-3.522.742 0 0-.47.9-.434 1.735 0 0-.33-.005-.336.273-.004.28.28.252.48.275l-.006.32 2.74.053 2.236 8.173s.16.437.4.49c0 0-15.653-.25-19.166-.38 0 0-.38-.072-.668.573l-.366.55s-5.602-.11-6.236-.135c0 0-.632-.07-.813.643 0 0-1.89 7.94-2.22 8.868 0 0-.22.885-.2 1.225 0 0-6.073.913-7.376.136 0 0-.85-.443-.86.547l-.368 7.777-1.91-.078.023-9.09s.177-.8-1.177-.7c0 0-20.404-.334-29.103-1.655 0 0-7-.468-8.17-.46l-.518-3.2s-.35-1.123-.48-.006l.488 3.228s-.702 2.932-1.44 3.4c0 0-.956.008-.438 1.025 0 0 .563 2.75.15 4.906 0 0-2.372 1.148-.232 2.37 0 0 .54.073.832-.038l4.864 10.91s225.637.504 227.94-.47"/><path d="M235.313 115.687l-.037-2.817-10.925-.025.13 4.705 10.293.06.22-1.674s.044-.2.32-.25" fill="#fff"/><path d="M255.56 114.09l-.017-.362-.248-1.912s-.126-.417-.42-.538c0 0-.774-.225-.823-.644 0 0 .135-.557-.62-.567 0 0-.45-.01-.59-.182 0 0-.602-.32-.26.252l.453.52s.247.262-.09.51c0 0-.71.163-.624 1.136l-.077 1.594.22.4.46-.153s-.015-1.798.046-1.998c.058-.204.61-.58 1.075-.29 0 0 .495.12.578.725.08.604.196 1.502.196 1.502l.74.008"/><path d="M256.035 117.722l-.054-3.078s-5.816-.018-7.648.585c0 0 .144.726-.39 1.335 0 0 .205.614 1.4 1.442 0 0 5.877-.06 6.693-.285M154.136 91.6s-.053-.993.5-1.226l-2.91-14.196s-.74 1.255-.84 2.167c0 0 .298.386-.197.574l-.677 2.234s.36.57-.258.606l-.024.65s.066 1.733-.23 3c0 0-.393 1.39-.322 2.19 0 0-.505 2.654-.87 3.15l-.086.215 1.467.19s.278.12.22.49l2.84.117s.676-.343 1.386-.162" fill="#fff"/><path d="M149.13 82.755l.14.106s.17 1.965-.42 3.534c0 0-.178.852-.16 1.516 0 0-.582 2.267-.902 2.684 0 0-.138.22-.647.114l-.585-.07 2.575-7.883M119.574 85.286l.02 1.06s-.746-.024-1.068.435l-.5-.61.242-.742s.9-.24 1.306-.142M117.452 85.628l-.6-.7s.716-.423.6.7M115.734 83.926l-.902-1.23-.418-.044-.04.665.523.04s.418.215-.03.343l-.415.036.06 1.716 1.033-.055-.04-1.285s-.02-.215.23-.187M146.266 93.725l-1.437 5.678s-.117.99-1.228.813l-2.37-.136s-.743-.117-.842-.98l.045-6.1s-.008-1.05 1.166-.966l3.917.432s1.078.114.75 1.26M137.71 95.423l-.03 3.853s.1 1.016-.946 1.363c-1.044.347-1.464-.445-1.53-1.05l.028-4.315s-.113-1.15 1.09-1.195c1.202-.04 1.378.82 1.39 1.343M132.268 92.66l-.05 5.887s-.113 1.11-1.595.875l-2.806-.224s-.985.04-.932-1.196l-.077-5.822s-.04-1.326 1.256-1.12l3.11.224s1.207.143 1.094 1.377M125.85 91.97l.045 5.763s-.022 1.204-1.13 1.24l-2.19-.258s-.955.07-1.15-1.317l-1.397-5.383s-.26-1.815 1.53-1.49l3.174.222s1.233.114 1.12 1.223M117.988 91.108l1.715 6.488s.407 1.044-.424 1.144l-1.3-.04s-.542.068-.892-1.492l-1.48-5.527s-.333-1.267.47-1.273l1.064-.07s.694-.067.846.77M114.94 91.716l1.62 6.12s.322.767-.54.712l-1.605.136s-.48.02-.717-.83l-1.56-6.207s-.3-.726.595-.843l1.527-.012s.37-.25.68.924M113.08 100.042l-.072.448-2.237.202.005-.713 2.305.062M110.343 99.99l-15.89-.426-.393.684 16.295.325-.01-.582M110.36 101.144l-1.39-.012v1.834l1.403-.01-.014-1.812M108.46 101.122l-.007 1.88-7.67-.124.025-1.968 7.65.212M100.188 102.855l.022-1.998-6.394-.093s-.714 1.365-.802 1.893l7.174.198M92.624 102.18l.666-1.4-2.986-.043-.086.665c-.003.038.336-.033.55.282 0 0 1.363-1.39 1.856.496M89.858 101.42l.05-.715-2.727-.17c-.153-.01-.317-.015-.488.622-.175.642-.615 2.452-.615 2.452h1.79c.208-.002.544-2.037 1.99-2.19M87.7 103.997l-1.653-.08-.667 2.63 1.782.024s.218-2.09.538-2.573M87.632 109.058c-.43-.733-.57-1.355-.558-2.027l-1.794.013-.803 3.17 3.594.05s-.74-.365-.438-1.205M110.352 104.208l-.037-.68-1.296-.004-.01.694 1.34-.01M108.478 103.498l.006.712-7.74-.126.03-.677 7.704.09M109.004 104.45l1.31-.003.026.263-1.31.088s0-.347-.026-.346M100.733 104.463l7.746-.007.008.355-4.487.254s-.74.02-.966.83l-2.384-.037.082-1.394M100.174 103.32l-.025.704-7.502-.123.238-.665 7.288.084M100.034 105.82l.09-1.393-7.145-.193s-.43 2.234-.828 2.933c-.396.698-.676.436-.8.284l-1.05 2.93 3.17.13 1.123-4.77 5.44.08M89.106 114.246l1.675-2.92s-3.8-.435-6.296-.155l-.007 3.066s3.546-.198 4.63.01M87.25 117.76l1.767-3.17s-1.977-.233-4.49 0l.04 3.22 2.682-.05M83.913 111.175l-.146 2.866s-3.526 1.22-7.637.37l-.023-3s2.892.763 7.806-.235M83.43 118.375l.264-3.67s-3.486 1.352-7.597.374l-.146 4.112 1.175.023.146-1.07 6.16.23M70.38 119.066l2.586.063-.008-8.876s.113-.443-.775-.458l-6.52-.12.037.712s1.684.39 1.908 1.303c0 0-.046.264-.48-.06 0 0-.248-.414-.46.206l-.56 1.225 3.362-.007s1.348.84.265 2.242c0 0-.154.187-.694.19-.538.005.092 0 .092 0l-3.24-.07.176.68.634.043-.418 2.216 3.706.065s.386-.053.39.646M63.04 109.603l2.145.03.018.358-2.206-.046.043-.34M62.86 110.304l2.21.09s-.32.45-.26.776c.067.325-.78-.86-1.915-.574l-.035-.292M60.11 109.504l2.358.06-.058.247-2.36.004.06-.31M59.716 109.956l.037-.435s-10.236-.692-11.287-.887l-.01.327s8.683.644 11.26.996M57.834 112.942l1.926-2.477-2.578-.273s-.098 1.596-.122 2.198c0 0 .526.21.774.552M56.348 112.303l.2-2.184-8.215-.805-1.015 2.33 9.03.658M47.92 108.784l.053-.192s-8.137-.756-8.754-.738l-.01.107 8.71.824M46.67 111.636l1.184-2.362s-7.64-.436-8.708-.86l-1.014 2.667s6.763.352 8.537.556M37.47 110.98l.966-2.622-3.01-.09s-.668 1.355-.323 2.203c0 0 .02.434.683.474l1.683.036M38.618 108.022l.014-.233-3.513-.23-.037.263 3.535.2M88.53 107.46c.685-1.13 1.053-2.414.954-3.91 0 0-.855 1.09-.955 3.91M105.655 118.167c-1.258.01-2.29-1.006-2.3-2.263-.01-1.254 1.007-2.29 2.265-2.3 1.254-.008 2.288 1.01 2.297 2.265.01 1.256-1.007 2.287-2.262 2.297M120.973 118.51c-1.255.01-2.29-1.007-2.3-2.262-.01-1.256 1.01-2.29 2.265-2.298 1.255-.01 2.286 1.007 2.296 2.262.01 1.256-1.006 2.29-2.26 2.298M135.983 118.887c-1.256.01-2.288-1.006-2.298-2.262-.01-1.256 1.006-2.29 2.263-2.3 1.253-.01 2.286 1.01 2.296 2.264.01 1.256-1.007 2.288-2.26 2.297M150.498 119.02c-1.257.01-2.29-1.003-2.3-2.258-.01-1.257 1.007-2.29 2.265-2.3 1.255-.01 2.288 1.007 2.298 2.265.01 1.254-1.006 2.284-2.262 2.294" fill="#fff"/></g></svg>