<svg xmlns="http://www.w3.org/2000/svg" width="300" height="150" viewBox="0 0 300 150"><path d="M79.833 115.374l2.368.016.01-1.165.488.408.006-.63-4.053-.03-.012.15c.757.203 1.195 1.25 1.195 1.25zm4.08-.997l.044-.367-.897-.01-.007.925.71.592c-.02-.73-.027-1.017.15-1.144zm3.02 1.125l.65-1.467-3.266-.022-.032.26c.095-.01.206-.02.337-.03.894-.073 2.312 1.26 2.312 1.26zm4.343-2.117l.136-1.358-2.384-.045-.103 1.374 2.35.03zm3.28-1.298l-2.786-.054-.135 1.357 2.91.037.012-1.34zm2.92-2.01l.005-.467-3.066-.02-.02 2.172h.165l.01-1.228.4.243.307.525 1.698.01c.008-1.003.502-1.24.502-1.24zm1.47.57l-.005.563.938.086c.148-.8.462-1.323.81-1.666l-2.76-.02-.003.307 1.02.73zm14.966 4.998l.3-1.64-5.378-.038-.013 1.523 5.092.155zm2.202-1.628l-.937-.01-.007.84.944-.834zm8.402-5.385l3.186-2.204s.27-.158.447 0l1.93-1.23.14.2 2.74-2.668-3.037-.02-6.57 5.813 1.163.106zm2.184.2l1.988-1.94-2.254 1.655-.264-.403.54-.48s-.906.536-1.607 1.022l1.597.145zm13.67-.19l.05-5.858-5.54-.038-6.437 5.814 11.926.08zm7.463-5.808l-6.075-.04-.05 5.857 6.075.042.05-5.858zm.358-10.632c.353-.313 1.265-.193 1.568.32l.116-.792-1.68-.012-.003.484zm-.02 2.487l1.272-.032.16-1.077c-.564.773-1.423.026-1.423.026l-.01 1.083zm.998 14.012l4.51.03s2.193-.385 2.483-2.953c.29-2.566-2.432-2.905-2.432-2.905l-4.51-.03-.05 5.857zm11.906-18.78c.41-.88-.616-1.05-.616-1.05l-.72-.048-2.6 5.084 2.222-1.952c1.66-1.072 1.305-1.155 1.714-2.035zm-4.895 2.836l.022 1.973.58-.51 2.765-5.41-.674-.045-2.694 3.993zm-3.308 4.902l3.154-2.774-.023-1.868-3.13 4.642zm-15.628.232s.203.617 1.032 1.264l.128-1.15-1.16-.114zm-.893-.01l1.003 1.264.298-.106s-.618-.698-.823-1.155h-.476zm-18.71 11.86l-.017 1.947 1.095.024c.69-.608 1.443-1.27 2.223-1.95l-3.3-.022zm-7.4 1.78l3.706.084.016-1.89-4.492-.03c.328.362.63.765.77 1.836zm4.14 1.554l-.056-.04-4.578-.03c-.203.264-.43.485-.61.637l5.135.035.11-.602zm-4.134-1.234c-.024.302-.135.587-.284.843l3.974.027.006-.785-3.696-.085zm4.697-.214l2.322.053.017-1.942-3.234-.022.71 1.116.185.796zm2.67 1.057l.75-.658-.743-.017-.006.675zm-.36.318l.01-1-2.246-.05.17.73-.008 1 1.294.01.78-.688zm-34.53-1.148l-3.87-.075-.172 1.868 4.026.028.016-1.82zm1.495.03l-1.14-.023-.015 1.816.934.01.22-1.8zm-1.137-.345l1.177.023.25-2.04-1.41-.01-.016 2.027zm-4.195-.082l3.84.074.017-2.022-3.675-.024-.182 1.972zm12.918.25l2.235.043.018-2.167-2.04-.014-.213 2.138zm-.143-2.14l-1.85-.014-.28 2.11 1.915.037.215-2.135zm-2.915 1.41c.005-.087.094-.154.19-.148.098.01.173.082.165.17l-.048.655h.12l.277-2.104-4.582-.03-.252 2.046 4.078.078.05-.67zm-.854 2.358l.677.012.103-1.378-4.093-.08-.22 1.8 3.368.022.166-.373zm76.827-21.027l.684.613c.53-1.11 1.457-3.123 2.22-5.125l.227-6.426h-.045l-2.886 3.15-.72 6.055.52 1.73zm1.61 5.147l.952.046.044-1.284-.988-.007-.01 1.244zm5.775.077c.06-.55.177-1.465.407-2.66l-2.49 2.765 1.93.096.152-.203zm1.102-3.434l-.23.256c-.225 1.083-.363 1.97-.446 2.613l.6-.792.076-2.078zm-2.6-12.806l-1.266.036-.02 2.475c.606.733 1.89 2.236 3.378 3.672l-2.09-6.183zm-1.047-3.096l-.078.136-.116-.02-.018 2.127.957-.036-.746-2.205zm-.632 2.26h.063l.02-2.208-.197-.038.115 2.247zm-.52 5.05c.088-.548.203-1.17.414-1.806.015-.125.03-.245.037-.36.003-.044.047-.078.095-.073h.012l.017-1.93-.955.026-.208 5.902c.222-.604.423-1.2.59-1.762zm4.834 7.67c-.042.17-.08.34-.12.503l.104-.113.015-.39zm-3.66 4.44l3.06-3.402c.123-.58.27-1.21.444-1.887l-.266-.154-3.288 5.44h.05zm-1.98-9.287c-.738 1.883-1.58 3.704-2.064 4.714l1.752 1.57.08.336.233-6.62zm-.076 7.266l.153.625h-.173l-.046 1.293 1.677.083 3.38-5.595-.78-.446s.277-1.002-1.232-2.136c-1.51-1.134-2.085-1.7-2.085-1.7s-.366-.262-.233-.955c-.122.35-.252.705-.386 1.06l-.276 7.773zm.705-17.23l-.098-.03-.076 2.19.244.01-.07-2.17zm-2.87.954l.572 1.117 1.944.08.08-2.24-.484-.156.03-.068-2.14 1.268zm13.196 36.262l.006-.777-1.322-.01-.034.775 1.35.01zm18.08 5.275l.01-1.24c-.19-.01-.367-.014-.53-.022l.164 1.167.356.094zm8.405-.89l.653.396.006-.71c-1.328.01-2.616.018-3.813.02l-.01 1.055 1.674-.612 1.49-.15zm1.666.44l.54-.425 1.362.757 1.368.116.305-.694.72.114-.172-.68c-1.582.022-3.2.04-4.772.054l-.007.93.06.036.597-.21zm5.38-.583l.015-.247c-.3.01-.602.01-.906.014l.18.71.52-.66.192.185zm1.387.094l-.24-.357c-.256.012-.515.012-.774.013l-.04.578.417.405.636-.637zm1.684.973l.417.058.426-.907.78-.116-.096-.42c-.69.012-1.418.023-2.176.038l-.013.115h.435l.227 1.23zm3.458-.296l.355.27.712.228.014-1.643c-.62.012-1.317.023-2.075.038l.103.293.66-.097.232.91zm2.746-.77l-.13-.406c-.34.01-.735.014-1.176.024l-.015 1.764.295.094.012-1.337 1.014-.14zm-1.276-3.912l-.027 3.208c.395-.01.754-.014 1.07-.02l-1.043-3.188zm-4.03-.94c.23.664.92 2.646 1.456 4.194.804-.014 1.54-.027 2.19-.04l.034-4.14-3.68-.015zm-31.315-1.03h-.493c-.098 0-.178-.073-.177-.162l.027-3.264h-.178l-.035 3.996.93.01c-.04-.173-.068-.363-.076-.57zm2.9-9.78c.054-.057.117-.105.184-.15h-.632c-.1.455-.546.85-.546.85-1.21.41-1.543-.02-1.566-.56-.156.08-.285.175-.38.284-.288.333-.21.693-.206.707 0 .012.008.024.008.037l-.04 4.727.14.144h.218l.22-1.336s-.086-.764 1.345-.795c0 0 .402-.07.953-.123l.026-3.017c-.008-.08-.03-.45.28-.766zm1.992-4.023l-2.055.26-.027 3.286 2.65.018-.568-3.565zm-4-.028l-1.032.142.708.9-.003.375-1.542.1.142 7.85c.067.073.134.14.2.208l.036-4.352c-.018-.1-.076-.54.273-.948.166-.194.4-.347.692-.462.008-.032.01-.065.017-.097.103-.517.217-1.034.78-.996l-.268-2.723zm-7.835 1.902l3.778.292s.918.38-.007.856l-.982-.01-.01 1.338-1.152.118c1.286 1.435 2.833 3.14 4.117 4.49l-.134-7.45-5.61.362zm4.143-7.738l-.705 1.47.38.31.325-1.78zm-1.814.576l.023.007.666.543.96-2.002-1.65 1.452zm-1.534 16.478l.012-1.46c-.43.01-.83.013-1.15.026l-.063 1.427 1.202.01zm.374.323h-.02l-.024 2.83h.02l.024-2.83zm-.027 3.15h-.02l-.006.78h.02l.005-.78zm.545 0h-.19l-.005.78h.19l.006-.78zm1.13.01l-.772-.01-.01 1.134.73.03c.023-.362.04-.754.052-1.16zm.697 1.193c.22-.23.386-.346.508-.385-.065-.258-.132-.525-.2-.802l-.648-.01c-.013.408-.03.804-.052 1.172l.392.018zm2.193 1.304l-.102-.393s.014-.06.042-.147l-.71-.01-.014 1.658s.29.01.775.024l.01-1.137zm.368-1.378c.18-.206.413-.33.7-.21l.806-.036s-.283-.306-.473-.854l-1.025-.01-.01 1.104zm-2.115-1.113l.196.79c.28.06.188.722.188.722l.596.01v.11l.774.01.014-1.622-1.768-.01zm-2.777-4.95h-.02l-.01 1.465h.02l.01-1.464zm.535 1.47l.012-1.46h-.19l-.012 1.462h.19zm-.002.32h-.19l-.023 2.828h.19l.023-2.83zm1.118.01l-.76-.01-.024 2.828.777.01c.023-.97.017-1.988.007-2.826zm.35 2.827l.563.01c-.185-.767-.373-1.583-.55-2.402.006.744.006 1.587-.012 2.4zm-.415-4.558c-.215-.02-.444-.034-.68-.043l-.012 1.447.753.01c-.008-.513-.018-.936-.025-1.21l-.035-.2zm-2.434-5.19l-.443-.205-.22 5.03c.58-.018 1.408-.035 2.203-.01.012 0 .025-.01.038-.01.02 0 .037.01.054.01.256.01.508.024.745.043-.28-1.62-.44-3.075-.343-3.98-.31-.342-.61-.677-.897-.998l-1.136.117zm5.434 5.603l-.02-1.06c-1-1.046-2.17-2.325-3.258-3.528-.07.91.09 2.306.358 3.858.05.01.098.01.147.015.088.01.155.075.158.155 0 .017.022.68.037 1.62.216 1.048.46 2.107.695 3.086l1.85.012.034-4.155zm.54-.48c-.064-.064-.13-.13-.196-.2v.01c.012.022.018.044.018.067l-.004.447h.18v-.32zm.34 1.887c.037-.01.076-.01.12-.01l.198-1.213c-.008-.01-.013-.012-.02-.02h-.287l-.01 1.243zm.298 1.864c.022-.382.112-.805.31-1.27 0 0-.34-.102-.61-.225l-.013 1.492h.312zm10.655 5.156h.008c.19-.02.33.034.433.11l.818.01.003-.374-1.31-.01.05.268zm1.254.436l-.587-.01.008.063c.177.01.37.015.58.022v-.084zm.596.098v-.094h-.238v.09h.238zm.532.332h-.178l-.01 1.258.178.01.01-1.26zm3.217.03c-.51 0-.997-.01-1.46-.01-.498 0-.965-.01-1.4-.017l-.01 1.265 2.86.09.01-1.336zm.356 0l-.01 1.25.18-.063.01-1.186h-.178zm.184-.425h-.18v.106h.18v-.103zm-3.716-4.355h-.178l-.028 3.314h.178l.028-3.315zm-.563 3.31l.028-3.313h-.238l-.028 3.312h.238zm-.002.322h-.238l-.003.374h.238l.003-.373zm.535 0h-.178l-.003.374h.178l.003-.373zm-.006.695h-.178v.102h.178v-.103zm3.223-.673l-2.86-.02-.002.374 2.86.02.002-.375zm-2.865.674v.107c.836.015 1.8.02 2.858.02v-.107l-2.858-.02zm7.6-4.297l-7.564-.034-.028 3.315 3.037.02c.1 0 .18.074.178.163l-.004.536h.356c.1 0 .178.073.178.16l-.002.26c1.196 0 2.483-.01 3.812-.02l.037-4.4zm3.9.017l-3.543-.016-.037 4.4c1.543-.014 3.132-.033 4.688-.053l-1.107-4.33zm2.565 3.056l-.893-3.05-1.303-.01 1.102 4.326c.34-.01.676-.01 1.01-.014l.082-1.255zm.324.51l-.05.74c.18-.01.36-.01.54-.01l-.49-.732zm.044-3.553l1.32 1.867c.157-.252.51-.552 1.273-.293 0 0 .442.365.35.646-.067.205-.708.385-1.047.467l.192.27c.02.03.03.066.026.1l-.14 1.205 2.066-.035-.952-4.214-3.088-.014zm4.565 4.218l-.468-1.35.304 1.352h.163zm.228.663l-.118-.342c-.067 0-.134 0-.2.01l.083.373.235-.035zm-3.18-.614l.138-1.187-2.176-3.083h-.468l.87 2.968.88 1.316c.255-.01.506-.01.756-.012zm-.447.428h.398l.013-.107c-.166.01-.334.01-.504.01l.077.115.018-.018zm-16.745 1.23l.238.01.01-1.253c-.08-.002-.16-.012-.238-.012l-.01 1.255zm-1.707-2.693l1.372.01.028-3.313-2.148-.01c.23.67.546 2.24.748 3.31zm-18.034-3.712l1.313.01.023-2.83-1.212-.01-.124 2.833zM74.77 117.423l1.385-.072-.22-.402 1.576-1.514.946-6.133.14.01c.006-.08.082-.147.176-.146l4.12.028c.01 0 .02-.01.033-.01.01 0 .02.01.032.01l1.72.012c.018-.01.034-.01.052-.01.004 0 .01.01.015.01l4.89.034c.012 0 .025-.01.038-.01.005 0 .008 0 .012.01l11.41.078c.518-.32.993-.33.993-.33s6.343-.036 6.79-.033c.317 0 .383.265.396.417l12.033.082c3.67-3.21 7.803-6.77 8.756-7.378 1.796-1.152 7.034-2.562 7.034-2.562L136.04 97.9s-.535-.124-.657-1.69c-.12-1.566 1.225-2.197 1.225-2.197l2.41.136s.007 0 .018.006l.548-5.24c.004-.043.047-.075.097-.073.05.007.087.044.082.09l-.555 5.302c.383.196 1.214.762 1.135 1.97-.103 1.565-1.357 1.945-1.357 1.945l-.01 1.056 5.012-1.022 2.218-3.463.805-.155.004-.522c-1.16-.207-1.156-.61-1.194-1.33-.038-.725 1.3-.596 1.3-.596l.094-.52-4.51-.15c-1.154-.892.008-1.085.008-1.085l7.315.337.158-1.072c.005-.044.053-.076.1-.07.05.007.084.046.077.09l-.157 1.06 1.66.078c1.427.45.797.967.797.967l-2.608-.017-.463 3.143 1.68 2.924 1.242.084 3.49-5.17-.078-6.518c0-.045.04-.08.088-.082h.002c.048 0 .088.036.088.08l.073 6.26 2.498-3.7-.85-.06c-1.116-.046-.708-.766-.708-.766-.846-.328-.708-.968-.708-.968l.018-1.927c.002-.24-.115-2.207 2.23-2.15 2.343.055 2.37 2.302 2.37 2.302l.213 1.204c.21 1.408.625.004.625.004l1.24-4.124-.706-.968-3.73.014.004-.482 1.633-.07-.054-4.173-.255-.037-.02 2.23c0 .044-.04.08-.088.08-.05 0-.09-.037-.09-.083l.02-2.252-.357-.052-.02 2.303c0 .045-.04.082-.09.08-.048 0-.09-.036-.09-.08l.02-2.327-.192-.03.004-.48.193.008.027-3.215c0-.044.042-.082.09-.082.05 0 .09.04.09.082l-.028 3.22.358.01.027-3.227c0-.044.04-.08.09-.08.048 0 .087.038.087.08L160 75.978l1.13.035.028-3.26c0-.044.04-.082.09-.08.05 0 .09.037.09.08l-.028 3.265.476.017.028-3.278c0-.043.04-.08.09-.08.05 0 .09.038.09.08l-.03 3.283.343.01-.002.282-.343.077-.02 2.393c0 .045-.04.082-.09.08-.05 0-.09-.036-.09-.08l.02-2.355-.476.108-.02 2.242c0 .046-.04.082-.09.082-.05 0-.09-.037-.088-.083l.018-2.2-.208.046-.034 3.973 1.03-.114c-.173-.724.233-1.282.233-1.282l1.25.13.266.2.984-.193 1.028-5.37-.128-.724-.93-.85-1.163-.006.005-.602 5.315.036-.093.483-1.16-.007-.004.44-.492-.002-.992 1.117-.76 5.293.013.022 2.227-1.318c.04-.024.097-.015.124.023.012.016.015.034.013.053l1.362.115c.01-.082.084-.146.177-.145.098 0 .177.072.176.16v.016l.162.01c.002-.03.026-.058.062-.066.048-.014.098.01.112.053l.786 2.324 1.03-.04.676-.677.756.366-.903 1.076.485.886-.805-.045-.485-.686-.452.015 2.182 6.45c.15.14.303.283.456.42l.505-13.446-2.143-.177-.263-.443.006-.763.624.004-.005.604.354.322 1.34.01.27-.318h.27l.087.28-.304 11.844 4.552-22.873c.018-.088.11-.146.207-.13.096.015.16.098.143.186l-4.957 24.91-.015.575c.02.02.04.034.06.05.392-1.124.857-2.313 1.408-3.55.037-.08.14-.12.232-.087.093.033.137.126.1.208-.57 1.28-1.048 2.51-1.45 3.67.765.613 1.534 1.135 2.253 1.47 0 0-1.136 2.28-2.21 2.632l-.498-.285-.055 2.128 1.59 2.058.954-1.64.1-.047-.132-3.344c-.002-.088.074-.163.173-.165.102-.007.18.065.184.155l.124 3.184.043-.02.39 1.487 2.026-1.993.173.047.025-2.947c0-.134.122-.24.27-.24.148 0 .268.11.267.243l-.02 2.44 2.202-1.94.138-.757c-.04.018-.08.03-.125.03-.016 0-.03 0-.047-.006-.146-.023-.243-.15-.215-.28l6.058-29.71c.025-.118.142-.2.274-.196l6.39-27.665c.01-.044.057-.072.106-.063.048.01.08.053.07.095l-6.4 27.693c.07.056.104.138.086.223l-5.708 28c.04-.013.083-.018.128-.012.147.022.245.146.22.277l-1.198 6.553.045.036 1.31.008.354.483-.725 1.335 1.3 1.656 1.397-.192c.05-.01.1.01.138.033.038.027.063.068.067.113l.296 3.003c.118.04.247.098.392.175.33.17.484.376.532.584l.03-3.418c0-.078.065-.147.152-.157l2.385-.306c.096-.013.188.05.202.136l.6 3.772 1.096.01c.1 0 .178.074.177.163 0 .09-.08.162-.18.16l-2.5-.016c-.592 0-1.01.113-1.243.348-.234.236-.197.516-.195.528v.024l-.025 2.994c.75-.053 1.652-.05 2.218.176 0 0 1.032-.674 1.88-.427 0 0 .183-.743 1.116-.045 0 0 8.067 2.074 10.57 2.01 2.5-.062 2.938 1.103 2.753 1.744 0 0 .648 2.494-2.162 2.113l-12.805-1.734-.32 1s2.856 1.073 3.44 1.8l2.35.01c.032-.033.08-.056.135-.056.054 0 .102.024.134.06h.327c.032-.035.08-.06.134-.06.054 0 .1.025.132.06h.234c.02-.07.088-.12.17-.12.082 0 .148.053.168.12l7.586.034c.028-.06.092-.1.166-.1.075 0 .138.043.165.1l6.06.026c.056-.026.12-.025.172 0l3.424.016c.01 0 .013-.01.02-.01.038-.01.075-.01.108.01l4.014.018h1.582c.1 0 .18.074.178.16 0 .09-.08.163-.18.162l-1.306-.01 1.34 4.104 1.118-.023c.1-.01.18.068.182.158 0 .088-.075.16-.174.163-.105 0-.465.01-1.02.02l.117.364.476-.066 1.894 1.51 1.098 4.02c.624.06.707.875.707.875.207 1.93-2.71 3.555-2.71 3.555-18.583.195-132.304.144-132.304.144l-2.658-2.47c-1.74-.17-.978-.647-.978-.647-1.686-1.376-11.282-7.46-11.282-7.46l-.938.032s-.936-.327-.93-1.008c.006-.682.678-.838.678-.838"/></svg>